<svg version="1.1" viewBox="0.0 0.0 252.08398950131235 177.08398950131235" fill="none" stroke="none" stroke-linecap="square" stroke-miterlimit="10" xmlns:xlink="http://www.w3.org/1999/xlink" xmlns="http://www.w3.org/2000/svg"><clipPath id="p.0"><path d="m0 0l252.08398 0l0 177.08398l-252.08398 0l0 -177.08398z" clip-rule="nonzero"/></clipPath><g clip-path="url(#p.0)"><path fill="#000000" fill-opacity="0.0" d="m0 0l252.08398 0l0 177.08398l-252.08398 0z" fill-rule="evenodd"/><path fill="#ffffff" d="m7.9537606 6.21002l70.3937 0l0 43.590553l-70.3937 0z" fill-rule="evenodd"/><path stroke="#000000" stroke-width="1.0" stroke-linejoin="round" stroke-linecap="butt" d="m7.9537606 6.21002l70.3937 0l0 43.590553l-70.3937 0z" fill-rule="evenodd"/><path fill="#000000" d="m25.107641 37.052795l0 -1.015625l9.328127 0l0 1.015625l-9.328127 0zm13.343752 0l0 -1.015625l9.328125 0l0 1.015625l-9.328125 0zm13.34375 0l0 -1.015625l9.328125 0l0 1.015625l-9.328125 0z" fill-rule="nonzero"/><path fill="#ffffff" d="m82.867004 6.2110677l70.39369 0l0 43.590553l-70.39369 0z" fill-rule="evenodd"/><path stroke="#000000" stroke-width="1.0" stroke-linejoin="round" stroke-linecap="butt" d="m82.867004 6.2110677l70.39369 0l0 43.590553l-70.39369 0z" fill-rule="evenodd"/><path fill="#000000" d="m100.02088 37.053844l0 -1.015625l9.328125 0l0 1.015625l-9.328125 0zm13.34375 0l0 -1.015625l9.328125 0l0 1.015625l-9.328125 0zm13.34375 0l0 -1.015625l9.328133 0l0 1.015625l-9.328133 0z" fill-rule="nonzero"/><path fill="#ffffff" d="m7.9537606 66.522354l70.3937 0l0 43.590553l-70.3937 0z" fill-rule="evenodd"/><path stroke="#000000" stroke-width="1.0" stroke-linejoin="round" stroke-linecap="butt" d="m7.9537606 66.522354l70.3937 0l0 43.590553l-70.3937 0z" fill-rule="evenodd"/><path fill="#000000" d="m25.107641 97.365135l0 -1.015625l9.328127 0l0 1.015625l-9.328127 0zm13.343752 0l0 -1.015625l9.328125 0l0 1.015625l-9.328125 0zm13.34375 0l0 -1.015625l9.328125 0l0 1.015625l-9.328125 0z" fill-rule="nonzero"/><path fill="#ffffff" d="m82.867004 66.52341l70.39369 0l0 43.590546l-70.39369 0z" fill-rule="evenodd"/><path stroke="#000000" stroke-width="1.0" stroke-linejoin="round" stroke-linecap="butt" d="m82.867004 66.52341l70.39369 0l0 43.590546l-70.39369 0z" fill-rule="evenodd"/><path fill="#000000" d="m100.02088 97.36618l0 -1.015625l9.328125 0l0 1.015625l-9.328125 0zm13.34375 0l0 -1.015625l9.328125 0l0 1.015625l-9.328125 0zm13.34375 0l0 -1.015625l9.328133 0l0 1.015625l-9.328133 0z" fill-rule="nonzero"/><path fill="#ffffff" d="m159.20303 66.521904l28.40944 0l0 43.590553l-28.40944 0z" fill-rule="evenodd"/><path stroke="#000000" stroke-width="1.0" stroke-linejoin="round" stroke-linecap="butt" d="m159.20303 66.521904l28.40944 0l0 43.590553l-28.40944 0z" fill-rule="evenodd"/><path fill="#000000" d="m168.70854 97.36468l0 -1.015625l9.328125 0l0 1.015625l-9.328125 0z" fill-rule="nonzero"/><path fill="#ffffff" d="m7.4439497 126.86094l45.35433 0l0 43.590553l-45.35433 0z" fill-rule="evenodd"/><path stroke="#000000" stroke-width="1.0" stroke-linejoin="round" stroke-linecap="butt" d="m7.4439497 126.86094l45.35433 0l0 43.590553l-45.35433 0z" fill-rule="evenodd"/><path fill="#000000" d="m18.750021 157.70372l0 -1.015625l9.328125 0l0 1.015625l-9.328125 0zm13.343752 0l0 -1.015625l9.328125 0l0 1.015625l-9.328125 0z" fill-rule="nonzero"/><path fill="#ffffff" d="m58.84655 126.834236l28.409447 0l0 43.590553l-28.409447 0z" fill-rule="evenodd"/><path stroke="#000000" stroke-width="1.0" stroke-linejoin="round" stroke-linecap="butt" d="m58.84655 126.834236l28.409447 0l0 43.590553l-28.409447 0z" fill-rule="evenodd"/><path fill="#000000" d="m68.35206 157.67702l0 -1.015625l9.328125 0l0 1.015625l-9.328125 0z" fill-rule="nonzero"/><path fill="#ffffff" d="m93.30809 126.834694l70.39371 0l0 43.590553l-70.39371 0z" fill-rule="evenodd"/><path stroke="#000000" stroke-width="1.0" stroke-linejoin="round" stroke-linecap="butt" d="m93.30809 126.834694l70.39371 0l0 43.590553l-70.39371 0z" fill-rule="evenodd"/><path fill="#000000" d="m110.461975 157.67747l0 -1.015625l9.328125 0l0 1.015625l-9.328125 0zm13.34375 0l0 -1.015625l9.328125 0l0 1.015625l-9.328125 0zm13.34375 0l0 -1.015625l9.328125 0l0 1.015625l-9.328125 0z" fill-rule="nonzero"/><path fill="#ffffff" d="m169.75044 126.834694l70.39371 0l0 43.590553l-70.39371 0z" fill-rule="evenodd"/><path stroke="#000000" stroke-width="1.0" stroke-linejoin="round" stroke-linecap="butt" d="m169.75044 126.834694l70.39371 0l0 43.590553l-70.39371 0z" fill-rule="evenodd"/><path fill="#000000" d="m186.90433 157.67747l0 -1.015625l9.328125 0l0 1.015625l-9.328125 0zm13.34375 0l0 -1.015625l9.328125 0l0 1.015625l-9.328125 0zm13.34375 0l0 -1.015625l9.328125 0l0 1.015625l-9.328125 0z" fill-rule="nonzero"/></g></svg>