<svg viewBox="14 4 36 56" xmlns="http://www.w3.org/2000/svg" id="door"><desc>Door Streamline Emoji: https://streamlinehq.com</desc><path d="M12.12 60.18666666666667a19.88 2.48 0 1 0 39.76 0 19.88 2.48 0 1 0 -39.76 0Z" fill="#45413c" opacity=".15" stroke-width="1"></path><path d="M16.266666666666666 4.68h4.973333333333333v54.666666666666664H16.266666666666666a1.6533333333333333 1.6533333333333333 0 0 1 -1.5999999999999999 -1.6666666666666665V6.333333333333333a1.6533333333333333 1.6533333333333333 0 0 1 1.5999999999999999 -1.6533333333333333Z" fill="#debb7e" stroke-width="1"></path><path d="m42.76 4.68 0 6.626666666666666 -21.53333333333333 0 0 -6.626666666666666z" fill="#debb7e" stroke-width="1"></path><path d="M21.24 4.68h21.53333333333333v3.3066666666666666H21.24z" fill="#f0d5a8" stroke-width="1"></path><path d="m42.76 4.68 0 6.626666666666666 -21.53333333333333 0 0 -6.626666666666666z" fill="none" stroke="#45413c" stroke-linecap="round" stroke-linejoin="round" stroke-width="1"></path><path d="m42.773333333333326 31.186666666666667 0 6.626666666666666 -21.53333333333333 0 0 -6.626666666666666z" fill="#debb7e" stroke="#45413c" stroke-linecap="round" stroke-linejoin="round" stroke-width="1"></path><path d="m42.773333333333326 52.72 0 6.626666666666666 -21.53333333333333 0 0 -6.626666666666666z" fill="#debb7e" stroke="#45413c" stroke-linecap="round" stroke-linejoin="round" stroke-width="1"></path><path d="M42.76 4.68h4.973333333333333A1.6533333333333333 1.6533333333333333 0 0 1 49.33333333333333 6.333333333333333v51.346666666666664a1.6533333333333333 1.6533333333333333 0 0 1 -1.5999999999999999 1.6533333333333333h-4.973333333333333v-54.666666666666664l0 0.013333333333333332Z" fill="#debb7e" stroke-width="1"></path><path d="M16.266666666666666 4.68A1.64 1.64 0 0 0 14.666666666666666 6.333333333333333v4.973333333333333A3.3066666666666666 3.3066666666666666 0 0 1 17.919999999999998 8h3.3200000000000003V4.68Z" fill="#f0d5a8" stroke-width="1"></path><path d="M47.73333333333333 4.68h-4.973333333333333V8h3.3200000000000003A3.3066666666666666 3.3066666666666666 0 0 1 49.33333333333333 11.306666666666667V6.333333333333333a1.64 1.64 0 0 0 -1.5999999999999999 -1.6533333333333333Z" fill="#f0d5a8" stroke-width="1"></path><path d="M16.266666666666666 4.68h4.973333333333333l0 0v54.666666666666664l0 0H16.266666666666666a1.6533333333333333 1.6533333333333333 0 0 1 -1.5999999999999999 -1.6666666666666665V6.333333333333333a1.6533333333333333 1.6533333333333333 0 0 1 1.5999999999999999 -1.6533333333333333Z" fill="none" stroke="#45413c" stroke-linecap="round" stroke-linejoin="round" stroke-width="1"></path><path d="M42.76 4.68h4.973333333333333A1.6533333333333333 1.6533333333333333 0 0 1 49.33333333333333 6.333333333333333v51.346666666666664a1.6533333333333333 1.6533333333333333 0 0 1 -1.5999999999999999 1.6533333333333333h-4.973333333333333l0 0v-54.666666666666664l0 0.013333333333333332Z" fill="none" stroke="#45413c" stroke-linecap="round" stroke-linejoin="round" stroke-width="1"></path><path d="M46.08 28.69333333333333H49.33333333333333l0 0v9.106666666666666l0 0h-1.5999999999999999a1.6533333333333333 1.6533333333333333 0 0 1 -1.6533333333333333 -1.6533333333333333v-7.453333333333333l0 0Z" fill="#ffe500" stroke="#45413c" stroke-linecap="round" stroke-linejoin="round" stroke-width="1"></path><path d="M45.25333333333333 30.346666666666668a2.48 2.48 0 1 0 4.96 0 2.48 2.48 0 1 0 -4.96 0Z" fill="#ffe500" stroke-width="1"></path><path d="M47.73333333333333 29.973333333333333a2.453333333333333 2.453333333333333 0 0 1 2.2399999999999998 1.4266666666666667 2.3466666666666667 2.3466666666666667 0 0 0 0.24 -1.0533333333333332 2.48 2.48 0 1 0 -4.96 0 2.5466666666666664 2.5466666666666664 0 0 0 0.24 1.0533333333333332 2.493333333333333 2.493333333333333 0 0 1 2.2399999999999998 -1.4266666666666667Z" fill="#fff48c" stroke-width="1"></path><path d="M45.25333333333333 30.346666666666668a2.48 2.48 0 1 0 4.96 0 2.48 2.48 0 1 0 -4.96 0Z" fill="none" stroke="#45413c" stroke-linecap="round" stroke-linejoin="round" stroke-width="1"></path><path d="M21.24 11.306666666666667h21.53333333333333v19.88H21.24z" fill="#debb7e" stroke-width="1"></path><path d="M21.24 11.306666666666667h21.53333333333333v3.24H21.24z" fill="#b89558" stroke-width="1"></path><path d="M21.24 11.306666666666667h21.53333333333333v19.88H21.24z" fill="none" stroke="#45413c" stroke-linecap="round" stroke-linejoin="round" stroke-width="1"></path><path d="M21.24 37.8h21.53333333333333v14.906666666666666H21.24z" fill="#debb7e" stroke-width="1"></path><path d="M21.24 37.8h21.53333333333333v3.24H21.24z" fill="#b89558" stroke-width="1"></path><path d="M21.24 37.8h21.53333333333333v14.906666666666666H21.24z" fill="none" stroke="#45413c" stroke-linecap="round" stroke-linejoin="round" stroke-width="1"></path></svg>