<svg version="1.1" viewBox="0.0 0.0 692.8582677165355 460.11811023622045" fill="none" stroke="none" stroke-linecap="square" stroke-miterlimit="10" xmlns:xlink="http://www.w3.org/1999/xlink" xmlns="http://www.w3.org/2000/svg"><clipPath id="p.0"><path d="m0 0l692.8583 0l0 460.1181l-692.8583 0l0 -460.1181z" clip-rule="nonzero"/></clipPath><g clip-path="url(#p.0)"><path fill="#000000" fill-opacity="0.0" d="m0 0l692.8583 0l0 460.1181l-692.8583 0z" fill-rule="evenodd"/><path fill="#ffffff" d="m0 0.40644935l697.0079 0l0 459.52756l-697.0079 0z" fill-rule="evenodd"/><path fill="#000000" fill-opacity="0.0" d="m12.026247 267.25684l333.82678 -192.7244" fill-rule="evenodd"/><path stroke="#785236" stroke-width="4.0" stroke-linejoin="round" stroke-linecap="butt" d="m12.026247 267.25684l333.82678 -192.7244" fill-rule="evenodd"/><path fill="#000000" fill-opacity="0.0" d="m672.39044 263.7844l-327.77954 -189.25983" fill-rule="evenodd"/><path stroke="#785236" stroke-width="4.0" stroke-linejoin="round" stroke-linecap="butt" d="m672.39044 263.7844l-327.77954 -189.25983" fill-rule="evenodd"/><path fill="#000000" fill-opacity="0.0" d="m141.90552 378.06262l206.04724 -129.57481" fill-rule="evenodd"/><path stroke="#785236" stroke-width="4.0" stroke-linejoin="round" stroke-linecap="butt" d="m141.90552 378.06262l206.04724 -129.57481" fill-rule="evenodd"/><path fill="#000000" fill-opacity="0.0" d="m540.3517 373.61905l-193.54327 -124.0" fill-rule="evenodd"/><path stroke="#785236" stroke-width="4.0" stroke-linejoin="round" stroke-linecap="butt" d="m540.3517 373.61905l-193.54327 -124.0" fill-rule="evenodd"/><path fill="#000000" fill-opacity="0.0" d="m11.971506 265.74713l130.14172 110.20474" fill-rule="evenodd"/><path stroke="#785236" stroke-width="4.0" stroke-linejoin="round" stroke-linecap="butt" d="m11.971506 265.74713l130.14172 110.20474" fill-rule="evenodd"/><path fill="#000000" fill-opacity="0.0" d="m672.2835 262.247l-132.91339 112.0" fill-rule="evenodd"/><path stroke="#38761d" stroke-width="4.0" stroke-linejoin="round" stroke-linecap="butt" d="m672.2835 262.247l-132.91339 112.0" fill-rule="evenodd"/><path fill="#000000" fill-opacity="0.0" d="m565.03375 294.39548l-227.46457 -131.30708" fill-rule="evenodd"/><path stroke="#000000" stroke-width="8.0" stroke-linejoin="round" stroke-linecap="butt" d="m565.03375 294.39548l-227.46457 -131.30708" fill-rule="evenodd"/><path fill="#000000" fill-opacity="0.0" d="m341.45407 162.98125l-207.08662 119.55907" fill-rule="evenodd"/><path stroke="#000000" stroke-width="8.0" stroke-linejoin="round" stroke-linecap="butt" d="m341.45407 162.98125l-165.51718 95.55943" fill-rule="evenodd"/><path fill="#000000" stroke="#000000" stroke-width="8.0" stroke-linecap="butt" d="m169.33006 247.09709l-24.834198 29.595688l38.04785 -6.708496z" fill-rule="evenodd"/></g></svg>