<svg version="1.1" viewBox="0.0 0.0 1078.3989501312335 916.8005249343832" fill="none" stroke="none" stroke-linecap="square" stroke-miterlimit="10" xmlns:xlink="http://www.w3.org/1999/xlink" xmlns="http://www.w3.org/2000/svg"><clipPath id="p.0"><path d="m0 0l1078.3989 0l0 916.80054l-1078.3989 0l0 -916.80054z" clip-rule="nonzero"/></clipPath><g clip-path="url(#p.0)"><path fill="#000000" fill-opacity="0.0" d="m0 0l1078.3989 0l0 916.80054l-1078.3989 0z" fill-rule="evenodd"/><path fill="#ffffff" d="m-16.0 -29.60105l1106.0157 0l0 966.01575l-1106.0157 0z" fill-rule="evenodd"/><path stroke="#ffffff" stroke-width="1.0" stroke-linejoin="round" stroke-linecap="butt" d="m-16.0 -29.60105l1106.0157 0l0 966.01575l-1106.0157 0z" fill-rule="evenodd"/><path fill="#ffd966" d="m5.2493436E-7 759.05676l0 0c0 -84.55609 68.546265 -153.10236 153.10236 -153.10236l0 0c40.60527 0 79.54747 16.130371 108.259735 44.84265c28.71225 28.71228 44.84262 67.65448 44.84262 108.259705l0 0c0 84.55609 -68.54625 153.10236 -153.10236 153.10236l0 0c-84.55609 0 -153.10236 -68.546265 -153.10236 -153.10236z" fill-rule="evenodd"/><path stroke="#000000" stroke-width="2.0" stroke-linejoin="round" stroke-linecap="butt" d="m5.2493436E-7 759.05676l0 0c0 -84.55609 68.546265 -153.10236 153.10236 -153.10236l0 0c40.60527 0 79.54747 16.130371 108.259735 44.84265c28.71225 28.71228 44.84262 67.65448 44.84262 108.259705l0 0c0 84.55609 -68.54625 153.10236 -153.10236 153.10236l0 0c-84.55609 0 -153.10236 -68.546265 -153.10236 -153.10236z" fill-rule="evenodd"/><path fill="#000000" d="m96.02743 773.81616q-1.203125 0 -2.515625 -0.109375q-1.296875 -0.09375 -2.609375 -0.265625q-1.3125 -0.1875 -2.59375 -0.421875l0 -26.921875q1.078125 -0.203125 2.265625 -0.34375q1.203125 -0.140625 2.46875 -0.234375q1.265625 -0.109375 2.453125 -0.109375q3.125 0 5.125 0.640625q2.0 0.640625 3.078125 1.703125q1.078125 1.0625 1.5 2.34375q0.421875 1.28125 0.421875 2.59375q0 1.28125 -0.4375 2.421875q-0.4375 1.140625 -1.25 2.03125q-0.796875 0.875 -1.875 1.46875q1.890625 0.6875 2.9375 1.734375q1.0625 1.03125 1.484375 2.25q0.421875 1.21875 0.421875 2.5q0 3.3125 -1.46875 5.21875q-1.453125 1.90625 -3.921875 2.703125q-2.453125 0.796875 -5.484375 0.796875zm0.4375 -4.796875q1.234375 0 2.390625 -0.296875q1.171875 -0.3125 1.90625 -1.171875q0.734375 -0.859375 0.734375 -2.453125q0 -1.359375 -0.578125 -2.171875q-0.578125 -0.828125 -1.640625 -1.21875q-1.0625 -0.40625 -2.5 -0.40625l-2.953125 0l0 7.5625q0.5625 0.03125 1.28125 0.09375q0.71875 0.0625 1.359375 0.0625zm-2.640625 -12.28125l2.15625 0q1.40625 0 2.34375 -0.421875q0.9375 -0.421875 1.40625 -1.171875q0.484375 -0.765625 0.484375 -1.84375q0 -1.328125 -0.546875 -1.984375q-0.53125 -0.65625 -1.40625 -0.875q-0.875 -0.21875 -1.921875 -0.21875q-0.59375 0 -1.28125 0.046875q-0.671875 0.03125 -1.234375 0.109375l0 6.359375zm25.712479 17.3125q-3.1875 0 -5.453125 -1.640625q-2.265625 -1.640625 -3.421875 -4.875q-1.15625 -3.234375 -1.15625 -7.953125q0 -4.765625 1.1875 -7.984375q1.203125 -3.21875 3.4375 -4.859375q2.25 -1.640625 5.375 -1.640625q3.234375 0 5.46875 1.640625q2.25 1.640625 3.3906326 4.859375q1.140625 3.21875 1.140625 7.984375q0 4.71875 -1.1875 7.953125q-1.1718826 3.234375 -3.3906326 4.875q-2.21875 1.640625 -5.390625 1.640625zm-0.03125 -4.796875q1.875 0 2.8125 -1.3125q0.9375 -1.328125 1.25 -3.515625q0.328125 -2.203125 0.328125 -4.84375q0 -2.71875 -0.296875 -4.890625q-0.296875 -2.1875 -1.234375 -3.484375q-0.9375 -1.3125 -2.859375 -1.3125q-1.890625 0 -2.828125 1.328125q-0.9375 1.3125 -1.265625 3.5q-0.3125 2.171875 -0.3125 4.859375q0 2.671875 0.296875 4.875q0.3125 2.203125 1.265625 3.5q0.953125 1.296875 2.84375 1.296875zm13.884361 4.203125q-0.453125 -4.15625 -0.796875 -8.859375q-0.328125 -4.703125 -0.53125 -9.53125q-0.203125 -4.84375 -0.3125 -9.328125l5.078125 0q-0.046875 3.515625 -0.109375 7.328125q-0.0625 3.796875 -0.125 7.4375q-0.046875 3.640625 -0.046875 6.75q0.4375 -1.4375 0.90625 -3.109375q0.484375 -1.6875 0.96875 -3.359375q0.484375 -1.6875 0.875 -3.0625q0.40625 -1.390625 0.640625 -2.1875l4.046875 0q0.40625 1.71875 1.3125 4.890625q0.921875 3.15625 1.921875 6.828125q0 -3.078125 -0.0625 -6.71875q-0.046875 -3.640625 -0.09375 -7.453125q-0.046875 -3.828125 -0.078125 -7.34375l5.078125 0q-0.15625 4.515625 -0.359375 9.359375q-0.203125 4.84375 -0.484375 9.53125q-0.28125 4.671875 -0.71875 8.828125l-4.5625 0q-1.0 -2.796875 -1.984375 -6.078125q-0.96875 -3.28125 -1.96875 -6.203125q-0.640625 1.84375 -1.34375 3.984375q-0.703125 2.140625 -1.390625 4.28125q-0.671875 2.140625 -1.3125 4.015625l-4.546875 0zm28.149979 0l0 -23.15625l-7.3125 0l0 -4.5625l20.15625 0l0 4.5625l-7.328125 0l0 23.15625l-5.515625 0zm16.368729 0l0 -4.5625l6.078125 0l0 -18.59375l-6.078125 0l0 -4.5625l17.640625 0l0 4.5625l-6.0 0l0 18.59375l6.0 0l0 4.5625l-17.640625 0zm22.837479 0l0 -27.71875l16.796875 0l0 4.5625l-11.328125 0l0 6.234375l9.84375 0l0 4.5625l-9.84375 0l0 7.796875l12.28125 0l0 4.5625l-17.75 0z" fill-rule="nonzero"/><path fill="#ffd966" d="m502.27878 28.57227l30.04007 2.0217896E-4l9.282654 -28.57239l9.282715 28.57239l30.04004 -2.0217896E-4l-24.302979 17.658508l9.28302 28.572262l-24.302795 -17.658829l-24.302795 17.658829l9.283081 -28.572262z" fill-rule="evenodd"/><path stroke="#000000" stroke-width="2.0" stroke-linejoin="round" stroke-linecap="butt" d="m502.27878 28.57227l30.04007 2.0217896E-4l9.282654 -28.57239l9.282715 28.57239l30.04004 -2.0217896E-4l-24.302979 17.658508l9.28302 28.572262l-24.302795 -17.658829l-24.302795 17.658829l9.283081 -28.572262z" fill-rule="evenodd"/><path fill="#ffd966" d="m502.27878 530.8737l30.04007 1.8310547E-4l9.282654 -28.572388l9.282715 28.572388l30.04004 -1.8310547E-4l-24.302979 17.658508l9.28302 28.572266l-24.302795 -17.658813l-24.302795 17.658813l9.283081 -28.572266z" fill-rule="evenodd"/><path stroke="#000000" stroke-width="2.0" stroke-linejoin="round" stroke-linecap="butt" d="m502.27878 530.8737l30.04007 1.8310547E-4l9.282654 -28.572388l9.282715 28.572388l30.04004 -1.8310547E-4l-24.302979 17.658508l9.28302 28.572266l-24.302795 -17.658813l-24.302795 17.658813l9.283081 -28.572266z" fill-rule="evenodd"/><path fill="#ffd966" d="m502.28052 275.66226l30.04004 2.1362305E-4l9.282715 -28.572388l9.282654 28.572388l30.0401 -2.1362305E-4l-24.30304 17.658508l9.283081 28.572266l-24.302795 -17.658813l-24.302795 17.658813l9.283081 -28.572266z" fill-rule="evenodd"/><path stroke="#000000" stroke-width="2.0" stroke-linejoin="round" stroke-linecap="butt" d="m502.28052 275.66226l30.04004 2.1362305E-4l9.282715 -28.572388l9.282654 28.572388l30.0401 -2.1362305E-4l-24.30304 17.658508l9.283081 28.572266l-24.302795 -17.658813l-24.302795 17.658813l9.283081 -28.572266z" fill-rule="evenodd"/><path fill="#ffd966" d="m384.3065 759.05676l0 0c0 -84.55609 68.546265 -153.10236 153.10239 -153.10236l0 0c40.605225 0 79.547424 16.130371 108.259705 44.84265c28.71228 28.71228 44.84265 67.65448 44.84265 108.259705l0 0c0 84.55609 -68.546265 153.10236 -153.10236 153.10236l0 0c-84.55612 0 -153.10239 -68.546265 -153.10239 -153.10236z" fill-rule="evenodd"/><path stroke="#000000" stroke-width="2.0" stroke-linejoin="round" stroke-linecap="butt" d="m384.3065 759.05676l0 0c0 -84.55609 68.546265 -153.10236 153.10239 -153.10236l0 0c40.605225 0 79.547424 16.130371 108.259705 44.84265c28.71228 28.71228 44.84265 67.65448 44.84265 108.259705l0 0c0 84.55609 -68.546265 153.10236 -153.10236 153.10236l0 0c-84.55612 0 -153.10239 -68.546265 -153.10239 -153.10236z" fill-rule="evenodd"/><path fill="#000000" d="m472.2902 726.05054q-3.875 0 -6.578125 -1.6875q-2.703125 -1.703125 -4.109375 -4.9375q-1.390625 -3.25 -1.390625 -7.84375q0 -4.609375 1.640625 -7.84375q1.640625 -3.234375 4.5 -4.9375q2.859375 -1.703125 6.453125 -1.703125q1.96875 0 3.421875 0.40625q1.46875 0.390625 2.40625 0.859375q0.9375 0.453125 1.328125 0.734375l-1.4375 4.40625q-1.0 -0.6875 -2.484375 -1.140625q-1.46875 -0.46875 -3.3125 -0.46875q-1.671875 0 -3.28125 0.859375q-1.59375 0.859375 -2.625 2.9375q-1.015625 2.078125 -1.015625 5.71875q0 3.125 0.71875 5.328125q0.71875 2.203125 2.28125 3.359375q1.5625 1.15625 4.0 1.15625q2.125 0 3.5625 -0.46875q1.4375 -0.484375 2.28125 -1.015625l1.359375 4.328125q-1.125 0.71875 -3.125 1.34375q-2.0 0.609375 -4.59375 0.609375zm9.524963 -0.59375q1.0 -4.078125 2.0 -7.796875q1.0 -3.71875 2.0 -7.140625q1.0 -3.421875 1.953125 -6.59375q0.953125 -3.1875 1.921875 -6.1875l6.0 0q0.953125 3.0 1.953125 6.25q1.0 3.234375 1.953125 6.671875q0.96875 3.4375 1.921875 7.140625q0.96875 3.703125 1.890625 7.65625l-5.921875 0l-1.28125 -6.40625l-7.390625 0l-1.28125 6.40625l-5.71875 0zm8.03125 -10.953125l5.40625 0q-0.328125 -2.0 -0.734375 -3.796875q-0.390625 -1.8125 -0.875 -3.671875q-0.46875 -1.859375 -1.078125 -3.9375q-0.59375 2.078125 -1.078125 3.9375q-0.484375 1.859375 -0.890625 3.671875q-0.390625 1.796875 -0.75 3.796875zm16.368744 10.953125l0 -27.359375q1.109375 -0.28125 2.484375 -0.421875q1.390625 -0.140625 2.75 -0.203125q1.359375 -0.0625 2.40625 -0.0625q3.546875 0 6.03125 0.953125q2.484375 0.9375 3.78125 2.984375q1.296875 2.03125 1.296875 5.34375q0 4.96875 -2.9375 7.1875q-2.9375 2.21875 -8.296875 2.21875l-2.0 0l0 9.359375l-5.515625 0zm5.515625 -14.15625l2.234375 0q1.765625 0 2.953125 -0.453125q1.203125 -0.46875 1.796875 -1.484375q0.609375 -1.03125 0.609375 -2.703125q0 -2.4375 -1.34375 -3.4375q-1.328125 -1.0 -3.484375 -1.0q-0.53125 0 -1.40625 0.015625q-0.875 0.015625 -1.359375 0.09375l0 8.96875zm16.884338 14.15625l0 -4.5625l6.078125 0l0 -18.59375l-6.078125 0l0 -4.5625l17.640625 0l0 4.5625l-6.0 0l0 18.59375l6.0 0l0 4.5625l-17.640625 0zm28.431213 0l0 -23.15625l-7.3125 0l0 -4.5625l20.156311 0l0 4.5625l-7.328125 0l0 23.15625l-5.515686 0zm25.1969 0.59375q-3.1875 0 -5.453125 -1.640625q-2.265625 -1.640625 -3.421875 -4.875q-1.15625 -3.234375 -1.15625 -7.953125q0 -4.765625 1.1875 -7.984375q1.203125 -3.21875 3.4375 -4.859375q2.25 -1.640625 5.375 -1.640625q3.234375 0 5.46875 1.640625q2.25 1.640625 3.390625 4.859375q1.140625 3.21875 1.140625 7.984375q0 4.71875 -1.1875 7.953125q-1.171875 3.234375 -3.390625 4.875q-2.21875 1.640625 -5.390625 1.640625zm-0.03125 -4.796875q1.875 0 2.8125 -1.3125q0.9375 -1.328125 1.25 -3.515625q0.328125 -2.203125 0.328125 -4.84375q0 -2.71875 -0.296875 -4.890625q-0.296875 -2.1875 -1.234375 -3.484375q-0.9375 -1.3125 -2.859375 -1.3125q-1.890625 0 -2.828125 1.328125q-0.9375 1.3125 -1.265625 3.5q-0.3125 2.171875 -0.3125 4.859375q0 2.671875 0.296875 4.875q0.3125 2.203125 1.265625 3.5q0.953125 1.296875 2.84375 1.296875zm14.399963 4.203125l0 -27.71875l5.515625 0l0 23.15625l11.875 0l0 4.5625l-17.390625 0z" fill-rule="nonzero"/><path fill="#000000" d="m461.4152 773.4568l0 -27.3125q1.078125 -0.28125 2.40625 -0.4375q1.34375 -0.171875 2.625 -0.234375q1.28125 -0.0625 2.15625 -0.0625q4.765625 0 7.625 2.234375q2.859375 2.21875 2.859375 6.859375q0 2.4375 -0.984375 4.40625q-0.96875 1.953125 -3.296875 2.984375q1.046875 1.515625 2.1875 3.5q1.140625 1.984375 2.171875 4.09375q1.046875 2.09375 1.765625 3.96875l-5.796875 0q-0.640625 -1.765625 -1.5 -3.453125q-0.859375 -1.703125 -1.828125 -3.375q-0.953125 -1.6875 -2.0 -3.375q-0.15625 0 -0.296875 0q-0.140625 0 -0.296875 0l-2.28125 0l0 10.203125l-5.515625 0zm5.515625 -14.796875l1.203125 0q1.921875 0 3.09375 -0.5q1.1875 -0.5 1.71875 -1.4375q0.546875 -0.953125 0.546875 -2.265625q0 -1.484375 -0.625 -2.390625q-0.625 -0.921875 -1.71875 -1.375q-1.09375 -0.46875 -2.546875 -0.46875q-0.28125 0 -0.765625 0.015625q-0.46875 0.015625 -0.90625 0.09375l0 8.328125zm17.321838 14.796875l0 -27.71875l16.796875 0l0 4.5625l-11.328125 0l0 6.234375l9.84375 0l0 4.5625l-9.84375 0l0 7.796875l12.28125 0l0 4.5625l-17.75 0zm32.837494 0.59375q-3.875 0 -6.578125 -1.6875q-2.703125 -1.703125 -4.109375 -4.9375q-1.390625 -3.25 -1.390625 -7.84375q0 -4.609375 1.640625 -7.84375q1.640625 -3.234375 4.5 -4.9375q2.859375 -1.703125 6.453125 -1.703125q1.96875 0 3.421875 0.40625q1.46875 0.390625 2.40625 0.859375q0.9375 0.453125 1.328125 0.734375l-1.4375 4.40625q-1.0 -0.6875 -2.484375 -1.140625q-1.46875 -0.46875 -3.3125 -0.46875q-1.671875 0 -3.28125 0.859375q-1.59375 0.859375 -2.625 2.9375q-1.015625 2.078125 -1.015625 5.71875q0 3.125 0.71875 5.328125q0.71875 2.203125 2.28125 3.359375q1.5625 1.15625 4.0 1.15625q2.125 0 3.5625 -0.46875q1.4375 -0.484375 2.28125 -1.015625l1.359375 4.328125q-1.125 0.71875 -3.125 1.34375q-2.0 0.609375 -4.59375 0.609375zm20.353088 0q-3.1875 0 -5.453125 -1.640625q-2.265625 -1.640625 -3.421875 -4.875q-1.15625 -3.234375 -1.15625 -7.953125q0 -4.765625 1.1875 -7.984375q1.203125 -3.21875 3.4375 -4.859375q2.25 -1.640625 5.375 -1.640625q3.234375 0 5.46875 1.640625q2.25 1.640625 3.390625 4.859375q1.140625 3.21875 1.140625 7.984375q0 4.71875 -1.1875 7.953125q-1.171875 3.234375 -3.390625 4.875q-2.21875 1.640625 -5.390625 1.640625zm-0.03125 -4.796875q1.875 0 2.8125 -1.3125q0.9375 -1.328125 1.25 -3.515625q0.328125 -2.203125 0.328125 -4.84375q0 -2.71875 -0.296875 -4.890625q-0.296875 -2.1875 -1.234375 -3.484375q-0.9375 -1.3125 -2.859375 -1.3125q-1.890625 0 -2.828125 1.328125q-0.9375 1.3125 -1.265625 3.5q-0.3125 2.171875 -0.3125 4.859375q0 2.671875 0.296875 4.875q0.3125 2.203125 1.265625 3.5q0.953125 1.296875 2.84375 1.296875zm13.603088 4.203125l0 -27.3125q1.078125 -0.28125 2.40625 -0.4375q1.34375 -0.171875 2.625 -0.234375q1.281311 -0.0625 2.156311 -0.0625q4.765625 0 7.625 2.234375q2.859375 2.21875 2.859375 6.859375q0 2.4375 -0.984375 4.40625q-0.96875 1.953125 -3.296875 2.984375q1.046875 1.515625 2.1875 3.5q1.140625 1.984375 2.171875 4.09375q1.046875 2.09375 1.765625 3.96875l-5.796875 0q-0.640625 -1.765625 -1.5 -3.453125q-0.859375 -1.703125 -1.828125 -3.375q-0.953125 -1.6875 -2.0 -3.375q-0.15625 0 -0.296875 0q-0.140625 0 -0.296875 0l-2.281311 0l0 10.203125l-5.515625 0zm5.515625 -14.796875l1.203186 0q1.921875 0 3.09375 -0.5q1.1875 -0.5 1.71875 -1.4375q0.546875 -0.953125 0.546875 -2.265625q0 -1.484375 -0.625 -2.390625q-0.625 -0.921875 -1.71875 -1.375q-1.09375 -0.46875 -2.546875 -0.46875q-0.28125 0 -0.765625 0.015625q-0.46881104 0.015625 -0.90631104 0.09375l0 8.328125zm22.79065 15.15625q-1.46875 0 -2.875 -0.15625q-1.390625 -0.15625 -3.03125 -0.515625l0 -27.046875q1.875 -0.4375 3.53125 -0.5625q1.65625 -0.125 3.109375 -0.125q3.671875 0 6.40625 1.46875q2.75 1.453125 4.25 4.578125q1.5 3.125 1.5 8.125q0 5.15625 -1.671875 8.28125q-1.65625 3.109375 -4.5625 4.53125q-2.890625 1.421875 -6.65625 1.421875zm0.609375 -4.796875q2.515625 0 3.96875 -1.21875q1.46875 -1.21875 2.078125 -3.359375q0.625 -2.140625 0.625 -4.859375q0 -2.4375 -0.5 -4.5625q-0.5 -2.125 -1.796875 -3.453125q-1.296875 -1.34375 -3.734375 -1.34375q-0.40625 0 -0.828125 0.015625q-0.421875 0.015625 -0.8125 0.09375l0 18.640625q0.203125 0.046875 0.484375 0.046875q0.28125 0 0.515625 0zm23.884338 5.03125q-2.328125 0 -3.984375 -0.359375q-1.65625 -0.359375 -2.78125 -0.859375q-1.125 -0.5 -1.84375 -0.890625l1.609375 -4.484375q1.1875 0.6875 2.890625 1.328125q1.703125 0.625 4.109375 0.625q1.875 0 2.875 -0.5q1.0 -0.5 1.390625 -1.3125q0.40625 -0.828125 0.40625 -1.734375q0 -1.203125 -0.828125 -2.0q-0.8125 -0.8125 -2.03125 -1.390625q-1.21875 -0.578125 -2.453125 -1.0625q-1.25 -0.46875 -2.578125 -1.046875q-1.3125 -0.59375 -2.453125 -1.46875q-1.140625 -0.875 -1.84375 -2.21875q-0.6875 -1.34375 -0.6875 -3.296875q0 -3.875 2.546875 -6.078125q2.5625 -2.203125 6.9375 -2.203125q2.515625 0 4.453125 0.609375q1.9375 0.59375 3.21875 1.265625l-1.59375 4.25q-1.125 -0.640625 -2.515625 -1.078125q-1.375 -0.453125 -3.171875 -0.453125q-1.484375 0 -2.4375 0.359375q-0.953125 0.359375 -1.4375 1.09375q-0.484375 0.71875 -0.484375 1.75q0 1.046875 0.734375 1.78125q0.75 0.734375 1.890625 1.265625q1.140625 0.515625 2.25 0.953125q1.328125 0.484375 2.71875 1.109375q1.40625 0.609375 2.609375 1.578125q1.203125 0.953125 1.9375 2.5q0.734375 1.53125 0.734375 3.8125q0 3.875 -2.546875 6.015625q-2.53125 2.140625 -7.640625 2.140625z" fill-rule="nonzero"/><path fill="#000000" d="m495.81204 821.4568l0 -27.71875l5.515625 0l0 23.15625l11.8749695 0l0 4.5625l-17.390594 0zm30.431244 0.59375q-3.1875 0 -5.453125 -1.640625q-2.265625 -1.640625 -3.421875 -4.875q-1.15625 -3.234375 -1.15625 -7.953125q0 -4.765625 1.1875 -7.984375q1.203125 -3.21875 3.4375 -4.859375q2.25 -1.640625 5.375 -1.640625q3.234375 0 5.46875 1.640625q2.25 1.640625 3.390625 4.859375q1.140625 3.21875 1.140625 7.984375q0 4.71875 -1.1875 7.953125q-1.171875 3.234375 -3.390625 4.875q-2.21875 1.640625 -5.390625 1.640625zm-0.03125 -4.796875q1.875 0 2.8125 -1.3125q0.9375 -1.328125 1.25 -3.515625q0.328125 -2.203125 0.328125 -4.84375q0 -2.71875 -0.296875 -4.890625q-0.296875 -2.1875 -1.234375 -3.484375q-0.9375 -1.3125 -2.859375 -1.3125q-1.890625 0 -2.828125 1.328125q-0.9375 1.3125 -1.265625 3.5q-0.3125 2.171875 -0.3125 4.859375q0 2.671875 0.296875 4.875q0.3125 2.203125 1.265625 3.5q0.953125 1.296875 2.84375 1.296875zm23.759338 4.796875q-3.484375 0 -6.03125 -1.609375q-2.53125 -1.625 -3.9375 -4.84375q-1.390625 -3.21875 -1.390625 -8.015625q0 -4.765625 1.609375 -7.984375q1.625 -3.21875 4.34375 -4.859375q2.71875 -1.640625 6.046875 -1.640625q2.203125 0 3.71875 0.40625q1.515625 0.390625 2.46875 0.859375q0.96875 0.453125 1.40625 0.734375l-1.4375 4.40625q-1.0 -0.640625 -2.4375 -1.125q-1.4375 -0.484375 -2.96875 -0.484375q-2.546875 0 -4.140625 1.21875q-1.578125 1.21875 -2.296875 3.40625q-0.71875 2.171875 -0.71875 5.0625q0 3.28125 0.703125 5.421875q0.703125 2.140625 2.09375 3.203125q1.40625 1.046875 3.40625 1.046875q0.4375 0 1.03125 -0.078125q0.609375 -0.078125 1.125 -0.125l0 -10.109375l5.484375 0l0 13.828125q-0.953125 0.40625 -3.0625 0.84375q-2.09375 0.4375 -5.015625 0.4375zm21.071838 0q-3.1875 0 -5.453125 -1.640625q-2.265625 -1.640625 -3.421875 -4.875q-1.15625 -3.234375 -1.15625 -7.953125q0 -4.765625 1.1875 -7.984375q1.203125 -3.21875 3.4375 -4.859375q2.25 -1.640625 5.375 -1.640625q3.234375 0 5.46875 1.640625q2.25 1.640625 3.390625 4.859375q1.140625 3.21875 1.140625 7.984375q0 4.71875 -1.1875 7.953125q-1.171875 3.234375 -3.390625 4.875q-2.21875 1.640625 -5.390625 1.640625zm-0.03125 -4.796875q1.875 0 2.8125 -1.3125q0.9375 -1.328125 1.25 -3.515625q0.328125 -2.203125 0.328125 -4.84375q0 -2.71875 -0.296875 -4.890625q-0.296875 -2.1875 -1.234375 -3.484375q-0.9375 -1.3125 -2.859375 -1.3125q-1.890625 0 -2.828125 1.328125q-0.9375 1.3125 -1.265625 3.5q-0.3125 2.171875 -0.3125 4.859375q0 2.671875 0.296875 4.875q0.3125 2.203125 1.265625 3.5q0.953125 1.296875 2.84375 1.296875z" fill-rule="nonzero"/><path fill="#ffd966" d="m768.613 759.05676l0 0c0 -84.55609 68.546265 -153.10236 153.10236 -153.10236l0 0c40.605286 0 79.547485 16.130371 108.259766 44.84265c28.71228 28.71228 44.84265 67.65448 44.84265 108.259705l0 0c0 84.55609 -68.546265 153.10236 -153.10242 153.10236l0 0c-84.55609 0 -153.10236 -68.546265 -153.10236 -153.10236z" fill-rule="evenodd"/><path stroke="#000000" stroke-width="2.0" stroke-linejoin="round" stroke-linecap="butt" d="m768.613 759.05676l0 0c0 -84.55609 68.546265 -153.10236 153.10236 -153.10236l0 0c40.605286 0 79.547485 16.130371 108.259766 44.84265c28.71228 28.71228 44.84265 67.65448 44.84265 108.259705l0 0c0 84.55609 -68.546265 153.10236 -153.10242 153.10236l0 0c-84.55609 0 -153.10236 -68.546265 -153.10236 -153.10236z" fill-rule="evenodd"/><path fill="#000000" d="m834.52167 773.4568l0 -27.359375q1.109375 -0.28125 2.484375 -0.421875q1.390625 -0.140625 2.75 -0.203125q1.359375 -0.0625 2.40625 -0.0625q3.546875 0 6.03125 0.953125q2.484375 0.9375 3.78125 2.984375q1.296875 2.03125 1.296875 5.34375q0 4.96875 -2.9375 7.1875q-2.9375 2.21875 -8.296875 2.21875l-2.0 0l0 9.359375l-5.515625 0zm5.515625 -14.15625l2.234375 0q1.765625 0 2.953125 -0.453125q1.203125 -0.46875 1.796875 -1.484375q0.609375 -1.03125 0.609375 -2.703125q0 -2.4375 -1.34375 -3.4375q-1.328125 -1.0 -3.484375 -1.0q-0.53125 0 -1.40625 0.015625q-0.875 0.015625 -1.359375 0.09375l0 8.96875zm17.681274 14.15625l0 -27.71875l5.515625 0l0 23.15625l11.875 0l0 4.5625l-17.390625 0zm22.040588 0l0 -27.71875l16.796875 0l0 4.5625l-11.328125 0l0 6.234375l9.84375 0l0 4.5625l-9.84375 0l0 7.796875l12.28125 0l0 4.5625l-17.75 0zm21.962463 0l0 -4.5625l6.078125 0l0 -18.59375l-6.078125 0l0 -4.5625l17.640625 0l0 4.5625l-6.0 0l0 18.59375l6.0 0l0 4.5625l-17.640625 0zm20.399963 0q1.0 -4.078125 2.0 -7.796875q1.0 -3.71875 2.0 -7.140625q1.0 -3.421875 1.953125 -6.59375q0.953125 -3.1875 1.921875 -6.1875l6.0 0q0.953125 3.0 1.953125 6.25q1.0 3.234375 1.953125 6.671875q0.96875 3.4375 1.921875 7.140625q0.96875 3.703125 1.890625 7.65625l-5.921875 0l-1.28125 -6.40625l-7.390625 0l-1.28125 6.40625l-5.71875 0zm8.03125 -10.953125l5.40625 0q-0.328125 -2.0 -0.734375 -3.796875q-0.390625 -1.8125 -0.875 -3.671875q-0.46875 -1.859375 -1.078125 -3.9375q-0.59375 2.078125 -1.078125 3.9375q-0.484375 1.859375 -0.890625 3.671875q-0.390625 1.796875 -0.75 3.796875zm22.275024 11.3125q-1.46875 0 -2.875 -0.15625q-1.390625 -0.15625 -3.03125 -0.515625l0 -27.046875q1.875 -0.4375 3.53125 -0.5625q1.65625 -0.125 3.109375 -0.125q3.671875 0 6.40625 1.46875q2.75 1.453125 4.25 4.578125q1.5 3.125 1.5 8.125q0 5.15625 -1.671875 8.28125q-1.65625 3.109375 -4.5625 4.53125q-2.890625 1.421875 -6.65625 1.421875zm0.609375 -4.796875q2.515625 0 3.96875 -1.21875q1.46875 -1.21875 2.078125 -3.359375q0.625 -2.140625 0.625 -4.859375q0 -2.4375 -0.5 -4.5625q-0.5 -2.125 -1.796875 -3.453125q-1.296875 -1.34375 -3.734375 -1.34375q-0.40625 0 -0.828125 0.015625q-0.421875 0.015625 -0.8125 0.09375l0 18.640625q0.203125 0.046875 0.484375 0.046875q0.28125 0 0.515625 0zm16.321838 4.4375l0 -27.71875l16.796875 0l0 4.5625l-11.328125 0l0 6.234375l9.84375 0l0 4.5625l-9.84375 0l0 7.796875l12.28125 0l0 4.5625l-17.75 0zm29.962463 0.59375q-2.328125 0 -3.984375 -0.359375q-1.65625 -0.359375 -2.78125 -0.859375q-1.125 -0.5 -1.84375 -0.890625l1.609375 -4.484375q1.1875 0.6875 2.890625 1.328125q1.703125 0.625 4.109375 0.625q1.875 0 2.875 -0.5q1.0 -0.5 1.390625 -1.3125q0.40625 -0.828125 0.40625 -1.734375q0 -1.203125 -0.828125 -2.0q-0.8125 -0.8125 -2.03125 -1.390625q-1.21875 -0.578125 -2.453125 -1.0625q-1.25 -0.46875 -2.578125 -1.046875q-1.3125 -0.59375 -2.453125 -1.46875q-1.140625 -0.875 -1.84375 -2.21875q-0.6875 -1.34375 -0.6875 -3.296875q0 -3.875 2.546875 -6.078125q2.5625 -2.203125 6.9375 -2.203125q2.515625 0 4.453125 0.609375q1.9375 0.59375 3.21875 1.265625l-1.59375 4.25q-1.125 -0.640625 -2.515625 -1.078125q-1.375 -0.453125 -3.171875 -0.453125q-1.484375 0 -2.4375 0.359375q-0.953125 0.359375 -1.4375 1.09375q-0.484375 0.71875 -0.484375 1.75q0 1.046875 0.734375 1.78125q0.75 0.734375 1.890625 1.265625q1.140625 0.515625 2.25 0.953125q1.328125 0.484375 2.71875 1.109375q1.40625 0.609375 2.609375 1.578125q1.203125 0.953125 1.9375 2.5q0.734375 1.53125 0.734375 3.8125q0 3.875 -2.546875 6.015625q-2.53125 2.140625 -7.640625 2.140625z" fill-rule="nonzero"/><path fill="#000000" fill-opacity="0.0" d="m783.296 268.70328l-198.04724 -198.04724" fill-rule="evenodd"/><path stroke="#000000" stroke-width="3.0" stroke-linejoin="round" stroke-linecap="butt" d="m783.296 268.70328l-185.31934 -185.3193" fill-rule="evenodd"/><path fill="#000000" stroke="#000000" stroke-width="3.0" stroke-linecap="butt" d="m601.4805 79.88011l-13.130615 -6.122902l6.122925 13.130608z" fill-rule="evenodd"/><path fill="#000000" fill-opacity="0.0" d="m783.296 300.29385l-202.01575 201.98425" fill-rule="evenodd"/><path stroke="#000000" stroke-width="3.0" stroke-linejoin="round" stroke-linecap="butt" d="m783.296 300.29385l-189.2868 189.25732" fill-rule="evenodd"/><path fill="#000000" stroke="#000000" stroke-width="3.0" stroke-linecap="butt" d="m590.5056 486.04703l-6.1239624 13.130157l13.1311035 -6.121887z" fill-rule="evenodd"/><path fill="#000000" fill-opacity="0.0" d="m330.96307 136.28275l154.51968 -89.196846" fill-rule="evenodd"/><path stroke="#000000" stroke-width="3.0" stroke-linejoin="round" stroke-linecap="butt" d="m330.96307 136.28275l138.93057 -80.198" fill-rule="evenodd"/><path fill="#000000" stroke="#000000" stroke-width="3.0" stroke-linecap="butt" d="m472.37094 60.37626l9.313538 -11.09779l-14.268097 2.5147705z" fill-rule="evenodd"/><path fill="#000000" fill-opacity="0.0" d="m330.96307 167.8733l156.6929 90.425186" fill-rule="evenodd"/><path stroke="#000000" stroke-width="3.0" stroke-linejoin="round" stroke-linecap="butt" d="m330.96307 167.87329l141.10266 81.4283" fill-rule="evenodd"/><path fill="#000000" stroke="#000000" stroke-width="3.0" stroke-linecap="butt" d="m469.58902 253.59341l14.268402 2.51297l-9.314911 -11.096603z" fill-rule="evenodd"/><path fill="#000000" fill-opacity="0.0" d="m330.96307 395.389l154.51968 -89.19687" fill-rule="evenodd"/><path stroke="#000000" stroke-width="3.0" stroke-linejoin="round" stroke-linecap="butt" d="m330.96307 395.38898l138.93057 -80.19797" fill-rule="evenodd"/><path fill="#000000" stroke="#000000" stroke-width="3.0" stroke-linecap="butt" d="m472.37094 319.4825l9.313538 -11.097778l-14.268097 2.5147705z" fill-rule="evenodd"/><path fill="#000000" fill-opacity="0.0" d="m330.96307 426.97955l156.69293 90.42517" fill-rule="evenodd"/><path stroke="#000000" stroke-width="3.0" stroke-linejoin="round" stroke-linecap="butt" d="m330.96307 426.97952l141.10266 81.428314" fill-rule="evenodd"/><path fill="#000000" stroke="#000000" stroke-width="3.0" stroke-linecap="butt" d="m469.58902 512.69965l14.268402 2.5130005l-9.314911 -11.096649z" fill-rule="evenodd"/><path fill="#ffd966" d="m783.296 268.70328l0 0c8.732178 0 15.811035 7.071808 15.811035 15.795288l0 0c0 4.1891785 -1.6658325 8.206757 -4.6309204 11.168945c-2.965149 2.9621887 -6.9867554 4.626343 -11.180115 4.626343l0 0c-8.732178 0 -15.811035 -7.071808 -15.811035 -15.795288l0 0c0 -8.72348 7.0788574 -15.795288 15.811035 -15.795288z" fill-rule="evenodd"/><path stroke="#000000" stroke-width="2.0" stroke-linejoin="round" stroke-linecap="butt" d="m783.296 268.70328l0 0c8.732178 0 15.811035 7.071808 15.811035 15.795288l0 0c0 4.1891785 -1.6658325 8.206757 -4.6309204 11.168945c-2.965149 2.9621887 -6.9867554 4.626343 -11.180115 4.626343l0 0c-8.732178 0 -15.811035 -7.071808 -15.811035 -15.795288l0 0c0 -8.72348 7.0788574 -15.795288 15.811035 -15.795288z" fill-rule="evenodd"/><path fill="#ffd966" d="m330.96307 136.28275l0 0c8.732178 0 15.811035 7.0717926 15.811035 15.795273l0 0c0 4.1891785 -1.665802 8.206757 -4.630951 11.168961c-2.965149 2.9621887 -6.986725 4.6263275 -11.180084 4.6263275l0 0c-8.732178 0 -15.811035 -7.0717926 -15.811035 -15.795288l0 0c0 -8.72348 7.0788574 -15.795273 15.811035 -15.795273z" fill-rule="evenodd"/><path stroke="#000000" stroke-width="2.0" stroke-linejoin="round" stroke-linecap="butt" d="m330.96307 136.28275l0 0c8.732178 0 15.811035 7.0717926 15.811035 15.795273l0 0c0 4.1891785 -1.665802 8.206757 -4.630951 11.168961c-2.965149 2.9621887 -6.986725 4.6263275 -11.180084 4.6263275l0 0c-8.732178 0 -15.811035 -7.0717926 -15.811035 -15.795288l0 0c0 -8.72348 7.0788574 -15.795273 15.811035 -15.795273z" fill-rule="evenodd"/><path fill="#ffd966" d="m330.96307 395.389l0 0c8.732178 0 15.811035 7.0717773 15.811035 15.795258l0 0c0 4.1891785 -1.665802 8.206757 -4.630951 11.168945c-2.965149 2.9621887 -6.986725 4.626343 -11.180084 4.626343l0 0c-8.732178 0 -15.811035 -7.0717773 -15.811035 -15.795288l0 0c0 -8.72348 7.0788574 -15.795258 15.811035 -15.795258z" fill-rule="evenodd"/><path stroke="#000000" stroke-width="2.0" stroke-linejoin="round" stroke-linecap="butt" d="m330.96307 395.389l0 0c8.732178 0 15.811035 7.0717773 15.811035 15.795258l0 0c0 4.1891785 -1.665802 8.206757 -4.630951 11.168945c-2.965149 2.9621887 -6.986725 4.626343 -11.180084 4.626343l0 0c-8.732178 0 -15.811035 -7.0717773 -15.811035 -15.795288l0 0c0 -8.72348 7.0788574 -15.795258 15.811035 -15.795258z" fill-rule="evenodd"/><path fill="#000000" fill-opacity="0.0" d="m352.85565 466.7349l52.0 0l0 67.874054l-52.0 0z" fill-rule="evenodd"/><path fill="#000000" d="m371.3744 514.1349l0 -4.5624695l5.84375 0l0 -15.515625q-1.25 0.875 -2.875 1.578125q-1.609375 0.703125 -2.734375 1.09375l-1.796875 -4.546875q1.484375 -0.5625 3.1875 -1.484375q1.703125 -0.921875 3.28125 -2.015625q1.578125 -1.109375 2.65625 -2.265625l3.765625 0l0 23.15625l5.515625 0l0 4.5624695l-16.84375 0z" fill-rule="nonzero"/><path fill="#000000" fill-opacity="0.0" d="m352.85565 36.53806l52.0 0l0 67.87401l-52.0 0z" fill-rule="evenodd"/><path fill="#000000" d="m370.2494 83.93806q-0.15625 -0.4375 -0.125 -1.109375q0.046875 -0.6875 0.046875 -0.96875q0 -2.5625 1.0625 -4.65625q1.0625 -2.109375 2.65625 -3.84375q1.609375 -1.734375 3.171875 -3.21875q1.1875 -1.125 2.203125 -2.15625q1.03125 -1.046875 1.625 -2.0625q0.609375 -1.03125 0.609375 -2.03125q0 -1.671875 -1.046875 -2.59375q-1.03125 -0.921875 -2.59375 -0.921875q-0.84375 0 -1.78125 0.28125q-0.9375 0.28125 -1.90625 0.859375q-0.953125 0.578125 -1.875 1.578125l-2.71875 -3.84375q1.203125 -1.234375 2.65625 -2.046875q1.46875 -0.828125 3.0625 -1.21875q1.59375 -0.40625 3.125 -0.40625q2.28125 0 4.25 0.890625q1.984375 0.875 3.203125 2.640625q1.21875 1.75 1.21875 4.390625q0 1.875 -0.921875 3.625q-0.921875 1.734375 -2.359375 3.3125q-1.4375 1.578125 -3.0 3.0625q-0.5625 0.515625 -1.296875 1.265625q-0.734375 0.734375 -1.4375 1.53125q-0.703125 0.796875 -1.171875 1.609375q-0.453125 0.796875 -0.453125 1.46875l11.890625 0l0 4.5625l-18.09375 0z" fill-rule="nonzero"/><path fill="#000000" fill-opacity="0.0" d="m690.51184 104.41207l52.0 0l0 67.874016l-52.0 0z" fill-rule="evenodd"/><path fill="#000000" d="m714.8743 152.40582q-1.359375 0 -2.90625 -0.265625q-1.53125 -0.25 -2.84375 -0.609375q-1.296875 -0.359375 -1.96875 -0.671875l1.078125 -4.609375q1.0 0.4375 2.65625 0.9375q1.65625 0.5 3.90625 0.5q1.921875 0 3.03125 -0.546875q1.125 -0.5625 1.59375 -1.515625q0.484375 -0.96875 0.484375 -2.125q0 -1.484375 -0.796875 -2.34375q-0.796875 -0.859375 -2.1875 -1.234375q-1.375 -0.390625 -3.171875 -0.390625l-1.71875 0l0 -4.5625l2.078125 0q1.15625 0 2.234375 -0.3125q1.09375 -0.328125 1.78125 -1.109375q0.703125 -0.78125 0.703125 -2.140625q0 -1.0 -0.40625 -1.71875q-0.390625 -0.71875 -1.171875 -1.109375q-0.78125 -0.40625 -1.859375 -0.40625q-1.59375 0 -3.140625 0.53125q-1.53125 0.515625 -2.625 1.234375l-2.0 -4.0q1.25 -0.8125 3.25 -1.640625q2.0 -0.84375 4.484375 -0.84375q3.109375 0 5.109375 1.03125q2.0 1.015625 2.984375 2.78125q0.984375 1.75 0.984375 3.984375q0 1.640625 -0.953125 3.1875q-0.9375 1.53125 -2.484375 2.328125q1.4375 0.5625 2.453125 1.546875q1.015625 0.984375 1.53125 2.3125q0.53125 1.3125 0.53125 2.953125q0 2.546875 -1.125 4.546875q-1.125 2.0 -3.46875 3.140625q-2.328125 1.140625 -6.046875 1.140625z" fill-rule="nonzero"/><path fill="#000000" fill-opacity="0.0" d="m690.51184 377.2467l52.0 0l0 67.87402l-52.0 0z" fill-rule="evenodd"/><path fill="#000000" d="m718.07745 424.64673l0 -6.5625l-11.5625 0l0 -4.0q0.875 -1.75 2.1875 -3.953125q1.328125 -2.203125 2.9375 -4.5625q1.625 -2.359375 3.421875 -4.59375q1.8125 -2.25 3.609375 -4.046875l4.921875 0l0 16.640625l3.0 0l0 4.515625l-3.0 0l0 6.5625l-5.515625 0zm-6.28125 -11.078125l6.28125 0l0 -9.765625q-0.765625 1.0 -1.625 2.1875q-0.859375 1.171875 -1.703125 2.4375q-0.84375 1.265625 -1.609375 2.5625q-0.75 1.296875 -1.34375 2.578125z" fill-rule="nonzero"/><path fill="#000000" fill-opacity="0.0" d="m352.85565 206.72704l52.0 0l0 67.87401l-52.0 0z" fill-rule="evenodd"/><path fill="#000000" d="m376.7025 254.72078q-1.40625 0 -2.90625 -0.234375q-1.5 -0.234375 -2.71875 -0.578125q-1.21875 -0.34375 -1.859375 -0.625l1.125 -4.59375q1.0 0.484375 2.515625 0.90625q1.515625 0.40625 3.796875 0.40625q2.203125 0 3.359375 -0.59375q1.15625 -0.59375 1.59375 -1.53125q0.453125 -0.953125 0.453125 -1.90625q0 -1.15625 -0.40625 -2.109375q-0.40625 -0.96875 -1.53125 -1.671875q-1.109375 -0.703125 -3.21875 -1.078125q-2.09375 -0.390625 -5.53125 -0.390625q0.234375 -1.875 0.390625 -3.6875q0.171875 -1.828125 0.3125 -3.640625q0.140625 -1.828125 0.234375 -3.5625q0.109375 -1.75 0.1875 -3.421875l14.15625 0l0 4.5625l-9.5625 0q-0.03125 0.71875 -0.09375 1.484375q-0.0625 0.75 -0.125 1.515625q-0.0625 0.75 -0.125 1.421875q-0.046875 0.65625 -0.09375 1.140625q5.515625 0.3125 8.28125 2.703125q2.765625 2.375 2.765625 6.53125q0 2.5625 -1.234375 4.578125q-1.21875 2.015625 -3.65625 3.203125q-2.4375 1.171875 -6.109375 1.171875z" fill-rule="nonzero"/><path fill="#000000" fill-opacity="0.0" d="m352.85565 289.88977l52.0 0l0 67.87402l-52.0 0z" fill-rule="evenodd"/><path fill="#000000" d="m379.2494 337.8835q-4.59375 0 -7.0625 -2.9375q-2.453125 -2.9375 -2.453125 -8.96875q0 -5.375 2.078125 -9.0625q2.078125 -3.703125 5.8125 -5.625q3.75 -1.921875 8.796875 -1.921875l0.3125 4.71875q-2.359375 0.046875 -4.5625 0.625q-2.203125 0.578125 -3.828125 1.9375q-1.609375 1.359375 -2.25 3.6875q0.84375 -0.359375 1.640625 -0.578125q0.796875 -0.234375 1.4375 -0.234375q3.25 0 5.1875 1.234375q1.9375 1.21875 2.8125 3.21875q0.890625 2.0 0.890625 4.4375q0 1.59375 -0.53125 3.265625q-0.515625 1.65625 -1.59375 3.078125q-1.078125 1.40625 -2.75 2.265625q-1.65625 0.859375 -3.9375 0.859375zm-0.109375 -4.75q1.234375 0 2.015625 -0.734375q0.78125 -0.75 1.140625 -1.828125q0.359375 -1.078125 0.359375 -2.078125q0 -2.078125 -0.9375 -3.21875q-0.9375 -1.140625 -3.265625 -1.140625q-0.84375 0 -1.765625 0.1875q-0.90625 0.171875 -1.46875 0.484375q-0.046875 0.40625 -0.0625 0.8125q-0.015625 0.390625 -0.015625 0.828125q0 1.6875 0.328125 3.234375q0.34375 1.53125 1.21875 2.5q0.890625 0.953125 2.453125 0.953125z" fill-rule="nonzero"/></g></svg>