<svg version="1.1" viewBox="0.0 0.0 529.8031496062993 889.0183727034121" fill="none" stroke="none" stroke-linecap="square" stroke-miterlimit="10" xmlns:xlink="http://www.w3.org/1999/xlink" xmlns="http://www.w3.org/2000/svg"><clipPath id="p.0"><path d="m0 0l529.80316 0l0 889.0184l-529.80316 0l0 -889.0184z" clip-rule="nonzero"/></clipPath><g clip-path="url(#p.0)"><path fill="#000000" fill-opacity="0.0" d="m0 0l529.80316 0l0 889.0184l-529.80316 0z" fill-rule="evenodd"/><path fill="#ffffff" d="m-66.27559 -25.097113l752.9449 0l0 972.9449l-752.9449 0z" fill-rule="evenodd"/><path stroke="#ffffff" stroke-width="1.0" stroke-linejoin="round" stroke-linecap="butt" d="m-66.27559 -25.097113l752.9449 0l0 972.9449l-752.9449 0z" fill-rule="evenodd"/><path fill="#000000" fill-opacity="0.0" d="m80.66133 124.82753l131.32448 8.773804E-4l40.580673 -124.828255l40.580643 124.828255l131.3245 -8.773804E-4l-106.24426 77.14723l40.582336 124.8277l-106.24321 -77.148636l-106.243225 77.148636l40.58232 -124.8277z" fill-rule="evenodd"/><path stroke="#000000" stroke-width="4.0" stroke-linejoin="round" stroke-linecap="butt" d="m80.66133 124.82753l131.32448 8.773804E-4l40.580673 -124.828255l40.580643 124.828255l131.3245 -8.773804E-4l-106.24426 77.14723l40.582336 124.8277l-106.24321 -77.148636l-106.243225 77.148636l40.58232 -124.8277z" fill-rule="evenodd"/><path fill="#000000" fill-opacity="0.0" d="m136.45349 122.24492l233.88977 0l0 66.267715l-233.88977 0z" fill-rule="evenodd"/><path fill="#000000" d="m173.32658 168.36491l0 -27.0625l11.9375 0q2.78125 0 4.71875 0.796875q1.9375 0.796875 2.921875 2.28125q0.984375 1.484375 0.984375 3.578125q0 2.3125 -1.140625 3.90625q-1.140625 1.578125 -3.3125 2.125l-0.078125 -0.734375q1.828125 0.375 3.15625 1.34375q1.328125 0.96875 2.0625 2.390625q0.734375 1.40625 0.734375 3.1875q0 2.046875 -0.703125 3.578125q-0.6875 1.515625 -2.0 2.5625q-1.3125 1.046875 -3.078125 1.546875q-1.75 0.5 -3.875 0.5l-12.328125 0zm6.1875 -5.484375l5.90625 0q1.078125 0 1.828125 -0.34375q0.765625 -0.359375 1.1875 -1.03125q0.421875 -0.671875 0.421875 -1.640625q0 -0.890625 -0.453125 -1.5q-0.4375 -0.625 -1.25 -0.953125q-0.8125 -0.328125 -1.921875 -0.328125l-5.71875 0l0 5.796875zm0 -10.71875l4.828125 0q1.0 0 1.71875 -0.328125q0.71875 -0.328125 1.078125 -0.921875q0.375 -0.59375 0.375 -1.453125q0 -1.234375 -0.859375 -1.9375q-0.84375 -0.71875 -2.546875 -0.71875l-4.59375 0l0 5.359375zm20.910522 16.203125l0 -27.0625l6.5625 0l0 21.265625l12.0625 0l0 5.796875l-18.625 0zm34.17456 0.234375q-3.375 0 -6.0 -1.375q-2.625 -1.375 -4.125 -3.765625q-1.484375 -2.40625 -1.484375 -5.5l0 -16.65625l6.65625 0l0 16.3125q0 1.46875 0.65625 2.65625q0.65625 1.171875 1.765625 1.859375q1.125 0.671875 2.53125 0.671875q1.46875 0 2.609375 -0.671875q1.140625 -0.6875 1.828125 -1.859375q0.703125 -1.1875 0.703125 -2.65625l0 -16.3125l6.40625 0l0 16.65625q0 3.09375 -1.484375 5.5q-1.484375 2.390625 -4.125 3.765625q-2.625 1.375 -5.9375 1.375zm18.165771 -0.234375l0 -27.0625l18.85939 0l0 5.609375l-12.484375 0l0 15.84375l12.875 0l0 5.609375l-19.250015 0zm3.09375 -11.09375l0 -5.328125l14.031265 0l0 5.328125l-14.031265 0zm21.839523 11.09375l0 -27.0625l5.875 0l14.1875 19.328125l-1.28125 -0.1875q-0.1875 -1.28125 -0.3125 -2.4375q-0.109375 -1.15625 -0.21875 -2.28125q-0.09375 -1.125 -0.15625 -2.28125q-0.046875 -1.15625 -0.0625 -2.5q-0.015625 -1.359375 -0.015625 -2.953125l0 -6.6875l6.375 0l0 27.0625l-5.953125 0l-14.8125 -19.953125l1.96875 0.28125q0.203125 1.84375 0.328125 3.140625q0.140625 1.296875 0.234375 2.3125q0.09375 1.0 0.125 1.8125q0.046875 0.8125 0.0625 1.609375q0.03125 0.78125 0.03125 1.75l0 9.046875l-6.375 0zm43.523712 0.390625q-3.09375 0 -5.65625 -1.046875q-2.546875 -1.046875 -4.4375 -2.9375q-1.890625 -1.890625 -2.9375 -4.4375q-1.046875 -2.5625 -1.046875 -5.609375q0 -3.0625 1.046875 -5.609375q1.046875 -2.546875 2.9375 -4.4375q1.890625 -1.90625 4.4375 -2.9375q2.5625 -1.046875 5.609375 -1.046875q3.0625 0 5.609375 1.046875q2.546875 1.03125 4.4375 2.9375q1.90625 1.890625 2.921875 4.4375q1.03125 2.546875 1.03125 5.609375q0 3.015625 -1.03125 5.59375q-1.015625 2.5625 -2.921875 4.453125q-1.890625 1.890625 -4.4375 2.9375q-2.546875 1.046875 -5.5625 1.046875zm-0.046875 -6.1875q1.59375 0 2.921875 -0.578125q1.34375 -0.578125 2.328125 -1.640625q0.984375 -1.0625 1.515625 -2.484375q0.546875 -1.4375 0.546875 -3.140625q0 -1.703125 -0.546875 -3.125q-0.53125 -1.4375 -1.515625 -2.5q-0.984375 -1.0625 -2.328125 -1.640625q-1.328125 -0.59375 -2.921875 -0.59375q-1.578125 0 -2.921875 0.59375q-1.328125 0.578125 -2.328125 1.640625q-1.0 1.0625 -1.53125 2.5q-0.515625 1.421875 -0.515625 3.125q0 1.703125 0.515625 3.15625q0.53125 1.4375 1.53125 2.484375q1.0 1.046875 2.328125 1.625q1.34375 0.578125 2.921875 0.578125z" fill-rule="nonzero"/><path fill="#000000" d="m227.84302 125.768776l0 0c0 -3.8877335 3.1516266 -7.0393677 7.0393677 -7.0393677l0 0c1.8669586 0 3.6574402 0.7416458 4.977585 2.0617828c1.3201447 1.320137 2.0617828 3.1106339 2.0617828 4.977585l0 0c0 3.8877335 -3.1516266 7.0393753 -7.0393677 7.0393753l0 0c-3.887741 0 -7.0393677 -3.1516418 -7.0393677 -7.0393753z" fill-rule="evenodd"/><path stroke="#000000" stroke-width="1.0" stroke-linejoin="round" stroke-linecap="butt" d="m227.84302 125.768776l0 0c0 -3.8877335 3.1516266 -7.0393677 7.0393677 -7.0393677l0 0c1.8669586 0 3.6574402 0.7416458 4.977585 2.0617828c1.3201447 1.320137 2.0617828 3.1106339 2.0617828 4.977585l0 0c0 3.8877335 -3.1516266 7.0393753 -7.0393677 7.0393753l0 0c-3.887741 0 -7.0393677 -3.1516418 -7.0393677 -7.0393753z" fill-rule="evenodd"/><path fill="#000000" fill-opacity="0.0" d="m136.51968 365.64304l232.09448 0l0 169.0079l-232.09448 0z" fill-rule="evenodd"/><path stroke="#000000" stroke-width="4.0" stroke-linejoin="round" stroke-linecap="butt" d="m136.51968 365.64304l232.09448 0l0 169.0079l-232.09448 0z" fill-rule="evenodd"/><path fill="#000000" d="m172.35661 448.68448l0 -18.53125q0.671875 -0.21875 1.578125 -0.375q0.90625 -0.15625 1.890625 -0.265625q0.984375 -0.109375 1.921875 -0.109375q2.1875 0 3.671875 0.890625q1.5 0.890625 2.265625 2.546875q0.78125 1.65625 0.78125 3.890625q0 2.171875 -0.625 3.828125q-0.609375 1.640625 -1.84375 2.578125q-1.234375 0.921875 -3.078125 0.921875q-0.703125 0 -1.40625 -0.15625q-0.703125 -0.15625 -1.5 -0.5l0 5.28125l-3.65625 0zm5.8125 -7.765625q0.875 0 1.4375 -0.46875q0.5625 -0.484375 0.84375 -1.40625q0.28125 -0.921875 0.28125 -2.203125q0 -1.890625 -0.75 -3.09375q-0.75 -1.203125 -2.265625 -1.203125q-0.421875 0 -0.90625 0.046875q-0.484375 0.046875 -0.796875 0.0625l0 7.703125q0.375 0.25 0.96875 0.40625q0.609375 0.15625 1.1875 0.15625zm15.864944 3.140625q-2.375 0 -4.109375 -0.8125q-1.734375 -0.8125 -2.671875 -2.421875q-0.921875 -1.609375 -0.921875 -3.984375q0 -1.859375 0.546875 -3.25q0.546875 -1.40625 1.484375 -2.359375q0.953125 -0.953125 2.140625 -1.40625q1.1875 -0.46875 2.4375 -0.46875q2.078125 0 3.484375 0.828125q1.421875 0.828125 2.140625 2.421875q0.71875 1.59375 0.71875 3.9375q0 0.359375 -0.015625 0.75q-0.015625 0.375 -0.046875 0.640625l-9.109375 0q0 1.359375 1.125 2.15625q1.140625 0.78125 2.921875 0.78125q1.09375 0 2.125 -0.21875q1.03125 -0.234375 1.6875 -0.484375l0.515625 3.125q-0.9375 0.34375 -2.03125 0.546875q-1.09375 0.21875 -2.421875 0.21875zm-3.921875 -8.6875l5.625 0q0 -0.734375 -0.265625 -1.40625q-0.265625 -0.671875 -0.875 -1.09375q-0.59375 -0.421875 -1.578125 -0.421875q-0.96875 0 -1.578125 0.421875q-0.609375 0.40625 -0.9375 1.078125q-0.3125 0.65625 -0.390625 1.421875zm12.099319 8.375l0 -13.59375q0.984375 -0.265625 2.4375 -0.5q1.453125 -0.25 3.140625 -0.25q2.234375 0 3.46875 0.8125q1.25 0.8125 1.734375 2.25q0.5 1.4375 0.5 3.359375l0 7.921875l-3.6875 0l0 -7.4375q0 -1.3125 -0.1875 -2.125q-0.1875 -0.8125 -0.6875 -1.1875q-0.484375 -0.390625 -1.390625 -0.390625q-0.390625 0 -0.8125 0.046875q-0.40625 0.03125 -0.859375 0.078125l0 11.015625l-3.65625 0zm20.50557 0.3125q-2.296875 0 -3.546875 -0.828125q-1.234375 -0.84375 -1.703125 -2.3125q-0.453125 -1.484375 -0.453125 -3.375l0 -7.8125l3.671875 0l0 7.328125q0 1.28125 0.203125 2.140625q0.203125 0.84375 0.6875 1.265625q0.5 0.40625 1.375 0.40625q0.375 0 0.84375 -0.03125q0.46875 -0.046875 0.84375 -0.109375l0 -11.0l3.703125 0l0 13.53125q-1.015625 0.265625 -2.484375 0.53125q-1.46875 0.265625 -3.140625 0.265625zm17.271194 0q-1.6875 0 -2.765625 -0.671875q-1.078125 -0.6875 -1.59375 -2.0q-0.5 -1.3125 -0.5 -3.21875l0 -11.90625l-3.890625 0l0 -3.0625l7.578125 0l0 15.25q0 0.921875 0.265625 1.453125q0.265625 0.53125 0.71875 0.75q0.453125 0.21875 1.015625 0.21875q1.09375 0 1.84375 -0.296875q0.765625 -0.296875 0.984375 -0.375l0.46875 2.953125q-0.1875 0.109375 -1.234375 0.515625q-1.03125 0.390625 -2.890625 0.390625zm14.739944 0q-1.703125 0 -2.90625 -0.390625q-1.203125 -0.40625 -1.828125 -1.59375q-0.625 -1.203125 -0.625 -3.546875l0 -5.765625l-3.203125 0l0 -3.03125l3.203125 0l0 -3.546875l3.671875 -0.59375l0 4.140625l5.890625 0l0 3.03125l-5.890625 0l0 5.6875q0 1.03125 0.25 1.5625q0.265625 0.515625 0.734375 0.6875q0.484375 0.171875 1.09375 0.171875q1.046875 0 1.796875 -0.125q0.75 -0.140625 1.78125 -0.625l0.5 3.171875q-1.0 0.421875 -2.1875 0.59375q-1.1875 0.171875 -2.28125 0.171875zm15.271179 0q-1.890625 0 -3.0 -0.71875q-1.109375 -0.734375 -1.5625 -2.109375q-0.453125 -1.375 -0.453125 -3.296875l0 -5.171875l-3.890625 0l0 -3.03125l7.578125 0l0 8.6875q0 0.828125 0.1875 1.375q0.203125 0.546875 0.640625 0.8125q0.453125 0.265625 1.171875 0.265625q0.46875 0 1.1875 -0.125q0.734375 -0.125 1.640625 -0.546875l0.46875 2.953125q-0.75 0.359375 -1.4375 0.5625q-0.6875 0.1875 -1.328125 0.265625q-0.640625 0.078125 -1.203125 0.078125zm-3.671875 -16.3125q-0.9375 0 -1.640625 -0.625q-0.6875 -0.640625 -0.6875 -1.71875q0 -1.09375 0.6875 -1.71875q0.703125 -0.625 1.640625 -0.625q0.921875 0 1.609375 0.625q0.703125 0.625 0.703125 1.71875q0 1.078125 -0.703125 1.71875q-0.6875 0.625 -1.609375 0.625zm9.48996 16.0l0 -13.484375q1.171875 -0.34375 2.3125 -0.515625q1.140625 -0.1875 2.0 -0.1875q0.765625 0 1.375 0.1875q0.625 0.1875 1.078125 0.640625q0.484375 -0.28125 1.171875 -0.546875q0.6875 -0.28125 1.4375 -0.28125q1.578125 0 2.40625 0.640625q0.828125 0.640625 1.125 1.921875q0.3125 1.28125 0.3125 3.234375l0 8.390625l-2.984375 0l0 -8.5625q0 -1.109375 -0.171875 -1.65625q-0.171875 -0.546875 -0.453125 -0.734375q-0.28125 -0.1875 -0.609375 -0.1875q-0.265625 0 -0.59375 0.046875q-0.3125 0.03125 -0.515625 0.171875q0.09375 0.546875 0.140625 1.25q0.0625 0.6875 0.0625 1.515625l0 2.828125l-2.984375 0l0 -3.234375q0 -1.40625 -0.28125 -1.984375q-0.28125 -0.59375 -0.921875 -0.59375q-0.1875 0 -0.4375 0.03125q-0.25 0.015625 -0.484375 0.09375l0 11.015625l-2.984375 0zm21.286804 0.3125q-1.328125 0 -2.421875 -0.234375q-1.09375 -0.234375 -1.890625 -0.765625q-0.78125 -0.53125 -1.1875 -1.421875q-0.40625 -0.90625 -0.40625 -2.1875q0 -1.640625 0.8125 -2.59375q0.828125 -0.953125 2.15625 -1.359375q1.34375 -0.40625 2.84375 -0.40625q0.734375 0 1.375 0.0625q0.640625 0.0625 1.15625 0.171875l0 -0.453125q0 -0.6875 -0.296875 -1.234375q-0.296875 -0.546875 -0.9375 -0.859375q-0.640625 -0.328125 -1.703125 -0.328125q-1.046875 0 -2.0 0.140625q-0.953125 0.140625 -1.578125 0.359375l-0.5 -2.953125q0.671875 -0.25 1.9375 -0.4375q1.265625 -0.203125 2.59375 -0.203125q2.296875 0 3.59375 0.6875q1.3125 0.6875 1.859375 1.96875q0.546875 1.28125 0.546875 3.046875l0 8.375q-0.796875 0.171875 -2.390625 0.390625q-1.578125 0.234375 -3.5625 0.234375zm0.265625 -2.953125q0.59375 0 1.15625 -0.015625q0.578125 -0.03125 1.015625 -0.0625l0 -3.21875q-0.359375 -0.0625 -0.859375 -0.09375q-0.5 -0.046875 -0.9375 -0.046875q-0.765625 0 -1.4375 0.140625q-0.671875 0.125 -1.078125 0.484375q-0.40625 0.359375 -0.40625 1.0625q0 0.921875 0.703125 1.34375q0.703125 0.40625 1.84375 0.40625zm17.068085 2.953125q-1.703125 0 -2.90625 -0.390625q-1.203125 -0.40625 -1.828125 -1.59375q-0.625 -1.203125 -0.625 -3.546875l0 -5.765625l-3.203125 0l0 -3.03125l3.203125 0l0 -3.546875l3.671875 -0.59375l0 4.140625l5.890625 0l0 3.03125l-5.890625 0l0 5.6875q0 1.03125 0.25 1.5625q0.265625 0.515625 0.734375 0.6875q0.484375 0.171875 1.09375 0.171875q1.046875 0 1.796875 -0.125q0.75 -0.140625 1.78125 -0.625l0.5 3.171875q-1.0 0.421875 -2.1875 0.59375q-1.1875 0.171875 -2.28125 0.171875zm13.943054 0q-2.375 0 -4.109375 -0.8125q-1.734375 -0.8125 -2.671875 -2.421875q-0.921875 -1.609375 -0.921875 -3.984375q0 -1.859375 0.546875 -3.25q0.546875 -1.40625 1.484375 -2.359375q0.953125 -0.953125 2.140625 -1.40625q1.1875 -0.46875 2.4375 -0.46875q2.078125 0 3.484375 0.828125q1.421875 0.828125 2.140625 2.421875q0.71875 1.59375 0.71875 3.9375q0 0.359375 -0.015625 0.75q-0.015625 0.375 -0.046875 0.640625l-9.109375 0q0 1.359375 1.125 2.15625q1.140625 0.78125 2.921875 0.78125q1.09375 0 2.125 -0.21875q1.03125 -0.234375 1.6875 -0.484375l0.515625 3.125q-0.9375 0.34375 -2.03125 0.546875q-1.09375 0.21875 -2.421875 0.21875zm-3.921875 -8.6875l5.625 0q0 -0.734375 -0.265625 -1.40625q-0.265625 -0.671875 -0.875 -1.09375q-0.59375 -0.421875 -1.578125 -0.421875q-0.96875 0 -1.578125 0.421875q-0.609375 0.40625 -0.9375 1.078125q-0.3125 0.65625 -0.390625 1.421875z" fill-rule="nonzero"/><path fill="#000000" d="m217.59709 476.05948q-1.6875 0 -2.765625 -0.671875q-1.078125 -0.6875 -1.59375 -2.0q-0.5 -1.3125 -0.5 -3.21875l0 -11.90625l-3.890625 0l0 -3.0625l7.578125 0l0 15.25q0 0.921875 0.265625 1.453125q0.265625 0.53125 0.71875 0.75q0.453125 0.21875 1.015625 0.21875q1.09375 0 1.84375 -0.296875q0.765625 -0.296875 0.984375 -0.375l0.46875 2.953125q-0.1875 0.109375 -1.234375 0.515625q-1.03125 0.390625 -2.890625 0.390625zm13.755569 0q-2.375 0 -4.109375 -0.8125q-1.734375 -0.8125 -2.671875 -2.421875q-0.921875 -1.609375 -0.921875 -3.984375q0 -1.859375 0.546875 -3.25q0.546875 -1.40625 1.484375 -2.359375q0.953125 -0.953125 2.140625 -1.40625q1.1875 -0.46875 2.4375 -0.46875q2.078125 0 3.484375 0.828125q1.421875 0.828125 2.140625 2.421875q0.71875 1.59375 0.71875 3.9375q0 0.359375 -0.015625 0.75q-0.015625 0.375 -0.046875 0.640625l-9.109375 0q0 1.359375 1.125 2.15625q1.140625 0.78125 2.921875 0.78125q1.09375 0 2.125 -0.21875q1.03125 -0.234375 1.6875 -0.484375l0.515625 3.125q-0.9375 0.34375 -2.03125 0.546875q-1.09375 0.21875 -2.421875 0.21875zm-3.921875 -8.6875l5.625 0q0 -0.734375 -0.265625 -1.40625q-0.265625 -0.671875 -0.875 -1.09375q-0.59375 -0.421875 -1.578125 -0.421875q-0.96875 0 -1.578125 0.421875q-0.609375 0.40625 -0.9375 1.078125q-0.3125 0.65625 -0.390625 1.421875zm19.833694 8.6875q-1.703125 0 -2.90625 -0.390625q-1.203125 -0.40625 -1.828125 -1.59375q-0.625 -1.203125 -0.625 -3.546875l0 -5.765625l-3.203125 0l0 -3.03125l3.203125 0l0 -3.546875l3.671875 -0.59375l0 4.140625l5.890625 0l0 3.03125l-5.890625 0l0 5.6875q0 1.03125 0.25 1.5625q0.265625 0.515625 0.734375 0.6875q0.484375 0.171875 1.09375 0.171875q1.046875 0 1.796875 -0.125q0.75 -0.140625 1.78125 -0.625l0.5 3.171875q-1.0 0.421875 -2.1875 0.59375q-1.1875 0.171875 -2.28125 0.171875zm14.927444 0q-1.703125 0 -2.90625 -0.390625q-1.203125 -0.40625 -1.828125 -1.59375q-0.625 -1.203125 -0.625 -3.546875l0 -5.765625l-3.203125 0l0 -3.03125l3.203125 0l0 -3.546875l3.671875 -0.59375l0 4.140625l5.890625 0l0 3.03125l-5.890625 0l0 5.6875q0 1.03125 0.25 1.5625q0.265625 0.515625 0.734375 0.6875q0.484375 0.171875 1.09375 0.171875q1.046875 0 1.796875 -0.125q0.75 -0.140625 1.78125 -0.625l0.5 3.171875q-1.0 0.421875 -2.1875 0.59375q-1.1875 0.171875 -2.28125 0.171875zm13.943085 0q-2.375 0 -4.109375 -0.8125q-1.734375 -0.8125 -2.671875 -2.421875q-0.921875 -1.609375 -0.921875 -3.984375q0 -1.859375 0.546875 -3.25q0.546875 -1.40625 1.484375 -2.359375q0.953125 -0.953125 2.140625 -1.40625q1.1875 -0.46875 2.4375 -0.46875q2.078125 0 3.484375 0.828125q1.421875 0.828125 2.140625 2.421875q0.71875 1.59375 0.71875 3.9375q0 0.359375 -0.015625 0.75q-0.015625 0.375 -0.046875 0.640625l-9.109375 0q0 1.359375 1.125 2.15625q1.140625 0.78125 2.921875 0.78125q1.09375 0 2.125 -0.21875q1.03125 -0.234375 1.6875 -0.484375l0.515625 3.125q-0.9375 0.34375 -2.03125 0.546875q-1.09375 0.21875 -2.421875 0.21875zm-3.921875 -8.6875l5.625 0q0 -0.734375 -0.265625 -1.40625q-0.265625 -0.671875 -0.875 -1.09375q-0.59375 -0.421875 -1.578125 -0.421875q-0.96875 0 -1.578125 0.421875q-0.609375 0.40625 -0.9375 1.078125q-0.3125 0.65625 -0.390625 1.421875zm12.880554 8.375l0 -13.109375q1.4375 -0.53125 2.984375 -0.84375q1.546875 -0.328125 3.59375 -0.328125q0.421875 0 1.21875 0.046875q0.8125 0.046875 1.6875 0.171875q0.875 0.125 1.546875 0.359375l-0.671875 3.40625q-0.453125 -0.125 -1.140625 -0.234375q-0.6875 -0.109375 -1.359375 -0.171875q-0.671875 -0.0625 -1.125 -0.0625q-0.765625 0 -1.515625 0.0625q-0.75 0.0625 -1.515625 0.28125l0 10.421875l-3.703125 0z" fill-rule="nonzero"/><path fill="#000000" d="m115.276085 760.94464l0 0c0 -3.8877563 3.1516342 -7.0393677 7.0393677 -7.0393677l0 0c1.8669586 0 3.6574478 0.7416382 4.9775925 2.0617676c1.3201294 1.3201294 2.0617828 3.1106567 2.0617828 4.9776l0 0c0 3.8877563 -3.1516342 7.0393677 -7.0393753 7.0393677l0 0c-3.8877335 0 -7.0393677 -3.1516113 -7.0393677 -7.0393677z" fill-rule="evenodd"/><path stroke="#000000" stroke-width="1.0" stroke-linejoin="round" stroke-linecap="butt" d="m115.276085 760.94464l0 0c0 -3.8877563 3.1516342 -7.0393677 7.0393677 -7.0393677l0 0c1.8669586 0 3.6574478 0.7416382 4.9775925 2.0617676c1.3201294 1.3201294 2.0617828 3.1106567 2.0617828 4.9776l0 0c0 3.8877563 -3.1516342 7.0393677 -7.0393753 7.0393677l0 0c-3.8877335 0 -7.0393677 -3.1516113 -7.0393677 -7.0393677z" fill-rule="evenodd"/><path fill="#000000" d="m397.95062 760.94464l0 0c0 -3.8877563 3.1516418 -7.0393677 7.0393677 -7.0393677l0 0c1.8669739 0 3.6574402 0.7416382 4.9776 2.0617676c1.3201294 1.3201294 2.0617676 3.1106567 2.0617676 4.9776l0 0c0 3.8877563 -3.1516113 7.0393677 -7.0393677 7.0393677l0 0c-3.8877258 0 -7.0393677 -3.1516113 -7.0393677 -7.0393677z" fill-rule="evenodd"/><path stroke="#000000" stroke-width="1.0" stroke-linejoin="round" stroke-linecap="butt" d="m397.95062 760.94464l0 0c0 -3.8877563 3.1516418 -7.0393677 7.0393677 -7.0393677l0 0c1.8669739 0 3.6574402 0.7416382 4.9776 2.0617676c1.3201294 1.3201294 2.0617676 3.1106567 2.0617676 4.9776l0 0c0 3.8877563 -3.1516113 7.0393677 -7.0393677 7.0393677l0 0c-3.8877258 0 -7.0393677 -3.1516113 -7.0393677 -7.0393677z" fill-rule="evenodd"/><path fill="#000000" fill-opacity="0.0" d="m-23.999905 735.0866l139.27559 0l0 51.716553l-139.27559 0z" fill-rule="evenodd"/><path fill="#000000" d="m9.699306 770.09283q-2.5781245 0 -4.3749995 -1.125q-1.7968752 -1.140625 -2.7343752 -3.296875q-0.9374999 -2.171875 -0.9374999 -5.234375q0 -3.0625 1.0937499 -5.21875q1.09375 -2.171875 3.0000002 -3.296875q1.90625 -1.140625 4.3124995 -1.140625q1.296875 0 2.265625 0.28125q0.984375 0.265625 1.609375 0.578125q0.625 0.296875 0.890625 0.484375l-0.953125 2.921875q-0.671875 -0.453125 -1.65625 -0.75q-0.984375 -0.3125 -2.21875 -0.3125q-1.109375 0 -2.1874995 0.578125q-1.0625 0.578125 -1.75 1.96875q-0.671875 1.375 -0.671875 3.796875q0 2.078125 0.46875 3.546875q0.484375 1.46875 1.53125 2.25q1.0468745 0.765625 2.6718745 0.765625q1.40625 0 2.359375 -0.3125q0.96875 -0.328125 1.53125 -0.671875l0.90625 2.875q-0.75 0.484375 -2.09375 0.90625q-1.328125 0.40625 -3.0625 0.40625zm15.896195 -0.09375q-1.6875 0 -2.765625 -0.671875q-1.078125 -0.6875 -1.59375 -2.0q-0.5 -1.3125 -0.5 -3.21875l0 -11.90625l-3.890625 0l0 -3.0625l7.578125 0l0 15.25q0 0.921875 0.265625 1.453125q0.265625 0.53125 0.71875 0.75q0.453125 0.21875 1.015625 0.21875q1.09375 0 1.84375 -0.296875q0.765625 -0.296875 0.984375 -0.375l0.46875 2.953125q-0.1875 0.109375 -1.234375 0.515625q-1.03125 0.390625 -2.890625 0.390625zm12.583694 0q-2.296875 0 -3.546875 -0.828125q-1.234375 -0.84375 -1.703125 -2.3125q-0.453125 -1.484375 -0.453125 -3.375l0 -7.8125l3.671875 0l0 7.328125q0 1.28125 0.203125 2.140625q0.203125 0.84375 0.6875 1.265625q0.5 0.40625 1.375 0.40625q0.375 0 0.84375 -0.03125q0.46875 -0.046875 0.84375 -0.109375l0 -11.0l3.703125 0l0 13.53125q-1.015625 0.265625 -2.484375 0.53125q-1.46875 0.265625 -3.140625 0.265625zm16.09932 0q-2.375 0 -4.109375 -0.8125q-1.734375 -0.8125 -2.671875 -2.421875q-0.921875 -1.609375 -0.921875 -3.984375q0 -1.859375 0.546875 -3.25q0.546875 -1.40625 1.484375 -2.359375q0.953125 -0.953125 2.140625 -1.40625q1.1875 -0.46875 2.4375 -0.46875q2.078125 0 3.484375 0.828125q1.421875 0.828125 2.140625 2.421875q0.71875 1.59375 0.71875 3.9375q0 0.359375 -0.015625 0.75q-0.015625 0.375 -0.046875 0.640625l-9.109375 0q0 1.359375 1.125 2.15625q1.140625 0.78125 2.921875 0.78125q1.09375 0 2.125 -0.21875q1.03125 -0.234375 1.6875 -0.484375l0.515625 3.125q-0.9375 0.34375 -2.03125 0.546875q-1.09375 0.21875 -2.421875 0.21875zm-3.921875 -8.6875l5.625 0q0 -0.734375 -0.265625 -1.40625q-0.265625 -0.671875 -0.875 -1.09375q-0.59375 -0.421875 -1.578125 -0.421875q-0.96875 0 -1.578125 0.421875q-0.609375 0.40625 -0.9375 1.078125q-0.3125 0.65625 -0.390625 1.421875zm27.62051 8.375l0 -3.03125l3.890625 0l0 -10.34375q-0.828125 0.578125 -1.90625 1.046875q-1.078125 0.46875 -1.828125 0.734375l-1.203125 -3.046875q0.984375 -0.359375 2.109375 -0.96875q1.140625 -0.625 2.1875 -1.359375q1.0625 -0.734375 1.78125 -1.5l2.5 0l0 15.4375l3.6875 0l0 3.03125l-11.21875 0z" fill-rule="nonzero"/><path fill="#000000" fill-opacity="0.0" d="m412.0283 735.0866l139.2756 0l0 51.716553l-139.2756 0z" fill-rule="evenodd"/><path fill="#000000" d="m445.7275 770.09283q-2.578125 0 -4.375 -1.125q-1.796875 -1.140625 -2.734375 -3.296875q-0.9375 -2.171875 -0.9375 -5.234375q0 -3.0625 1.09375 -5.21875q1.09375 -2.171875 3.0 -3.296875q1.90625 -1.140625 4.3125 -1.140625q1.296875 0 2.265625 0.28125q0.984375 0.265625 1.609375 0.578125q0.625 0.296875 0.890625 0.484375l-0.953125 2.921875q-0.671875 -0.453125 -1.65625 -0.75q-0.984375 -0.3125 -2.21875 -0.3125q-1.109375 0 -2.1875 0.578125q-1.0625 0.578125 -1.75 1.96875q-0.671875 1.375 -0.671875 3.796875q0 2.078125 0.46875 3.546875q0.484375 1.46875 1.53125 2.25q1.046875 0.765625 2.671875 0.765625q1.40625 0 2.359375 -0.3125q0.96875 -0.328125 1.53125 -0.671875l0.90625 2.875q-0.75 0.484375 -2.09375 0.90625q-1.328125 0.40625 -3.0625 0.40625zm15.89621 -0.09375q-1.6875 0 -2.765625 -0.671875q-1.078125 -0.6875 -1.59375 -2.0q-0.5 -1.3125 -0.5 -3.21875l0 -11.90625l-3.890625 0l0 -3.0625l7.578125 0l0 15.25q0 0.921875 0.265625 1.453125q0.265625 0.53125 0.71875 0.75q0.453125 0.21875 1.015625 0.21875q1.09375 0 1.84375 -0.296875q0.765625 -0.296875 0.984375 -0.375l0.46875 2.953125q-0.1875 0.109375 -1.234375 0.515625q-1.03125 0.390625 -2.890625 0.390625zm12.583679 0q-2.296875 0 -3.546875 -0.828125q-1.234375 -0.84375 -1.703125 -2.3125q-0.453125 -1.484375 -0.453125 -3.375l0 -7.8125l3.671875 0l0 7.328125q0 1.28125 0.203125 2.140625q0.203125 0.84375 0.6875 1.265625q0.5 0.40625 1.375 0.40625q0.375 0 0.84375 -0.03125q0.46875 -0.046875 0.84375 -0.109375l0 -11.0l3.703125 0l0 13.53125q-1.015625 0.265625 -2.484375 0.53125q-1.46875 0.265625 -3.140625 0.265625zm16.099335 0q-2.375 0 -4.109375 -0.8125q-1.734375 -0.8125 -2.671875 -2.421875q-0.921875 -1.609375 -0.921875 -3.984375q0 -1.859375 0.546875 -3.25q0.546875 -1.40625 1.484375 -2.359375q0.953125 -0.953125 2.140625 -1.40625q1.1875 -0.46875 2.4375 -0.46875q2.078125 0 3.484375 0.828125q1.421875 0.828125 2.140625 2.421875q0.71875 1.59375 0.71875 3.9375q0 0.359375 -0.015625 0.75q-0.015625 0.375 -0.046875 0.640625l-9.109375 0q0 1.359375 1.125 2.15625q1.140625 0.78125 2.921875 0.78125q1.09375 0 2.125 -0.21875q1.03125 -0.234375 1.6875 -0.484375l0.515625 3.125q-0.9375 0.34375 -2.03125 0.546875q-1.09375 0.21875 -2.421875 0.21875zm-3.921875 -8.6875l5.625 0q0 -0.734375 -0.265625 -1.40625q-0.265625 -0.671875 -0.875 -1.09375q-0.59375 -0.421875 -1.578125 -0.421875q-0.96875 0 -1.578125 0.421875q-0.609375 0.40625 -0.9375 1.078125q-0.3125 0.65625 -0.390625 1.421875zm26.870514 8.375q-0.109375 -0.296875 -0.09375 -0.75q0.03125 -0.453125 0.03125 -0.640625q0 -1.703125 0.703125 -3.09375q0.71875 -1.40625 1.78125 -2.5625q1.0625 -1.15625 2.109375 -2.15625q0.796875 -0.734375 1.46875 -1.421875q0.6875 -0.703125 1.078125 -1.375q0.40625 -0.6875 0.40625 -1.359375q0 -1.109375 -0.6875 -1.71875q-0.6875 -0.625 -1.734375 -0.625q-0.5625 0 -1.1875 0.1875q-0.625 0.1875 -1.265625 0.578125q-0.640625 0.390625 -1.25 1.046875l-1.8125 -2.5625q0.796875 -0.8125 1.765625 -1.359375q0.984375 -0.546875 2.046875 -0.8125q1.0625 -0.28125 2.078125 -0.28125q1.515625 0 2.828125 0.59375q1.328125 0.59375 2.140625 1.765625q0.8125 1.171875 0.8125 2.921875q0 1.25 -0.609375 2.421875q-0.609375 1.15625 -1.578125 2.21875q-0.953125 1.046875 -2.0 2.03125q-0.375 0.34375 -0.875 0.84375q-0.484375 0.484375 -0.953125 1.015625q-0.453125 0.53125 -0.765625 1.078125q-0.3125 0.53125 -0.3125 0.984375l7.921875 0l0 3.03125l-12.046875 0z" fill-rule="nonzero"/><path fill="#999999" d="m208.87976 714.2202l0 0c0 -3.8877563 3.1516266 -7.0393677 7.0393677 -7.0393677l0 0c1.8669586 0 3.6574554 0.7416382 4.977585 2.0617676c1.3201447 1.3201904 2.0617828 3.1106567 2.0617828 4.9776l0 0c0 3.8877563 -3.1516266 7.0393677 -7.0393677 7.0393677l0 0c-3.887741 0 -7.0393677 -3.1516113 -7.0393677 -7.0393677z" fill-rule="evenodd"/><path stroke="#999999" stroke-width="1.0" stroke-linejoin="round" stroke-linecap="butt" d="m208.87976 714.2202l0 0c0 -3.8877563 3.1516266 -7.0393677 7.0393677 -7.0393677l0 0c1.8669586 0 3.6574554 0.7416382 4.977585 2.0617676c1.3201447 1.3201904 2.0617828 3.1106567 2.0617828 4.9776l0 0c0 3.8877563 -3.1516266 7.0393677 -7.0393677 7.0393677l0 0c-3.887741 0 -7.0393677 -3.1516113 -7.0393677 -7.0393677z" fill-rule="evenodd"/><path fill="#999999" d="m303.8719 714.2202l0 0c0 -3.8877563 3.1516418 -7.0393677 7.0393677 -7.0393677l0 0c1.8669434 0 3.6574402 0.7416382 4.9776 2.0617676c1.3201294 1.3201904 2.0617676 3.1106567 2.0617676 4.9776l0 0c0 3.8877563 -3.1516418 7.0393677 -7.0393677 7.0393677l0 0c-3.8877258 0 -7.0393677 -3.1516113 -7.0393677 -7.0393677z" fill-rule="evenodd"/><path stroke="#999999" stroke-width="1.0" stroke-linejoin="round" stroke-linecap="butt" d="m303.8719 714.2202l0 0c0 -3.8877563 3.1516418 -7.0393677 7.0393677 -7.0393677l0 0c1.8669434 0 3.6574402 0.7416382 4.9776 2.0617676c1.3201294 1.3201904 2.0617676 3.1106567 2.0617676 4.9776l0 0c0 3.8877563 -3.1516418 7.0393677 -7.0393677 7.0393677l0 0c-3.8877258 0 -7.0393677 -3.1516113 -7.0393677 -7.0393677z" fill-rule="evenodd"/><path fill="#999999" d="m115.276085 830.2202l0 0c0 -3.8877563 3.1516342 -7.0393677 7.0393677 -7.0393677l0 0c1.8669586 0 3.6574478 0.7416382 4.9775925 2.0617676c1.3201294 1.3201904 2.0617828 3.1106567 2.0617828 4.9776l0 0c0 3.8877563 -3.1516342 7.0393677 -7.0393753 7.0393677l0 0c-3.8877335 0 -7.0393677 -3.1516113 -7.0393677 -7.0393677z" fill-rule="evenodd"/><path stroke="#999999" stroke-width="1.0" stroke-linejoin="round" stroke-linecap="butt" d="m115.276085 830.2202l0 0c0 -3.8877563 3.1516342 -7.0393677 7.0393677 -7.0393677l0 0c1.8669586 0 3.6574478 0.7416382 4.9775925 2.0617676c1.3201294 1.3201904 2.0617828 3.1106567 2.0617828 4.9776l0 0c0 3.8877563 -3.1516342 7.0393677 -7.0393753 7.0393677l0 0c-3.8877335 0 -7.0393677 -3.1516113 -7.0393677 -7.0393677z" fill-rule="evenodd"/><path fill="#999999" d="m227.84302 798.0391l0 0c0 -3.8877563 3.1516266 -7.0393677 7.0393677 -7.0393677l0 0c1.8669586 0 3.6574402 0.7416382 4.977585 2.0617676c1.3201447 1.3201294 2.0617828 3.1106567 2.0617828 4.9776l0 0c0 3.8877563 -3.1516266 7.0393677 -7.0393677 7.0393677l0 0c-3.887741 0 -7.0393677 -3.1516113 -7.0393677 -7.0393677z" fill-rule="evenodd"/><path stroke="#999999" stroke-width="1.0" stroke-linejoin="round" stroke-linecap="butt" d="m227.84302 798.0391l0 0c0 -3.8877563 3.1516266 -7.0393677 7.0393677 -7.0393677l0 0c1.8669586 0 3.6574402 0.7416382 4.977585 2.0617676c1.3201447 1.3201294 2.0617828 3.1106567 2.0617828 4.9776l0 0c0 3.8877563 -3.1516266 7.0393677 -7.0393677 7.0393677l0 0c-3.887741 0 -7.0393677 -3.1516113 -7.0393677 -7.0393677z" fill-rule="evenodd"/><path fill="#999999" d="m308.38895 877.6743l0 0c0 -3.8877563 3.1516418 -7.0393677 7.0393677 -7.0393677l0 0c1.8669739 0 3.6574402 0.7416382 4.9776 2.0617676c1.3201294 1.3201294 2.0617676 3.1105957 2.0617676 4.9776l0 0c0 3.8876953 -3.1516418 7.0393677 -7.0393677 7.0393677l0 0c-3.8877258 0 -7.0393677 -3.1516724 -7.0393677 -7.0393677z" fill-rule="evenodd"/><path stroke="#999999" stroke-width="1.0" stroke-linejoin="round" stroke-linecap="butt" d="m308.38895 877.6743l0 0c0 -3.8877563 3.1516418 -7.0393677 7.0393677 -7.0393677l0 0c1.8669739 0 3.6574402 0.7416382 4.9776 2.0617676c1.3201294 1.3201294 2.0617676 3.1105957 2.0617676 4.9776l0 0c0 3.8876953 -3.1516418 7.0393677 -7.0393677 7.0393677l0 0c-3.8877258 0 -7.0393677 -3.1516724 -7.0393677 -7.0393677z" fill-rule="evenodd"/><path fill="#999999" d="m406.20786 700.1415l0 0c0 -3.8877563 3.1516113 -7.0393677 7.0393677 -7.0393677l0 0c1.8669434 0 3.6574402 0.7416382 4.9775696 2.0617676c1.3201599 1.3201294 2.061798 3.1106567 2.061798 4.9776l0 0c0 3.8877563 -3.1516418 7.0393677 -7.0393677 7.0393677l0 0c-3.8877563 0 -7.0393677 -3.1516113 -7.0393677 -7.0393677z" fill-rule="evenodd"/><path stroke="#999999" stroke-width="1.0" stroke-linejoin="round" stroke-linecap="butt" d="m406.20786 700.1415l0 0c0 -3.8877563 3.1516113 -7.0393677 7.0393677 -7.0393677l0 0c1.8669434 0 3.6574402 0.7416382 4.9775696 2.0617676c1.3201599 1.3201294 2.061798 3.1106567 2.061798 4.9776l0 0c0 3.8877563 -3.1516418 7.0393677 -7.0393677 7.0393677l0 0c-3.8877563 0 -7.0393677 -3.1516113 -7.0393677 -7.0393677z" fill-rule="evenodd"/><path fill="#999999" d="m336.57004 650.6848l0 0c0 -3.8877563 3.1516418 -7.0393677 7.0393677 -7.0393677l0 0c1.8669739 0 3.6574707 0.7416382 4.9776 2.0617676c1.3201294 1.3201294 2.0617676 3.1105957 2.0617676 4.9776l0 0c0 3.8876953 -3.1516113 7.0393677 -7.0393677 7.0393677l0 0c-3.8877258 0 -7.0393677 -3.1516724 -7.0393677 -7.0393677z" fill-rule="evenodd"/><path stroke="#999999" stroke-width="1.0" stroke-linejoin="round" stroke-linecap="butt" d="m336.57004 650.6848l0 0c0 -3.8877563 3.1516418 -7.0393677 7.0393677 -7.0393677l0 0c1.8669739 0 3.6574707 0.7416382 4.9776 2.0617676c1.3201294 1.3201294 2.0617676 3.1105957 2.0617676 4.9776l0 0c0 3.8876953 -3.1516113 7.0393677 -7.0393677 7.0393677l0 0c-3.8877258 0 -7.0393677 -3.1516724 -7.0393677 -7.0393677z" fill-rule="evenodd"/><path fill="#999999" d="m379.84302 607.59296l0 0c0 -3.8877563 3.1516418 -7.0394287 7.0393677 -7.0394287l0 0c1.8669434 0 3.6574402 0.7416992 4.9776 2.0618286c1.3201294 1.3201294 2.0617676 3.1105957 2.0617676 4.9776l0 0c0 3.8876953 -3.1516418 7.0393677 -7.0393677 7.0393677l0 0c-3.8877258 0 -7.0393677 -3.1516724 -7.0393677 -7.0393677z" fill-rule="evenodd"/><path stroke="#999999" stroke-width="1.0" stroke-linejoin="round" stroke-linecap="butt" d="m379.84302 607.59296l0 0c0 -3.8877563 3.1516418 -7.0394287 7.0393677 -7.0394287l0 0c1.8669434 0 3.6574402 0.7416992 4.9776 2.0618286c1.3201294 1.3201294 2.0617676 3.1105957 2.0617676 4.9776l0 0c0 3.8876953 -3.1516418 7.0393677 -7.0393677 7.0393677l0 0c-3.8877258 0 -7.0393677 -3.1516724 -7.0393677 -7.0393677z" fill-rule="evenodd"/><path fill="#999999" d="m317.95062 597.2307l0 0c0 -3.8877563 3.1516418 -7.0393677 7.0393677 -7.0393677l0 0c1.8669739 0 3.6574402 0.7416382 4.9776 2.0617676c1.3201294 1.3201904 2.0617676 3.1106567 2.0617676 4.9776l0 0c0 3.8877563 -3.1516113 7.0393677 -7.0393677 7.0393677l0 0c-3.8877258 0 -7.0393677 -3.1516113 -7.0393677 -7.0393677z" fill-rule="evenodd"/><path stroke="#999999" stroke-width="1.0" stroke-linejoin="round" stroke-linecap="butt" d="m317.95062 597.2307l0 0c0 -3.8877563 3.1516418 -7.0393677 7.0393677 -7.0393677l0 0c1.8669739 0 3.6574402 0.7416382 4.9776 2.0617676c1.3201294 1.3201904 2.0617676 3.1106567 2.0617676 4.9776l0 0c0 3.8877563 -3.1516113 7.0393677 -7.0393677 7.0393677l0 0c-3.8877258 0 -7.0393677 -3.1516113 -7.0393677 -7.0393677z" fill-rule="evenodd"/><path fill="#000000" fill-opacity="0.0" d="m371.1337 634.1811l54.393677 0l0 51.716553l-54.393677 0z" fill-rule="evenodd"/><path fill="#000000" d="m392.19495 668.7811l0 -18.46875l3.6875 0l0 7.671875q0.65625 -0.859375 1.359375 -1.84375q0.71875 -1.0 1.359375 -2.046875q0.65625 -1.046875 1.1875 -2.015625q0.546875 -0.96875 0.890625 -1.765625l4.15625 0q-0.40625 0.796875 -1.0 1.828125q-0.578125 1.015625 -1.328125 2.15625q-0.734375 1.125 -1.59375 2.28125q-0.84375 1.140625 -1.78125 2.234375q0.9375 0.875 1.875 2.046875q0.953125 1.171875 1.796875 2.5q0.859375 1.3125 1.546875 2.703125q0.703125 1.390625 1.125 2.71875l-4.15625 0q-0.328125 -1.046875 -0.921875 -2.234375q-0.59375 -1.203125 -1.375 -2.375q-0.765625 -1.171875 -1.59375 -2.171875q-0.8125 -1.0 -1.546875 -1.671875l0 8.453125l-3.6875 0z" fill-rule="nonzero"/><path fill="#000000" fill-opacity="0.0" d="m147.86072 707.1811l54.393707 0l0 51.716553l-54.393707 0z" fill-rule="evenodd"/><path fill="#000000" d="m169.71886 741.7811l0 -18.46875l3.6875 0l0 15.4375l7.921875 0l0 3.03125l-11.609375 0z" fill-rule="nonzero"/><path fill="#999999" d="m336.57004 583.6021l0 0c0 -3.8877563 3.1516418 -7.0393677 7.0393677 -7.0393677l0 0c1.8669739 0 3.6574707 0.7416382 4.9776 2.0617676c1.3201294 1.3201294 2.0617676 3.1106567 2.0617676 4.9776l0 0c0 3.8877563 -3.1516113 7.0393677 -7.0393677 7.0393677l0 0c-3.8877258 0 -7.0393677 -3.1516113 -7.0393677 -7.0393677z" fill-rule="evenodd"/><path stroke="#999999" stroke-width="1.0" stroke-linejoin="round" stroke-linecap="butt" d="m336.57004 583.6021l0 0c0 -3.8877563 3.1516418 -7.0393677 7.0393677 -7.0393677l0 0c1.8669739 0 3.6574707 0.7416382 4.9776 2.0617676c1.3201294 1.3201294 2.0617676 3.1106567 2.0617676 4.9776l0 0c0 3.8877563 -3.1516113 7.0393677 -7.0393677 7.0393677l0 0c-3.8877258 0 -7.0393677 -3.1516113 -7.0393677 -7.0393677z" fill-rule="evenodd"/><path fill="#000000" fill-opacity="0.0" d="m129.35416 759.78217l54.393707 0l0 51.71649l-54.393707 0z" fill-rule="evenodd"/><path fill="#000000" d="m149.3529 794.38214q0.671875 -2.71875 1.328125 -5.1875q0.671875 -2.484375 1.328125 -4.765625q0.671875 -2.28125 1.3125 -4.390625q0.640625 -2.125 1.28125 -4.125l4.0 0q0.640625 2.0 1.296875 4.15625q0.671875 2.15625 1.3125 4.453125q0.640625 2.28125 1.28125 4.75q0.640625 2.46875 1.25 5.109375l-3.9375 0l-0.859375 -4.265625l-4.921875 0l-0.859375 4.265625l-3.8125 0zm5.359375 -7.296875l3.59375 0q-0.203125 -1.34375 -0.46875 -2.53125q-0.265625 -1.203125 -0.59375 -2.4375q-0.3125 -1.25 -0.71875 -2.640625q-0.40625 1.390625 -0.734375 2.640625q-0.3125 1.234375 -0.578125 2.4375q-0.265625 1.1875 -0.5 2.53125z" fill-rule="nonzero"/><path fill="#000000" fill-opacity="0.0" d="m243.49458 735.0866l54.393692 0l0 51.716553l-54.393692 0z" fill-rule="evenodd"/><path fill="#000000" d="m268.85272 769.6866l0 -15.4375l-4.875 0l0 -3.03125l13.4375 0l0 3.03125l-4.890625 0l0 15.4375l-3.671875 0z" fill-rule="nonzero"/><path fill="#000000" fill-opacity="0.0" d="m297.7938 653.7638l54.393707 0l0 51.71649l-54.393707 0z" fill-rule="evenodd"/><path fill="#000000" d="m324.27692 688.59814q-0.8125 0 -1.671875 -0.0625q-0.859375 -0.0625 -1.75 -0.1875q-0.875 -0.125 -1.734375 -0.28125l0 -17.9375q0.71875 -0.125 1.515625 -0.21875q0.8125 -0.09375 1.640625 -0.15625q0.84375 -0.078125 1.640625 -0.078125q2.09375 0 3.421875 0.4375q1.328125 0.421875 2.046875 1.125q0.71875 0.703125 1.0 1.5625q0.28125 0.84375 0.28125 1.734375q0 0.84375 -0.296875 1.609375q-0.28125 0.75 -0.828125 1.34375q-0.53125 0.578125 -1.25 0.984375q1.25 0.453125 1.953125 1.15625q0.71875 0.6875 1.0 1.5q0.28125 0.8125 0.28125 1.65625q0 2.21875 -0.984375 3.484375q-0.96875 1.265625 -2.609375 1.796875q-1.640625 0.53125 -3.65625 0.53125zm0.28125 -3.1875q0.828125 0 1.59375 -0.203125q0.78125 -0.203125 1.265625 -0.765625q0.5 -0.578125 0.5 -1.65625q0 -0.90625 -0.390625 -1.453125q-0.375 -0.546875 -1.09375 -0.8125q-0.703125 -0.265625 -1.65625 -0.265625l-1.96875 0l0 5.046875q0.375 0.03125 0.84375 0.078125q0.484375 0.03125 0.90625 0.03125zm-1.75 -8.1875l1.4375 0q0.9375 0 1.5625 -0.28125q0.625 -0.28125 0.9375 -0.78125q0.328125 -0.515625 0.328125 -1.234375q0 -0.875 -0.359375 -1.3125q-0.359375 -0.4375 -0.953125 -0.578125q-0.578125 -0.15625 -1.28125 -0.15625q-0.390625 0 -0.84375 0.03125q-0.453125 0.015625 -0.828125 0.078125l0 4.234375z" fill-rule="nonzero"/><path fill="#000000" fill-opacity="0.0" d="m232.67307 634.1811l54.393707 0l0 51.716553l-54.393707 0z" fill-rule="evenodd"/><path fill="#000000" d="m261.24994 669.1874q-2.578125 0 -4.375 -1.125q-1.796875 -1.140625 -2.734375 -3.296875q-0.9375 -2.171875 -0.9375 -5.234375q0 -3.0625 1.09375 -5.21875q1.09375 -2.171875 3.0 -3.296875q1.90625 -1.140625 4.3125 -1.140625q1.296875 0 2.265625 0.28125q0.984375 0.265625 1.609375 0.578125q0.625 0.296875 0.890625 0.484375l-0.953125 2.921875q-0.671875 -0.453125 -1.65625 -0.75q-0.984375 -0.3125 -2.21875 -0.3125q-1.109375 0 -2.1875 0.578125q-1.0625 0.578125 -1.75 1.96875q-0.671875 1.375 -0.671875 3.796875q0 2.078125 0.46875 3.546875q0.484375 1.46875 1.53125 2.25q1.046875 0.765625 2.671875 0.765625q1.40625 0 2.359375 -0.3125q0.96875 -0.328125 1.53125 -0.671875l0.90625 2.875q-0.75 0.484375 -2.09375 0.90625q-1.328125 0.40625 -3.0625 0.40625z" fill-rule="nonzero"/><path fill="#000000" fill-opacity="0.0" d="m292.74 754.97375l54.393707 0l0 51.716553l-54.393707 0z" fill-rule="evenodd"/><path fill="#000000" d="m314.06686 789.5737l0 -3.03125l4.0625 0l0 -12.40625l-4.0625 0l0 -3.03125l11.765625 0l0 3.03125l-4.0 0l0 12.40625l4.0 0l0 3.03125l-11.765625 0z" fill-rule="nonzero"/></g></svg>