<svg version="1.1" viewBox="0.0 0.0 1175.0 907.8582677165355" fill="none" stroke="none" stroke-linecap="square" stroke-miterlimit="10" xmlns:xlink="http://www.w3.org/1999/xlink" xmlns="http://www.w3.org/2000/svg"><clipPath id="p.0"><path d="m0 0l1175.0 0l0 907.8583l-1175.0 0l0 -907.8583z" clip-rule="nonzero"/></clipPath><g clip-path="url(#p.0)"><path fill="#000000" fill-opacity="0.0" d="m0 0l1175.0 0l0 907.8583l-1175.0 0z" fill-rule="evenodd"/><path fill="#ffd966" d="m5.511811E-6 735.96674l0 0c0 -92.08807 74.65211 -166.74017 166.74016 -166.74017l0 0c44.222244 0 86.633255 17.56726 117.90309 48.837097c31.269867 31.269836 48.837067 73.68085 48.837067 117.903076l0 0c0 92.08807 -74.6521 166.74017 -166.74016 166.74017l0 0c-92.08804 0 -166.74016 -74.6521 -166.74016 -166.74017z" fill-rule="evenodd"/><path stroke="#000000" stroke-width="2.0" stroke-linejoin="round" stroke-linecap="butt" d="m5.511811E-6 735.96674l0 0c0 -92.08807 74.65211 -166.74017 166.74016 -166.74017l0 0c44.222244 0 86.633255 17.56726 117.90309 48.837097c31.269867 31.269836 48.837067 73.68085 48.837067 117.903076l0 0c0 92.08807 -74.6521 166.74017 -166.74016 166.74017l0 0c-92.08804 0 -166.74016 -74.6521 -166.74016 -166.74017z" fill-rule="evenodd"/><path fill="#000000" d="m109.66523 750.72614q-1.203125 0 -2.515625 -0.109375q-1.296875 -0.09375 -2.609375 -0.265625q-1.3125 -0.1875 -2.59375 -0.421875l0 -26.921875q1.078125 -0.203125 2.265625 -0.34375q1.203125 -0.140625 2.46875 -0.234375q1.265625 -0.109375 2.453125 -0.109375q3.125 0 5.125 0.640625q2.0 0.640625 3.078125 1.703125q1.078125 1.0625 1.5 2.34375q0.421875 1.28125 0.421875 2.59375q0 1.28125 -0.4375 2.421875q-0.4375 1.140625 -1.25 2.03125q-0.796875 0.875 -1.875 1.46875q1.890625 0.6875 2.9375 1.734375q1.0625 1.03125 1.484375 2.25q0.421875 1.21875 0.421875 2.5q0 3.3125 -1.46875 5.21875q-1.453125 1.90625 -3.921875 2.703125q-2.453125 0.796875 -5.484375 0.796875zm0.4375 -4.796875q1.234375 0 2.390625 -0.296875q1.171875 -0.3125 1.90625 -1.171875q0.734375 -0.859375 0.734375 -2.453125q0 -1.359375 -0.578125 -2.171875q-0.578125 -0.828125 -1.640625 -1.21875q-1.0625 -0.40625 -2.5 -0.40625l-2.953125 0l0 7.5625q0.5625 0.03125 1.28125 0.09375q0.71875 0.0625 1.359375 0.0625zm-2.640625 -12.28125l2.15625 0q1.40625 0 2.34375 -0.421875q0.9375 -0.421875 1.40625 -1.171875q0.484375 -0.765625 0.484375 -1.84375q0 -1.328125 -0.546875 -1.984375q-0.53125 -0.65625 -1.40625 -0.875q-0.875 -0.21875 -1.921875 -0.21875q-0.59375 0 -1.28125 0.046875q-0.671875 0.03125 -1.234375 0.109375l0 6.359375zm25.712486 17.3125q-3.1875 0 -5.4531326 -1.640625q-2.265625 -1.640625 -3.421875 -4.875q-1.15625 -3.234375 -1.15625 -7.953125q0 -4.765625 1.1875 -7.984375q1.203125 -3.21875 3.4375 -4.859375q2.2500076 -1.640625 5.3750076 -1.640625q3.234375 0 5.46875 1.640625q2.25 1.640625 3.390625 4.859375q1.140625 3.21875 1.140625 7.984375q0 4.71875 -1.1875 7.953125q-1.171875 3.234375 -3.390625 4.875q-2.21875 1.640625 -5.390625 1.640625zm-0.03125 -4.796875q1.875 0 2.8125 -1.3125q0.9375 -1.328125 1.25 -3.515625q0.328125 -2.203125 0.328125 -4.84375q0 -2.71875 -0.296875 -4.890625q-0.296875 -2.1875 -1.234375 -3.484375q-0.9375 -1.3125 -2.859375 -1.3125q-1.890625 0 -2.828125 1.328125q-0.9375 1.3125 -1.265625 3.5q-0.3125 2.171875 -0.3125 4.859375q0 2.671875 0.296875 4.875q0.3125 2.203125 1.265625 3.5q0.953125 1.296875 2.84375 1.296875zm13.884354 4.203125q-0.453125 -4.15625 -0.796875 -8.859375q-0.328125 -4.703125 -0.53125 -9.53125q-0.203125 -4.84375 -0.3125 -9.328125l5.078125 0q-0.046875 3.515625 -0.109375 7.328125q-0.0625 3.796875 -0.125 7.4375q-0.046875 3.640625 -0.046875 6.75q0.4375 -1.4375 0.90625 -3.109375q0.484375 -1.6875 0.96875 -3.359375q0.484375 -1.6875 0.875 -3.0625q0.40625 -1.390625 0.640625 -2.1875l4.046875 0q0.40625 1.71875 1.3125 4.890625q0.921875 3.15625 1.921875 6.828125q0 -3.078125 -0.0625 -6.71875q-0.046875 -3.640625 -0.09375 -7.453125q-0.046875 -3.828125 -0.078125 -7.34375l5.078125 0q-0.15625 4.515625 -0.359375 9.359375q-0.203125 4.84375 -0.484375 9.53125q-0.28125 4.671875 -0.71875 8.828125l-4.5625 0q-1.0 -2.796875 -1.984375 -6.078125q-0.96875 -3.28125 -1.96875 -6.203125q-0.640625 1.84375 -1.34375 3.984375q-0.703125 2.140625 -1.390625 4.28125q-0.671875 2.140625 -1.3125 4.015625l-4.546875 0zm28.149979 0l0 -23.15625l-7.3125 0l0 -4.5625l20.15625 0l0 4.5625l-7.328125 0l0 23.15625l-5.515625 0zm16.368713 0l0 -4.5625l6.078125 0l0 -18.59375l-6.078125 0l0 -4.5625l17.640625 0l0 4.5625l-6.0 0l0 18.59375l6.0 0l0 4.5625l-17.640625 0zm22.837494 0l0 -27.71875l16.796875 0l0 4.5625l-11.328125 0l0 6.234375l9.84375 0l0 4.5625l-9.84375 0l0 7.796875l12.28125 0l0 4.5625l-17.75 0z" fill-rule="nonzero"/><path fill="#ffd966" d="m266.43283 270.84012l32.710815 2.1362305E-4l10.108002 -31.122849l10.108002 31.122849l32.710815 -2.1362305E-4l-26.463745 19.234772l10.108398 31.122711l-26.46347 -19.235107l-26.46347 19.235107l10.108398 -31.122711z" fill-rule="evenodd"/><path stroke="#000000" stroke-width="2.0" stroke-linejoin="round" stroke-linecap="butt" d="m266.43283 270.84012l32.710815 2.1362305E-4l10.108002 -31.122849l10.108002 31.122849l32.710815 -2.1362305E-4l-26.463745 19.234772l10.108398 31.122711l-26.46347 -19.235107l-26.46347 19.235107l10.108398 -31.122711z" fill-rule="evenodd"/><path fill="#ffd966" d="m813.4944 270.84012l32.710815 2.1362305E-4l10.107971 -31.122849l10.107971 31.122849l32.710815 -2.1362305E-4l-26.463745 19.234772l10.108459 31.122711l-26.463501 -19.235107l-26.463501 19.235107l10.108459 -31.122711z" fill-rule="evenodd"/><path stroke="#000000" stroke-width="2.0" stroke-linejoin="round" stroke-linecap="butt" d="m813.4944 270.84012l32.710815 2.1362305E-4l10.107971 -31.122849l10.107971 31.122849l32.710815 -2.1362305E-4l-26.463745 19.234772l10.108459 31.122711l-26.463501 -19.235107l-26.463501 19.235107l10.108459 -31.122711z" fill-rule="evenodd"/><path fill="#ffd966" d="m535.541 270.83823l32.710815 2.4414062E-4l10.108032 -31.122864l10.107971 31.122864l32.710815 -2.4414062E-4l-26.463745 19.234772l10.108398 31.122711l-26.46344 -19.235107l-26.463501 19.235107l10.108398 -31.122711z" fill-rule="evenodd"/><path stroke="#000000" stroke-width="2.0" stroke-linejoin="round" stroke-linecap="butt" d="m535.541 270.83823l32.710815 2.4414062E-4l10.108032 -31.122864l10.107971 31.122864l32.710815 -2.4414062E-4l-26.463745 19.234772l10.108398 31.122711l-26.46344 -19.235107l-26.463501 19.235107l10.108398 -31.122711z" fill-rule="evenodd"/><path fill="#ffd966" d="m418.55185 735.96674l0 0c0 -92.08807 74.6521 -166.74017 166.74014 -166.74017l0 0c44.22223 0 86.63324 17.56726 117.90314 48.837097c31.269836 31.269836 48.837036 73.68085 48.837036 117.903076l0 0c0 92.08807 -74.6521 166.74017 -166.74017 166.74017l0 0c-92.08804 0 -166.74014 -74.6521 -166.74014 -166.74017z" fill-rule="evenodd"/><path stroke="#000000" stroke-width="2.0" stroke-linejoin="round" stroke-linecap="butt" d="m418.55185 735.96674l0 0c0 -92.08807 74.6521 -166.74017 166.74014 -166.74017l0 0c44.22223 0 86.63324 17.56726 117.90314 48.837097c31.269836 31.269836 48.837036 73.68085 48.837036 117.903076l0 0c0 92.08807 -74.6521 166.74017 -166.74017 166.74017l0 0c-92.08804 0 -166.74014 -74.6521 -166.74014 -166.74017z" fill-rule="evenodd"/><path fill="#000000" d="m520.17334 702.9605q-3.875 0 -6.578125 -1.6875q-2.703125 -1.703125 -4.109375 -4.9375q-1.390625 -3.25 -1.390625 -7.84375q0 -4.609375 1.640625 -7.84375q1.640625 -3.234375 4.5 -4.9375q2.859375 -1.703125 6.453125 -1.703125q1.96875 0 3.421875 0.40625q1.46875 0.390625 2.40625 0.859375q0.9375 0.453125 1.328125 0.734375l-1.4375 4.40625q-1.0 -0.6875 -2.484375 -1.140625q-1.46875 -0.46875 -3.3125 -0.46875q-1.671875 0 -3.28125 0.859375q-1.59375 0.859375 -2.625 2.9375q-1.015625 2.078125 -1.015625 5.71875q0 3.125 0.71875 5.328125q0.71875 2.203125 2.28125 3.359375q1.5625 1.15625 4.0 1.15625q2.125 0 3.5625 -0.46875q1.4375 -0.484375 2.28125 -1.015625l1.359375 4.328125q-1.125 0.71875 -3.125 1.34375q-2.0 0.609375 -4.59375 0.609375zm9.524963 -0.59375q1.0 -4.078125 2.0 -7.796875q1.0 -3.71875 2.0 -7.140625q1.0 -3.421875 1.953125 -6.59375q0.953125 -3.1875 1.921875 -6.1875l6.0 0q0.953125 3.0 1.953125 6.25q1.0 3.234375 1.953125 6.671875q0.96875 3.4375 1.921875 7.140625q0.96875 3.703125 1.890625 7.65625l-5.921875 0l-1.28125 -6.40625l-7.390625 0l-1.28125 6.40625l-5.71875 0zm8.03125 -10.953125l5.40625 0q-0.328125 -2.0 -0.734375 -3.796875q-0.390625 -1.8125 -0.875 -3.671875q-0.46875 -1.859375 -1.078125 -3.9375q-0.59375 2.078125 -1.078125 3.9375q-0.484375 1.859375 -0.890625 3.671875q-0.390625 1.796875 -0.75 3.796875zm16.368713 10.953125l0 -27.359375q1.109375 -0.28125 2.484375 -0.421875q1.390625 -0.140625 2.75 -0.203125q1.359375 -0.0625 2.40625 -0.0625q3.546875 0 6.03125 0.953125q2.484375 0.9375 3.78125 2.984375q1.296875 2.03125 1.296875 5.34375q0 4.96875 -2.9375 7.1875q-2.9375 2.21875 -8.296875 2.21875l-2.0 0l0 9.359375l-5.515625 0zm5.515625 -14.15625l2.234375 0q1.765625 0 2.953125 -0.453125q1.203125 -0.46875 1.796875 -1.484375q0.609375 -1.03125 0.609375 -2.703125q0 -2.4375 -1.34375 -3.4375q-1.328125 -1.0 -3.484375 -1.0q-0.53125 0 -1.40625 0.015625q-0.875 0.015625 -1.359375 0.09375l0 8.96875zm16.8844 14.15625l0 -4.5625l6.078125 0l0 -18.59375l-6.078125 0l0 -4.5625l17.640625 0l0 4.5625l-6.0 0l0 18.59375l6.0 0l0 4.5625l-17.640625 0zm28.431213 0l0 -23.15625l-7.3125 0l0 -4.5625l20.15625 0l0 4.5625l-7.328125 0l0 23.15625l-5.515625 0zm25.196838 0.59375q-3.1875 0 -5.453125 -1.640625q-2.265625 -1.640625 -3.421875 -4.875q-1.15625 -3.234375 -1.15625 -7.953125q0 -4.765625 1.1875 -7.984375q1.203125 -3.21875 3.4375 -4.859375q2.25 -1.640625 5.375 -1.640625q3.234375 0 5.46875 1.640625q2.25 1.640625 3.390625 4.859375q1.140625 3.21875 1.140625 7.984375q0 4.71875 -1.1875 7.953125q-1.171875 3.234375 -3.390625 4.875q-2.21875 1.640625 -5.390625 1.640625zm-0.03125 -4.796875q1.875 0 2.8125 -1.3125q0.9375 -1.328125 1.25 -3.515625q0.328125 -2.203125 0.328125 -4.84375q0 -2.71875 -0.296875 -4.890625q-0.296875 -2.1875 -1.234375 -3.484375q-0.9375 -1.3125 -2.859375 -1.3125q-1.890625 0 -2.828125 1.328125q-0.9375 1.3125 -1.265625 3.5q-0.3125 2.171875 -0.3125 4.859375q0 2.671875 0.296875 4.875q0.3125 2.203125 1.265625 3.5q0.953125 1.296875 2.84375 1.296875zm14.399963 4.203125l0 -27.71875l5.515625 0l0 23.15625l11.875 0l0 4.5625l-17.390625 0z" fill-rule="nonzero"/><path fill="#000000" d="m509.29834 750.3667l0 -27.3125q1.078125 -0.28125 2.40625 -0.4375q1.34375 -0.171875 2.625 -0.234375q1.28125 -0.0625 2.15625 -0.0625q4.765625 0 7.625 2.234375q2.859375 2.21875 2.859375 6.859375q0 2.4375 -0.984375 4.40625q-0.96875 1.953125 -3.296875 2.984375q1.046875 1.515625 2.1875 3.5q1.140625 1.984375 2.171875 4.09375q1.046875 2.09375 1.765625 3.96875l-5.796875 0q-0.640625 -1.765625 -1.5 -3.453125q-0.859375 -1.703125 -1.828125 -3.375q-0.953125 -1.6875 -2.0 -3.375q-0.15625 0 -0.296875 0q-0.140625 0 -0.296875 0l-2.28125 0l0 10.203125l-5.515625 0zm5.515625 -14.796875l1.203125 0q1.921875 0 3.09375 -0.5q1.1875 -0.5 1.71875 -1.4375q0.546875 -0.953125 0.546875 -2.265625q0 -1.484375 -0.625 -2.390625q-0.625 -0.921875 -1.71875 -1.375q-1.09375 -0.46875 -2.546875 -0.46875q-0.28125 0 -0.765625 0.015625q-0.46875 0.015625 -0.90625 0.09375l0 8.328125zm17.321838 14.796875l0 -27.71875l16.796875 0l0 4.5625l-11.328125 0l0 6.234375l9.84375 0l0 4.5625l-9.84375 0l0 7.796875l12.28125 0l0 4.5625l-17.75 0zm32.837463 0.59375q-3.875 0 -6.578125 -1.6875q-2.703125 -1.703125 -4.109375 -4.9375q-1.390625 -3.25 -1.390625 -7.84375q0 -4.609375 1.640625 -7.84375q1.640625 -3.234375 4.5 -4.9375q2.859375 -1.703125 6.453125 -1.703125q1.96875 0 3.421875 0.40625q1.46875 0.390625 2.40625 0.859375q0.9375 0.453125 1.328125 0.734375l-1.4375 4.40625q-1.0 -0.6875 -2.484375 -1.140625q-1.46875 -0.46875 -3.3125 -0.46875q-1.671875 0 -3.28125 0.859375q-1.59375 0.859375 -2.625 2.9375q-1.015625 2.078125 -1.015625 5.71875q0 3.125 0.71875 5.328125q0.71875 2.203125 2.28125 3.359375q1.5625 1.15625 4.0 1.15625q2.125 0 3.5625 -0.46875q1.4375 -0.484375 2.28125 -1.015625l1.359375 4.328125q-1.125 0.71875 -3.125 1.34375q-2.0 0.609375 -4.59375 0.609375zm20.35315 0q-3.1875 0 -5.453125 -1.640625q-2.265625 -1.640625 -3.421875 -4.875q-1.15625 -3.234375 -1.15625 -7.953125q0 -4.765625 1.1875 -7.984375q1.203125 -3.21875 3.4375 -4.859375q2.25 -1.640625 5.375 -1.640625q3.234375 0 5.46875 1.640625q2.25 1.640625 3.390625 4.859375q1.140625 3.21875 1.140625 7.984375q0 4.71875 -1.1875 7.953125q-1.171875 3.234375 -3.390625 4.875q-2.21875 1.640625 -5.390625 1.640625zm-0.03125 -4.796875q1.875 0 2.8125 -1.3125q0.9375 -1.328125 1.25 -3.515625q0.328125 -2.203125 0.328125 -4.84375q0 -2.71875 -0.296875 -4.890625q-0.296875 -2.1875 -1.234375 -3.484375q-0.9375 -1.3125 -2.859375 -1.3125q-1.890625 0 -2.828125 1.328125q-0.9375 1.3125 -1.265625 3.5q-0.3125 2.171875 -0.3125 4.859375q0 2.671875 0.296875 4.875q0.3125 2.203125 1.265625 3.5q0.953125 1.296875 2.84375 1.296875zm13.603088 4.203125l0 -27.3125q1.078125 -0.28125 2.40625 -0.4375q1.34375 -0.171875 2.625 -0.234375q1.28125 -0.0625 2.15625 -0.0625q4.765625 0 7.625 2.234375q2.859375 2.21875 2.859375 6.859375q0 2.4375 -0.984375 4.40625q-0.96875 1.953125 -3.296875 2.984375q1.046875 1.515625 2.1875 3.5q1.140625 1.984375 2.171875 4.09375q1.046875 2.09375 1.765625 3.96875l-5.796875 0q-0.640625 -1.765625 -1.5 -3.453125q-0.859375 -1.703125 -1.828125 -3.375q-0.953125 -1.6875 -2.0 -3.375q-0.15625 0 -0.296875 0q-0.140625 0 -0.296875 0l-2.28125 0l0 10.203125l-5.515625 0zm5.515625 -14.796875l1.203125 0q1.921875 0 3.09375 -0.5q1.1875 -0.5 1.71875 -1.4375q0.546875 -0.953125 0.546875 -2.265625q0 -1.484375 -0.625 -2.390625q-0.625 -0.921875 -1.71875 -1.375q-1.09375 -0.46875 -2.546875 -0.46875q-0.28125 0 -0.765625 0.015625q-0.46875 0.015625 -0.90625 0.09375l0 8.328125zm22.790588 15.15625q-1.46875 0 -2.875 -0.15625q-1.390625 -0.15625 -3.03125 -0.515625l0 -27.046875q1.875 -0.4375 3.53125 -0.5625q1.65625 -0.125 3.109375 -0.125q3.671875 0 6.40625 1.46875q2.75 1.453125 4.25 4.578125q1.5 3.125 1.5 8.125q0 5.15625 -1.671875 8.28125q-1.65625 3.109375 -4.5625 4.53125q-2.890625 1.421875 -6.65625 1.421875zm0.609375 -4.796875q2.515625 0 3.96875 -1.21875q1.46875 -1.21875 2.078125 -3.359375q0.625 -2.140625 0.625 -4.859375q0 -2.4375 -0.5 -4.5625q-0.5 -2.125 -1.796875 -3.453125q-1.296875 -1.34375 -3.734375 -1.34375q-0.40625 0 -0.828125 0.015625q-0.421875 0.015625 -0.8125 0.09375l0 18.640625q0.203125 0.046875 0.484375 0.046875q0.28125 0 0.515625 0zm23.884338 5.03125q-2.328125 0 -3.984375 -0.359375q-1.65625 -0.359375 -2.78125 -0.859375q-1.125 -0.5 -1.84375 -0.890625l1.609375 -4.484375q1.1875 0.6875 2.890625 1.328125q1.703125 0.625 4.109375 0.625q1.875 0 2.875 -0.5q1.0 -0.5 1.390625 -1.3125q0.40625 -0.828125 0.40625 -1.734375q0 -1.203125 -0.828125 -2.0q-0.8125 -0.8125 -2.03125 -1.390625q-1.21875 -0.578125 -2.453125 -1.0625q-1.25 -0.46875 -2.578125 -1.046875q-1.3125 -0.59375 -2.453125 -1.46875q-1.140625 -0.875 -1.84375 -2.21875q-0.6875 -1.34375 -0.6875 -3.296875q0 -3.875 2.546875 -6.078125q2.5625 -2.203125 6.9375 -2.203125q2.515625 0 4.453125 0.609375q1.9375 0.59375 3.21875 1.265625l-1.59375 4.25q-1.125 -0.640625 -2.515625 -1.078125q-1.375 -0.453125 -3.171875 -0.453125q-1.484375 0 -2.4375 0.359375q-0.953125 0.359375 -1.4375 1.09375q-0.484375 0.71875 -0.484375 1.75q0 1.046875 0.734375 1.78125q0.75 0.734375 1.890625 1.265625q1.140625 0.515625 2.25 0.953125q1.328125 0.484375 2.71875 1.109375q1.40625 0.609375 2.609375 1.578125q1.203125 0.953125 1.9375 2.5q0.734375 1.53125 0.734375 3.8125q0 3.875 -2.546875 6.015625q-2.53125 2.140625 -7.640625 2.140625z" fill-rule="nonzero"/><path fill="#000000" d="m543.6952 798.3667l0 -27.71875l5.515625 0l0 23.15625l11.875 0l0 4.5625l-17.390625 0zm30.431213 0.59375q-3.1875 0 -5.453125 -1.640625q-2.265625 -1.640625 -3.421875 -4.875q-1.15625 -3.234375 -1.15625 -7.953125q0 -4.765625 1.1875 -7.984375q1.203125 -3.21875 3.4375 -4.859375q2.25 -1.640625 5.375 -1.640625q3.234375 0 5.46875 1.640625q2.25 1.640625 3.390625 4.859375q1.140625 3.21875 1.140625 7.984375q0 4.71875 -1.1875 7.953125q-1.171875 3.234375 -3.390625 4.875q-2.21875 1.640625 -5.390625 1.640625zm-0.03125 -4.796875q1.875 0 2.8125 -1.3125q0.9375 -1.328125 1.25 -3.515625q0.328125 -2.203125 0.328125 -4.84375q0 -2.71875 -0.296875 -4.890625q-0.296875 -2.1875 -1.234375 -3.484375q-0.9375 -1.3125 -2.859375 -1.3125q-1.890625 0 -2.828125 1.328125q-0.9375 1.3125 -1.265625 3.5q-0.3125 2.171875 -0.3125 4.859375q0 2.671875 0.296875 4.875q0.3125 2.203125 1.265625 3.5q0.953125 1.296875 2.84375 1.296875zm23.759338 4.796875q-3.484375 0 -6.03125 -1.609375q-2.53125 -1.625 -3.9375 -4.84375q-1.390625 -3.21875 -1.390625 -8.015625q0 -4.765625 1.609375 -7.984375q1.625 -3.21875 4.34375 -4.859375q2.71875 -1.640625 6.046875 -1.640625q2.203125 0 3.71875 0.40625q1.515625 0.390625 2.46875 0.859375q0.96875 0.453125 1.40625 0.734375l-1.4375 4.40625q-1.0 -0.640625 -2.4375 -1.125q-1.4375 -0.484375 -2.96875 -0.484375q-2.546875 0 -4.140625 1.21875q-1.578125 1.21875 -2.296875 3.40625q-0.71875 2.171875 -0.71875 5.0625q0 3.28125 0.703125 5.421875q0.703125 2.140625 2.09375 3.203125q1.40625 1.046875 3.40625 1.046875q0.4375 0 1.03125 -0.078125q0.609375 -0.078125 1.125 -0.125l0 -10.109375l5.484375 0l0 13.828125q-0.953125 0.40625 -3.0625 0.84375q-2.09375 0.4375 -5.015625 0.4375zm21.071838 0q-3.1875 0 -5.453125 -1.640625q-2.265625 -1.640625 -3.421875 -4.875q-1.15625 -3.234375 -1.15625 -7.953125q0 -4.765625 1.1875 -7.984375q1.203125 -3.21875 3.4375 -4.859375q2.25 -1.640625 5.375 -1.640625q3.234375 0 5.46875 1.640625q2.25 1.640625 3.390625 4.859375q1.140625 3.21875 1.140625 7.984375q0 4.71875 -1.1875 7.953125q-1.171875 3.234375 -3.390625 4.875q-2.21875 1.640625 -5.390625 1.640625zm-0.03125 -4.796875q1.875 0 2.8125 -1.3125q0.9375 -1.328125 1.25 -3.515625q0.328125 -2.203125 0.328125 -4.84375q0 -2.71875 -0.296875 -4.890625q-0.296875 -2.1875 -1.234375 -3.484375q-0.9375 -1.3125 -2.859375 -1.3125q-1.890625 0 -2.828125 1.328125q-0.9375 1.3125 -1.265625 3.5q-0.3125 2.171875 -0.3125 4.859375q0 2.671875 0.296875 4.875q0.3125 2.203125 1.265625 3.5q0.953125 1.296875 2.84375 1.296875z" fill-rule="nonzero"/><path fill="#ffd966" d="m837.1037 735.96674l0 0c0 -92.08807 74.6521 -166.74017 166.74017 -166.74017l0 0c44.222168 0 86.63318 17.56726 117.903076 48.837097c31.269897 31.269836 48.837036 73.68085 48.837036 117.903076l0 0c0 92.08807 -74.6521 166.74017 -166.74011 166.74017l0 0c-92.08807 0 -166.74017 -74.6521 -166.74017 -166.74017z" fill-rule="evenodd"/><path stroke="#000000" stroke-width="2.0" stroke-linejoin="round" stroke-linecap="butt" d="m837.1037 735.96674l0 0c0 -92.08807 74.6521 -166.74017 166.74017 -166.74017l0 0c44.222168 0 86.63318 17.56726 117.903076 48.837097c31.269897 31.269836 48.837036 73.68085 48.837036 117.903076l0 0c0 92.08807 -74.6521 166.74017 -166.74011 166.74017l0 0c-92.08807 0 -166.74017 -74.6521 -166.74017 -166.74017z" fill-rule="evenodd"/><path fill="#000000" d="m916.6502 750.36676l0 -27.359375q1.109375 -0.28125 2.484375 -0.421875q1.390625 -0.140625 2.75 -0.203125q1.359375 -0.0625 2.40625 -0.0625q3.546875 0 6.03125 0.953125q2.484375 0.9375 3.78125 2.984375q1.296875 2.03125 1.296875 5.34375q0 4.96875 -2.9375 7.1875q-2.9375 2.21875 -8.296875 2.21875l-2.0 0l0 9.359375l-5.515625 0zm5.515625 -14.15625l2.234375 0q1.765625 0 2.953125 -0.453125q1.203125 -0.46875 1.796875 -1.484375q0.609375 -1.03125 0.609375 -2.703125q0 -2.4375 -1.34375 -3.4375q-1.328125 -1.0 -3.484375 -1.0q-0.53125 0 -1.40625 0.015625q-0.875 0.015625 -1.359375 0.09375l0 8.96875zm17.681213 14.15625l0 -27.71875l5.515625 0l0 23.15625l11.875 0l0 4.5625l-17.390625 0zm22.040588 0l0 -27.71875l16.796875 0l0 4.5625l-11.328125 0l0 6.234375l9.84375 0l0 4.5625l-9.84375 0l0 7.796875l12.28125 0l0 4.5625l-17.75 0zm21.962463 0l0 -4.5625l6.078125 0l0 -18.59375l-6.078125 0l0 -4.5625l17.640625 0l0 4.5625l-6.0 0l0 18.59375l6.0 0l0 4.5625l-17.640625 0zm20.400024 0q1.0 -4.078125 2.0 -7.796875q1.0 -3.71875 2.0 -7.140625q1.0 -3.421875 1.953125 -6.59375q0.953125 -3.1875 1.921875 -6.1875l6.0 0q0.953125 3.0 1.953125 6.25q1.0 3.234375 1.953125 6.671875q0.96875 3.4375 1.921875 7.140625q0.96875 3.703125 1.890625 7.65625l-5.921875 0l-1.28125 -6.40625l-7.390625 0l-1.28125 6.40625l-5.71875 0zm8.03125 -10.953125l5.40625 0q-0.328125 -2.0 -0.734375 -3.796875q-0.390625 -1.8125 -0.875 -3.671875q-0.46875 -1.859375 -1.078125 -3.9375q-0.59375 2.078125 -1.078125 3.9375q-0.484375 1.859375 -0.890625 3.671875q-0.390625 1.796875 -0.75 3.796875zm22.274902 11.3125q-1.46875 0 -2.875 -0.15625q-1.390625 -0.15625 -3.03125 -0.515625l0 -27.046875q1.875 -0.4375 3.53125 -0.5625q1.65625 -0.125 3.109375 -0.125q3.671875 0 6.40625 1.46875q2.75 1.453125 4.25 4.578125q1.5 3.125 1.5 8.125q0 5.15625 -1.671875 8.28125q-1.65625 3.109375 -4.5625 4.53125q-2.890625 1.421875 -6.65625 1.421875zm0.609375 -4.796875q2.515625 0 3.96875 -1.21875q1.46875 -1.21875 2.078125 -3.359375q0.625 -2.140625 0.625 -4.859375q0 -2.4375 -0.5 -4.5625q-0.5 -2.125 -1.796875 -3.453125q-1.296875 -1.34375 -3.734375 -1.34375q-0.40625 0 -0.828125 0.015625q-0.421875 0.015625 -0.8125 0.09375l0 18.640625q0.203125 0.046875 0.484375 0.046875q0.28125 0 0.515625 0zm16.3219 4.4375l0 -27.71875l16.796875 0l0 4.5625l-11.328125 0l0 6.234375l9.84375 0l0 4.5625l-9.84375 0l0 7.796875l12.28125 0l0 4.5625l-17.75 0zm29.962524 0.59375q-2.328125 0 -3.984375 -0.359375q-1.65625 -0.359375 -2.78125 -0.859375q-1.125 -0.5 -1.84375 -0.890625l1.609375 -4.484375q1.1875 0.6875 2.890625 1.328125q1.703125 0.625 4.109375 0.625q1.875 0 2.875 -0.5q1.0 -0.5 1.390625 -1.3125q0.40625 -0.828125 0.40625 -1.734375q0 -1.203125 -0.828125 -2.0q-0.8125 -0.8125 -2.03125 -1.390625q-1.21875 -0.578125 -2.453125 -1.0625q-1.25 -0.46875 -2.578125 -1.046875q-1.3125 -0.59375 -2.453125 -1.46875q-1.140625 -0.875 -1.84375 -2.21875q-0.6875 -1.34375 -0.6875 -3.296875q0 -3.875 2.546875 -6.078125q2.5625 -2.203125 6.9375 -2.203125q2.515625 0 4.453125 0.609375q1.9375 0.59375 3.21875 1.265625l-1.59375 4.25q-1.125 -0.640625 -2.515625 -1.078125q-1.375 -0.453125 -3.171875 -0.453125q-1.484375 0 -2.4375 0.359375q-0.953125 0.359375 -1.4375 1.09375q-0.484375 0.71875 -0.484375 1.75q0 1.046875 0.734375 1.78125q0.75 0.734375 1.890625 1.265625q1.140625 0.515625 2.25 0.953125q1.328125 0.484375 2.71875 1.109375q1.40625 0.609375 2.609375 1.578125q1.203125 0.953125 1.9375 2.5q0.734375 1.53125 0.734375 3.8125q0 3.875 -2.546875 6.015625q-2.53125 2.140625 -7.640625 2.140625z" fill-rule="nonzero"/><path fill="#000000" fill-opacity="0.0" d="m561.17267 17.212692l-215.68503 215.68504" fill-rule="evenodd"/><path stroke="#000000" stroke-width="3.0" stroke-linejoin="round" stroke-linecap="butt" d="m561.17267 17.212692l-202.95712 202.95714" fill-rule="evenodd"/><path fill="#000000" stroke="#000000" stroke-width="3.0" stroke-linecap="butt" d="m354.71167 216.66597l-6.1228943 13.1306l13.130615 -6.1228943z" fill-rule="evenodd"/><path fill="#000000" fill-opacity="0.0" d="m595.56635 17.212692l220.0 220.0315" fill-rule="evenodd"/><path stroke="#000000" stroke-width="3.0" stroke-linejoin="round" stroke-linecap="butt" d="m595.56635 17.212692l207.27295 207.30267" fill-rule="evenodd"/><path fill="#000000" stroke="#000000" stroke-width="3.0" stroke-linecap="butt" d="m799.33527 228.01897l13.130127 6.1238403l-6.1219482 -13.1310425z" fill-rule="evenodd"/><path fill="#000000" fill-opacity="0.0" d="m416.95215 509.85278l-97.13388 -168.28345" fill-rule="evenodd"/><path stroke="#000000" stroke-width="3.0" stroke-linejoin="round" stroke-linecap="butt" d="m416.95215 509.85278l-88.13556 -152.694" fill-rule="evenodd"/><path fill="#000000" stroke="#000000" stroke-width="3.0" stroke-linecap="butt" d="m333.10815 354.68164l-11.097443 -9.313934l2.5142517 14.268188z" fill-rule="evenodd"/><path fill="#000000" fill-opacity="0.0" d="m451.34583 509.85278l98.48822 -170.64566" fill-rule="evenodd"/><path stroke="#000000" stroke-width="3.0" stroke-linejoin="round" stroke-linecap="butt" d="m451.34586 509.85278l89.49051 -155.05588" fill-rule="evenodd"/><path fill="#000000" stroke="#000000" stroke-width="3.0" stroke-linecap="butt" d="m545.12805 357.2739l2.5136719 -14.268311l-11.097046 9.314392z" fill-rule="evenodd"/><path fill="#000000" fill-opacity="0.0" d="m699.14734 509.85278l-97.13385 -168.28345" fill-rule="evenodd"/><path stroke="#000000" stroke-width="3.0" stroke-linejoin="round" stroke-linecap="butt" d="m699.14734 509.85278l-88.13556 -152.694" fill-rule="evenodd"/><path fill="#000000" stroke="#000000" stroke-width="3.0" stroke-linecap="butt" d="m615.3034 354.68164l-11.097473 -9.313934l2.5142212 14.268188z" fill-rule="evenodd"/><path fill="#000000" fill-opacity="0.0" d="m733.541 509.85278l98.48822 -170.64566" fill-rule="evenodd"/><path stroke="#000000" stroke-width="3.0" stroke-linejoin="round" stroke-linecap="butt" d="m733.541 509.85278l89.49054 -155.05588" fill-rule="evenodd"/><path fill="#000000" stroke="#000000" stroke-width="3.0" stroke-linecap="butt" d="m827.32324 357.2739l2.5136719 -14.268311l-11.097046 9.314392z" fill-rule="evenodd"/><path fill="#ffd966" d="m561.17267 17.212692l0 0c0 -9.506256 7.69928 -17.212599 17.196838 -17.212599l0 0c4.560913 0 8.934998 1.813465 12.160034 5.041453c3.2250366 3.2279882 5.036804 7.60608 5.036804 12.171145l0 0c0 9.506256 -7.69928 17.212597 -17.196838 17.212597l0 0c-9.497559 0 -17.196838 -7.706341 -17.196838 -17.212597z" fill-rule="evenodd"/><path stroke="#000000" stroke-width="2.0" stroke-linejoin="round" stroke-linecap="butt" d="m561.17267 17.212692l0 0c0 -9.506256 7.69928 -17.212599 17.196838 -17.212599l0 0c4.560913 0 8.934998 1.813465 12.160034 5.041453c3.2250366 3.2279882 5.036804 7.60608 5.036804 12.171145l0 0c0 9.506256 -7.69928 17.212597 -17.196838 17.212597l0 0c-9.497559 0 -17.196838 -7.706341 -17.196838 -17.212597z" fill-rule="evenodd"/><path fill="#ffd966" d="m416.95215 509.85278l0 0c0 -9.506256 7.69928 -17.212585 17.196838 -17.212585l0 0c4.5608826 0 8.934967 1.813446 12.160004 5.041443c3.2250366 3.2279968 5.0368347 7.606079 5.0368347 12.171143l0 0c0 9.506287 -7.69928 17.212585 -17.196838 17.212585l0 0c-9.497559 0 -17.196838 -7.706299 -17.196838 -17.212585z" fill-rule="evenodd"/><path stroke="#000000" stroke-width="2.0" stroke-linejoin="round" stroke-linecap="butt" d="m416.95215 509.85278l0 0c0 -9.506256 7.69928 -17.212585 17.196838 -17.212585l0 0c4.5608826 0 8.934967 1.813446 12.160004 5.041443c3.2250366 3.2279968 5.0368347 7.606079 5.0368347 12.171143l0 0c0 9.506287 -7.69928 17.212585 -17.196838 17.212585l0 0c-9.497559 0 -17.196838 -7.706299 -17.196838 -17.212585z" fill-rule="evenodd"/><path fill="#ffd966" d="m699.14734 509.85278l0 0c0 -9.506256 7.69928 -17.212585 17.196838 -17.212585l0 0c4.560913 0 8.934998 1.813446 12.160034 5.041443c3.2250366 3.2279968 5.036804 7.606079 5.036804 12.171143l0 0c0 9.506287 -7.69928 17.212585 -17.196838 17.212585l0 0c-9.497559 0 -17.196838 -7.706299 -17.196838 -17.212585z" fill-rule="evenodd"/><path stroke="#000000" stroke-width="2.0" stroke-linejoin="round" stroke-linecap="butt" d="m699.14734 509.85278l0 0c0 -9.506256 7.69928 -17.212585 17.196838 -17.212585l0 0c4.560913 0 8.934998 1.813446 12.160034 5.041443c3.2250366 3.2279968 5.036804 7.606079 5.036804 12.171143l0 0c0 9.506287 -7.69928 17.212585 -17.196838 17.212585l0 0c-9.497559 0 -17.196838 -7.706299 -17.196838 -17.212585z" fill-rule="evenodd"/></g></svg>