<svg version="1.1" viewBox="0.0 0.0 347.2729658792651 539.0918635170603" fill="none" stroke="none" stroke-linecap="square" stroke-miterlimit="10" xmlns:xlink="http://www.w3.org/1999/xlink" xmlns="http://www.w3.org/2000/svg"><clipPath id="p.0"><path d="m0 0l347.27298 0l0 539.09186l-347.27298 0l0 -539.09186z" clip-rule="nonzero"/></clipPath><g clip-path="url(#p.0)"><path fill="#000000" fill-opacity="0.0" d="m0 0l347.27298 0l0 539.09186l-347.27298 0z" fill-rule="evenodd"/><path fill="#ea9999" d="m4.135239 243.8913l45.700787 0l0 45.700806l-45.700787 0z" fill-rule="evenodd"/><path fill="#ea9999" d="m4.2981067 405.04965l39.622047 -22.834656l22.866138 39.590546l-39.622044 22.834656z" fill-rule="evenodd"/><path fill="#ea9999" d="m195.45453 486.60846l39.590546 -22.834656l22.834656 39.590546l-39.59056 22.834686z" fill-rule="evenodd"/><path fill="#ea9999" d="m301.6046 332.54l39.590546 22.897644l-22.834656 39.590546l-39.590546 -22.897644z" fill-rule="evenodd"/><path fill="#ea9999" d="m277.678 131.82137l39.590546 22.866135l-22.834656 39.59056l-39.590546 -22.86615z" fill-rule="evenodd"/><path fill="#ea9999" d="m125.86822 75.72294l45.700783 0l0 45.700783l-45.700783 0z" fill-rule="evenodd"/><path fill="#000000" fill-opacity="0.0" d="m115.01575 156.3381l0 0c0 -19.247345 15.603058 -34.850395 34.850388 -34.850395l0 0c9.242905 0 18.107239 3.67173 24.64296 10.207451c6.535721 6.5357056 10.207443 15.40004 10.207443 24.642944l0 0c0 19.247345 -15.603058 34.850403 -34.850403 34.850403l0 0c-19.24733 0 -34.850388 -15.603058 -34.850388 -34.850403z" fill-rule="evenodd"/><path stroke="#000000" stroke-width="24.0" stroke-linejoin="round" stroke-linecap="butt" d="m115.01575 156.3381l0 0c0 -19.247345 15.603058 -34.850395 34.850388 -34.850395l0 0c9.242905 0 18.107239 3.67173 24.64296 10.207451c6.535721 6.5357056 10.207443 15.40004 10.207443 24.642944l0 0c0 19.247345 -15.603058 34.850403 -34.850403 34.850403l0 0c-19.24733 0 -34.850388 -15.603058 -34.850388 -34.850403z" fill-rule="evenodd"/><path fill="#000000" d="m136.9029 86.65569l24.283463 0l0 46.803154l-24.283463 0z" fill-rule="evenodd"/><path stroke="#000000" stroke-width="1.0" stroke-linejoin="round" stroke-linecap="butt" d="m136.9029 86.65569l24.283463 0l0 46.803154l-24.283463 0z" fill-rule="evenodd"/><path fill="#000000" d="m134.9029 180.66356l29.92125 0l0 46.80316l-29.92125 0z" fill-rule="evenodd"/><path stroke="#000000" stroke-width="1.0" stroke-linejoin="round" stroke-linecap="butt" d="m134.9029 180.66356l29.92125 0l0 46.80316l-29.92125 0z" fill-rule="evenodd"/><path fill="#000000" d="m78.8398 128.10002l14.173225 -24.53543l40.53544 23.401573l-14.173233 24.535439z" fill-rule="evenodd"/><path stroke="#000000" stroke-width="1.0" stroke-linejoin="round" stroke-linecap="butt" d="m78.8398 128.10002l14.173225 -24.53543l40.53544 23.401573l-14.173233 24.535439z" fill-rule="evenodd"/><path fill="#000000" d="m164.46413 182.29048l15.212601 -26.330719l40.53543 23.40158l-15.212585 26.330704z" fill-rule="evenodd"/><path stroke="#000000" stroke-width="1.0" stroke-linejoin="round" stroke-linecap="butt" d="m164.46413 182.29048l15.212601 -26.330719l40.53543 23.40158l-15.212585 26.330704z" fill-rule="evenodd"/><path fill="#000000" d="m164.81834 127.49486l40.535446 -23.401573l14.488174 25.102364l-40.53543 23.40158z" fill-rule="evenodd"/><path stroke="#000000" stroke-width="1.0" stroke-linejoin="round" stroke-linecap="butt" d="m164.81834 127.49486l40.535446 -23.401573l14.488174 25.102364l-40.53543 23.40158z" fill-rule="evenodd"/><path fill="#000000" d="m119.28047 156.6695l14.362198 24.913391l-40.53543 23.401566l-14.3622055 -24.913376z" fill-rule="evenodd"/><path stroke="#000000" stroke-width="1.0" stroke-linejoin="round" stroke-linecap="butt" d="m119.28047 156.6695l14.362198 24.913391l-40.53543 23.401566l-14.3622055 -24.913376z" fill-rule="evenodd"/><path fill="#000000" fill-opacity="0.0" d="m286.3762 231.74153l0 0c-9.628021 16.672913 -30.949127 22.383926 -47.62204 12.755905l0 0c-8.006607 -4.623535 -13.848602 -12.238327 -16.240799 -21.16919c-2.3921967 -8.930862 -1.1386414 -18.446243 3.4848938 -26.452866l0 0c9.628021 -16.672913 30.949142 -22.383926 47.622055 -12.755905l0 0c16.672913 9.628021 22.383911 30.949142 12.75589 47.622055z" fill-rule="evenodd"/><path stroke="#999999" stroke-width="24.0" stroke-linejoin="round" stroke-linecap="butt" d="m286.3762 231.74153l0 0c-9.628021 16.672913 -30.949127 22.383926 -47.62204 12.755905l0 0c-8.006607 -4.623535 -13.848602 -12.238327 -16.240799 -21.16919c-2.3921967 -8.930862 -1.1386414 -18.446243 3.4848938 -26.452866l0 0c9.628021 -16.672913 30.949142 -22.383926 47.622055 -12.755905l0 0c16.672913 9.628021 22.383911 30.949142 12.75589 47.622055z" fill-rule="evenodd"/><path fill="#999999" d="m235.41132 282.79144l-28.125977 -16.220459l23.401566 -40.53543l28.125992 16.220474z" fill-rule="evenodd"/><path stroke="#999999" stroke-width="1.0" stroke-linejoin="round" stroke-linecap="butt" d="m235.41132 282.79144l-28.125977 -16.220459l23.401566 -40.53543l28.125992 16.220474z" fill-rule="evenodd"/><path fill="#999999" d="m278.8602 199.32755l-21.007874 -12.125977l23.40158 -40.53543l21.007874 12.125977z" fill-rule="evenodd"/><path stroke="#999999" stroke-width="1.0" stroke-linejoin="round" stroke-linecap="butt" d="m278.8602 199.32755l-21.007874 -12.125977l23.40158 -40.53543l21.007874 12.125977z" fill-rule="evenodd"/><path fill="#999999" d="m305.65875 270.61313l-24.53543 14.173218l-23.40158 -40.50392l24.53543 -14.173233z" fill-rule="evenodd"/><path stroke="#999999" stroke-width="1.0" stroke-linejoin="round" stroke-linecap="butt" d="m305.65875 270.61313l-24.53543 14.173218l-23.40158 -40.50392l24.53543 -14.173233z" fill-rule="evenodd"/><path fill="#999999" d="m259.22318 186.10971l-26.362198 15.212585l-23.40158 -40.503937l26.362198 -15.212601z" fill-rule="evenodd"/><path stroke="#999999" stroke-width="1.0" stroke-linejoin="round" stroke-linecap="butt" d="m259.22318 186.10971l-26.362198 15.212585l-23.40158 -40.503937l26.362198 -15.212601z" fill-rule="evenodd"/><path fill="#999999" d="m282.84067 233.0063l0.03149414 -28.755905l46.80316 0l-0.03152466 28.755905z" fill-rule="evenodd"/><path stroke="#999999" stroke-width="1.0" stroke-linejoin="round" stroke-linecap="butt" d="m282.84067 233.0063l0.03149414 -28.755905l46.80316 0l-0.03152466 28.755905z" fill-rule="evenodd"/><path fill="#999999" d="m231.51862 233.387l-46.80316 0l0 -28.97638l46.80316 0z" fill-rule="evenodd"/><path stroke="#999999" stroke-width="1.0" stroke-linejoin="round" stroke-linecap="butt" d="m231.51862 233.387l-46.80316 0l0 -28.97638l46.80316 0z" fill-rule="evenodd"/><path fill="#000000" fill-opacity="0.0" d="m223.72441 334.2725l0 0c0 -19.247345 15.603058 -34.850403 34.850388 -34.850403l0 0c9.242889 0 18.107239 3.6717224 24.642944 10.2074585c6.535736 6.5357056 10.2074585 15.400055 10.2074585 24.642944l0 0c0 19.247345 -15.603058 34.850403 -34.850403 34.850403l0 0c-19.24733 0 -34.850388 -15.603058 -34.850388 -34.850403z" fill-rule="evenodd"/><path stroke="#000000" stroke-width="24.0" stroke-linejoin="round" stroke-linecap="butt" d="m223.72441 334.2725l0 0c0 -19.247345 15.603058 -34.850403 34.850388 -34.850403l0 0c9.242889 0 18.107239 3.6717224 24.642944 10.2074585c6.535736 6.5357056 10.2074585 15.400055 10.2074585 24.642944l0 0c0 19.247345 -15.603058 34.850403 -34.850403 34.850403l0 0c-19.24733 0 -34.850388 -15.603058 -34.850388 -34.850403z" fill-rule="evenodd"/><path fill="#000000" d="m243.36745 264.5901l27.559067 0l0 46.80313l-27.559067 0z" fill-rule="evenodd"/><path stroke="#000000" stroke-width="1.0" stroke-linejoin="round" stroke-linecap="butt" d="m243.36745 264.5901l27.559067 0l0 46.80313l-27.559067 0z" fill-rule="evenodd"/><path fill="#000000" d="m243.60892 358.59796l29.921265 0l0 46.80313l-29.921265 0z" fill-rule="evenodd"/><path stroke="#000000" stroke-width="1.0" stroke-linejoin="round" stroke-linecap="butt" d="m243.60892 358.59796l29.921265 0l0 46.80313l-29.921265 0z" fill-rule="evenodd"/><path fill="#000000" d="m186.07834 306.76984l11.874023 -20.566956l40.53543 23.40158l-11.874023 20.566925z" fill-rule="evenodd"/><path stroke="#000000" stroke-width="1.0" stroke-linejoin="round" stroke-linecap="butt" d="m186.07834 306.76984l11.874023 -20.566956l40.53543 23.40158l-11.874023 20.566925z" fill-rule="evenodd"/><path fill="#000000" d="m274.6146 356.46558l11.716553 -20.283447l40.53543 23.40155l-11.716522 20.283478z" fill-rule="evenodd"/><path stroke="#000000" stroke-width="1.0" stroke-linejoin="round" stroke-linecap="butt" d="m274.6146 356.46558l11.716553 -20.283447l40.53543 23.40155l-11.716522 20.283478z" fill-rule="evenodd"/><path fill="#000000" d="m273.527 305.42923l40.53543 -23.40155l14.48819 25.102356l-40.53543 23.40158z" fill-rule="evenodd"/><path stroke="#000000" stroke-width="1.0" stroke-linejoin="round" stroke-linecap="butt" d="m273.527 305.42923l40.53543 -23.40155l14.48819 25.102356l-40.53543 23.40158z" fill-rule="evenodd"/><path fill="#000000" d="m227.98914 334.60388l14.362198 24.913391l-40.53543 23.40158l-14.362198 -24.913391z" fill-rule="evenodd"/><path stroke="#000000" stroke-width="1.0" stroke-linejoin="round" stroke-linecap="butt" d="m227.98914 334.60388l14.362198 24.913391l-40.53543 23.40158l-14.362198 -24.913391z" fill-rule="evenodd"/><path fill="#000000" fill-opacity="0.0" d="m226.31107 458.89804l0 0c-9.628021 16.672913 -30.949142 22.383911 -47.62204 12.75592l0 0c-8.006622 -4.6235657 -13.848618 -12.238342 -16.240814 -21.16919c-2.3921967 -8.930878 -1.1386414 -18.446259 3.484909 -26.45288l0 0c9.628006 -16.672913 30.949127 -22.383911 47.62204 -12.75589l0 0c16.672913 9.628021 22.383926 30.949127 12.755905 47.62204z" fill-rule="evenodd"/><path stroke="#999999" stroke-width="24.0" stroke-linejoin="round" stroke-linecap="butt" d="m226.31107 458.89804l0 0c-9.628021 16.672913 -30.949142 22.383911 -47.62204 12.75592l0 0c-8.006622 -4.6235657 -13.848618 -12.238342 -16.240814 -21.16919c-2.3921967 -8.930878 -1.1386414 -18.446259 3.484909 -26.45288l0 0c9.628006 -16.672913 30.949127 -22.383911 47.62204 -12.75589l0 0c16.672913 9.628021 22.383926 30.949127 12.755905 47.62204z" fill-rule="evenodd"/><path fill="#999999" d="m175.34619 509.94797l-28.125992 -16.220459l23.40158 -40.53543l28.125977 16.220459z" fill-rule="evenodd"/><path stroke="#999999" stroke-width="1.0" stroke-linejoin="round" stroke-linecap="butt" d="m175.34619 509.94797l-28.125992 -16.220459l23.40158 -40.53543l28.125977 16.220459z" fill-rule="evenodd"/><path fill="#999999" d="m219.43138 426.84995l-22.29921 -12.881897l23.401566 -40.53543l22.29921 12.881897z" fill-rule="evenodd"/><path stroke="#999999" stroke-width="1.0" stroke-linejoin="round" stroke-linecap="butt" d="m219.43138 426.84995l-22.29921 -12.881897l23.401566 -40.53543l22.29921 12.881897z" fill-rule="evenodd"/><path fill="#999999" d="m245.59361 497.76965l-24.53543 14.173218l-23.401566 -40.503937l24.53543 -14.173218z" fill-rule="evenodd"/><path stroke="#999999" stroke-width="1.0" stroke-linejoin="round" stroke-linecap="butt" d="m245.59361 497.76965l-24.53543 14.173218l-23.401566 -40.503937l24.53543 -14.173218z" fill-rule="evenodd"/><path fill="#999999" d="m199.15804 413.2662l-26.362198 15.212616l-23.40158 -40.503937l26.362213 -15.212616z" fill-rule="evenodd"/><path stroke="#999999" stroke-width="1.0" stroke-linejoin="round" stroke-linecap="butt" d="m199.15804 413.2662l-26.362198 15.212616l-23.40158 -40.503937l26.362213 -15.212616z" fill-rule="evenodd"/><path fill="#999999" d="m171.45348 460.54352l-46.803154 0l0 -28.97638l46.803154 0z" fill-rule="evenodd"/><path stroke="#999999" stroke-width="1.0" stroke-linejoin="round" stroke-linecap="butt" d="m171.45348 460.54352l-46.803154 0l0 -28.97638l46.803154 0z" fill-rule="evenodd"/><path fill="#999999" d="m222.77553 456.48633l0.03149414 -28.75589l46.803146 0l-0.03149414 28.75589z" fill-rule="evenodd"/><path stroke="#999999" stroke-width="1.0" stroke-linejoin="round" stroke-linecap="butt" d="m222.77553 456.48633l0.03149414 -28.75589l46.803146 0l-0.03149414 28.75589z" fill-rule="evenodd"/><path fill="#000000" fill-opacity="0.0" d="m116.92103 279.5858l0 0c-9.628021 16.672913 -30.949135 22.383911 -47.622047 12.75589l0 0c-8.006615 -4.623535 -13.848606 -12.238312 -16.240803 -21.16919c-2.3921967 -8.930847 -1.1386414 -18.446243 3.4848938 -26.45285l0 0c9.628017 -16.672913 30.949139 -22.383926 47.62205 -12.755905l0 0c16.672913 9.628021 22.383919 30.949142 12.755905 47.622055z" fill-rule="evenodd"/><path stroke="#999999" stroke-width="24.0" stroke-linejoin="round" stroke-linecap="butt" d="m116.92103 279.5858l0 0c-9.628021 16.672913 -30.949135 22.383911 -47.622047 12.75589l0 0c-8.006615 -4.623535 -13.848606 -12.238312 -16.240803 -21.16919c-2.3921967 -8.930847 -1.1386414 -18.446243 3.4848938 -26.45285l0 0c9.628017 -16.672913 30.949139 -22.383926 47.62205 -12.755905l0 0c16.672913 9.628021 22.383919 30.949142 12.755905 47.622055z" fill-rule="evenodd"/><path fill="#999999" d="m65.95615 330.6357l-28.125988 -16.22049l23.401577 -40.53543l28.125984 16.22049z" fill-rule="evenodd"/><path stroke="#999999" stroke-width="1.0" stroke-linejoin="round" stroke-linecap="butt" d="m65.95615 330.6357l-28.125988 -16.22049l23.401577 -40.53543l28.125984 16.22049z" fill-rule="evenodd"/><path fill="#999999" d="m110.041336 247.53767l-22.29921 -12.881897l23.401573 -40.53543l22.299217 12.881882z" fill-rule="evenodd"/><path stroke="#999999" stroke-width="1.0" stroke-linejoin="round" stroke-linecap="butt" d="m110.041336 247.53767l-22.29921 -12.881897l23.401573 -40.53543l22.299217 12.881882z" fill-rule="evenodd"/><path fill="#999999" d="m136.20358 318.45737l-24.535439 14.173248l-23.401573 -40.503937l24.53543 -14.173248z" fill-rule="evenodd"/><path stroke="#999999" stroke-width="1.0" stroke-linejoin="round" stroke-linecap="butt" d="m136.20358 318.45737l-24.535439 14.173248l-23.401573 -40.503937l24.53543 -14.173248z" fill-rule="evenodd"/><path fill="#999999" d="m89.768005 233.95395l-26.36221 15.212601l-23.401573 -40.503937l26.362202 -15.212601z" fill-rule="evenodd"/><path stroke="#999999" stroke-width="1.0" stroke-linejoin="round" stroke-linecap="butt" d="m89.768005 233.95395l-26.36221 15.212601l-23.401573 -40.503937l26.362202 -15.212601z" fill-rule="evenodd"/><path fill="#999999" d="m62.063435 281.23123l-46.80315 0l0 -28.97638l46.80315 0z" fill-rule="evenodd"/><path stroke="#999999" stroke-width="1.0" stroke-linejoin="round" stroke-linecap="butt" d="m62.063435 281.23123l-46.80315 0l0 -28.97638l46.80315 0z" fill-rule="evenodd"/><path fill="#999999" d="m113.38549 277.17407l0.03149414 -28.755905l46.803154 0l-0.03149414 28.755905z" fill-rule="evenodd"/><path stroke="#999999" stroke-width="1.0" stroke-linejoin="round" stroke-linecap="butt" d="m113.38549 277.17407l0.03149414 -28.755905l46.803154 0l-0.03149414 28.755905z" fill-rule="evenodd"/><path fill="#000000" fill-opacity="0.0" d="m54.160934 382.59222l0 0c0 -19.247345 15.60305 -34.850403 34.850395 -34.850403l0 0c9.242897 0 18.107231 3.6717224 24.642944 10.2074585c6.535721 6.5357056 10.207451 15.400024 10.207451 24.642944l0 0c0 19.247345 -15.603058 34.850372 -34.850395 34.850372l0 0c-19.247345 0 -34.850395 -15.603027 -34.850395 -34.850372z" fill-rule="evenodd"/><path stroke="#000000" stroke-width="24.0" stroke-linejoin="round" stroke-linecap="butt" d="m54.160934 382.59222l0 0c0 -19.247345 15.60305 -34.850403 34.850395 -34.850403l0 0c9.242897 0 18.107231 3.6717224 24.642944 10.2074585c6.535721 6.5357056 10.207451 15.400024 10.207451 24.642944l0 0c0 19.247345 -15.603058 34.850372 -34.850395 34.850372l0 0c-19.247345 0 -34.850395 -15.603027 -34.850395 -34.850372z" fill-rule="evenodd"/><path fill="#000000" d="m73.80398 312.9098l27.55906 0l0 46.80316l-27.55906 0z" fill-rule="evenodd"/><path stroke="#000000" stroke-width="1.0" stroke-linejoin="round" stroke-linecap="butt" d="m73.80398 312.9098l27.55906 0l0 46.80316l-27.55906 0z" fill-rule="evenodd"/><path fill="#000000" d="m74.04545 406.91766l29.921257 0l0 46.80316l-29.921257 0z" fill-rule="evenodd"/><path stroke="#000000" stroke-width="1.0" stroke-linejoin="round" stroke-linecap="butt" d="m74.04545 406.91766l29.921257 0l0 46.80316l-29.921257 0z" fill-rule="evenodd"/><path fill="#000000" d="m17.984982 354.35413l14.173229 -24.53543l40.53543 23.40158l-14.173229 24.53543z" fill-rule="evenodd"/><path stroke="#000000" stroke-width="1.0" stroke-linejoin="round" stroke-linecap="butt" d="m17.984982 354.35413l14.173229 -24.53543l40.53543 23.40158l-14.173229 24.53543z" fill-rule="evenodd"/><path fill="#000000" d="m102.56924 408.5446l15.212593 -26.330719l40.53543 23.40158l-15.212601 26.330719z" fill-rule="evenodd"/><path stroke="#000000" stroke-width="1.0" stroke-linejoin="round" stroke-linecap="butt" d="m102.56924 408.5446l15.212593 -26.330719l40.53543 23.40158l-15.212601 26.330719z" fill-rule="evenodd"/><path fill="#000000" d="m103.96354 353.74896l40.535423 -23.40158l14.48819 25.102386l-40.53543 23.40155z" fill-rule="evenodd"/><path stroke="#000000" stroke-width="1.0" stroke-linejoin="round" stroke-linecap="butt" d="m103.96354 353.74896l40.535423 -23.40158l14.48819 25.102386l-40.53543 23.40155z" fill-rule="evenodd"/><path fill="#000000" d="m58.425655 382.9236l14.362202 24.913391l-40.53543 23.40155l-14.362204 -24.91336z" fill-rule="evenodd"/><path stroke="#000000" stroke-width="1.0" stroke-linejoin="round" stroke-linecap="butt" d="m58.425655 382.9236l14.362202 24.913391l-40.53543 23.40155l-14.362204 -24.91336z" fill-rule="evenodd"/><path fill="#000000" fill-opacity="0.0" d="m268.04422 144.2474l34.55121 0l0 42.015747l-34.55121 0z" fill-rule="evenodd"/><path fill="#ffffff" d="m278.87662 164.57365q0 -2.046875 0.609375 -3.421875q0.453125 -1.03125 1.234375 -1.828125q0.796875 -0.8125 1.734375 -1.203125q1.25 -0.53125 2.875 -0.53125q2.953125 0 4.71875 1.828125q1.78125 1.828125 1.78125 5.09375q0 3.234375 -1.765625 5.0625q-1.75 1.828125 -4.6875 1.828125q-2.984375 0 -4.75 -1.8125q-1.75 -1.828125 -1.75 -5.015625zm2.78125 -0.09375q0 2.265625 1.046875 3.4375q1.046875 1.171875 2.65625 1.171875q1.609375 0 2.640625 -1.15625q1.046875 -1.171875 1.046875 -3.484375q0 -2.296875 -1.015625 -3.421875q-1.0 -1.140625 -2.671875 -1.140625q-1.671875 0 -2.6875 1.15625q-1.015625 1.140625 -1.015625 3.4375z" fill-rule="nonzero"/><path fill="#000000" fill-opacity="0.0" d="m294.90775 197.71428l34.551178 0l0 42.015747l-34.551178 0z" fill-rule="evenodd"/><path fill="#ffffff" d="m306.80624 224.63428l0 -13.359375l2.703125 0l0 5.265625l5.28125 0l0 -5.265625l2.703125 0l0 13.359375l-2.703125 0l0 -5.84375l-5.28125 0l0 5.84375l-2.703125 0z" fill-rule="nonzero"/><path fill="#000000" fill-opacity="0.0" d="m269.47314 243.50995l34.551178 0l0 42.015747l-34.551178 0z" fill-rule="evenodd"/><path fill="#ffffff" d="m281.19882 266.08618l2.625 -0.25q0.234375 1.3125 0.953125 1.9375q0.734375 0.609375 1.96875 0.609375q1.296875 0 1.953125 -0.546875q0.671875 -0.546875 0.671875 -1.28125q0 -0.484375 -0.28125 -0.8125q-0.28125 -0.328125 -0.96875 -0.578125q-0.484375 -0.15625 -2.171875 -0.578125q-2.15625 -0.546875 -3.03125 -1.328125q-1.234375 -1.09375 -1.234375 -2.6875q0 -1.015625 0.578125 -1.90625q0.578125 -0.890625 1.65625 -1.34375q1.09375 -0.46875 2.640625 -0.46875q2.515625 0 3.78125 1.109375q1.28125 1.09375 1.34375 2.9375l-2.703125 0.109375q-0.171875 -1.03125 -0.75 -1.46875q-0.5625 -0.453125 -1.703125 -0.453125q-1.171875 0 -1.84375 0.46875q-0.421875 0.3125 -0.421875 0.84375q0 0.46875 0.40625 0.796875q0.5 0.4375 2.46875 0.90625q1.96875 0.453125 2.90625 0.953125q0.953125 0.5 1.484375 1.359375q0.53125 0.859375 0.53125 2.125q0 1.15625 -0.640625 2.15625q-0.640625 1.0 -1.8125 1.484375q-1.15625 0.484375 -2.890625 0.484375q-2.53125 0 -3.890625 -1.171875q-1.359375 -1.171875 -1.625 -3.40625z" fill-rule="nonzero"/><path fill="#000000" fill-opacity="0.0" d="m211.59766 241.72934l34.551178 0l0 42.015747l-34.551178 0z" fill-rule="evenodd"/><path fill="#ffffff" d="m227.53462 268.64932l0 -11.09375l-3.953125 0l0 -2.2656097l10.609375 0l0 2.2656097l-3.953125 0l0 11.09375l-2.703125 0z" fill-rule="nonzero"/><path fill="#000000" fill-opacity="0.0" d="m182.50378 198.3923l34.551178 0l0 42.015747l-34.551178 0z" fill-rule="evenodd"/><path fill="#ffffff" d="m194.22946 220.96855l2.625 -0.25q0.234375 1.3125 0.953125 1.9375q0.734375 0.609375 1.96875 0.609375q1.296875 0 1.953125 -0.546875q0.671875 -0.546875 0.671875 -1.28125q0 -0.484375 -0.28125 -0.8125q-0.28125 -0.328125 -0.96875 -0.578125q-0.484375 -0.15625 -2.171875 -0.578125q-2.15625 -0.546875 -3.03125 -1.328125q-1.234375 -1.09375 -1.234375 -2.6875q0 -1.015625 0.578125 -1.90625q0.578125 -0.890625 1.65625 -1.34375q1.09375 -0.46875 2.640625 -0.46875q2.515625 0 3.78125 1.109375q1.28125 1.09375 1.34375 2.9375l-2.703125 0.109375q-0.171875 -1.03125 -0.75 -1.46875q-0.5625 -0.453125 -1.703125 -0.453125q-1.171875 0 -1.84375 0.46875q-0.421875 0.3125 -0.421875 0.84375q0 0.46875 0.40625 0.796875q0.5 0.4375 2.46875 0.90625q1.96875 0.453125 2.90625 0.953125q0.953125 0.5 1.484375 1.359375q0.53125 0.859375 0.53125 2.125q0 1.15625 -0.640625 2.15625q-0.640625 1.0 -1.8125 1.484375q-1.15625 0.484375 -2.890625 0.484375q-2.53125 0 -3.890625 -1.171875q-1.359375 -1.171875 -1.625 -3.40625z" fill-rule="nonzero"/><path fill="#000000" fill-opacity="0.0" d="m211.31049 143.51295l34.551178 0l0 42.015747l-34.551178 0z" fill-rule="evenodd"/><path fill="#ffffff" d="m227.27567 170.43295l0 -13.359375l2.6875 0l0 13.359375l-2.6875 0z" fill-rule="nonzero"/><path fill="#000000" fill-opacity="0.0" d="m288.98123 341.30145l34.551178 0l0 42.015747l-34.551178 0z" fill-rule="evenodd"/><path fill="#ffffff" d="m300.87973 368.22144l0 -13.359375l5.6875 0q2.140625 0 3.109375 0.359375q0.96875 0.359375 1.546875 1.28125q0.578125 0.921875 0.578125 2.109375q0 1.5 -0.890625 2.484375q-0.875 0.96875 -2.625 1.234375q0.875 0.5 1.4375 1.125q0.578125 0.609375 1.53125 2.15625l1.640625 2.609375l-3.234375 0l-1.9375 -2.90625q-1.046875 -1.5625 -1.4375 -1.96875q-0.375 -0.40625 -0.8125 -0.546875q-0.421875 -0.15625 -1.34375 -0.15625l-0.546875 0l0 5.578125l-2.703125 0zm2.703125 -7.703125l2.0 0q1.9375 0 2.421875 -0.15625q0.484375 -0.171875 0.75 -0.578125q0.28125 -0.40625 0.28125 -1.0q0 -0.671875 -0.359375 -1.078125q-0.359375 -0.421875 -1.015625 -0.53125q-0.328125 -0.046875 -1.96875 -0.046875l-2.109375 0l0 3.390625z" fill-rule="nonzero"/><path fill="#000000" fill-opacity="0.0" d="m241.3416 369.2142l34.551163 0l0 42.015747l-34.551163 0z" fill-rule="evenodd"/><path fill="#ffffff" d="m265.28696 396.13422l-2.9375 0l-1.171875 -3.03125l-5.328125 0l-1.109375 3.03125l-2.859375 0l5.203125 -13.359375l2.84375 0l5.359375 13.359375zm-4.96875 -5.28125l-1.84375 -4.953125l-1.796875 4.953125l3.640625 0z" fill-rule="nonzero"/><path fill="#000000" fill-opacity="0.0" d="m191.35194 342.46826l34.551178 0l0 42.015747l-34.551178 0z" fill-rule="evenodd"/><path fill="#ffffff" d="m211.7973 364.482l2.609375 0.828125q-0.59375 2.1875 -2.0 3.25q-1.390625 1.0625 -3.546875 1.0625q-2.65625 0 -4.375 -1.8125q-1.703125 -1.828125 -1.703125 -4.984375q0 -3.328125 1.71875 -5.171875q1.71875 -1.84375 4.515625 -1.84375q2.453125 0 3.984375 1.4375q0.921875 0.859375 1.375 2.46875l-2.671875 0.640625q-0.234375 -1.046875 -0.984375 -1.640625q-0.75 -0.609375 -1.828125 -0.609375q-1.484375 0 -2.421875 1.078125q-0.921875 1.0625 -0.921875 3.4375q0 2.53125 0.90625 3.609375q0.921875 1.078125 2.375 1.078125q1.078125 0 1.84375 -0.671875q0.78125 -0.6875 1.125 -2.15625z" fill-rule="nonzero"/><path fill="#000000" fill-opacity="0.0" d="m188.32545 286.2193l34.551193 0l0 42.015747l-34.551193 0z" fill-rule="evenodd"/><path fill="#ffffff" d="m212.27083 313.1393l-2.9375 0l-1.171875 -3.03125l-5.328125 0l-1.109375 3.03125l-2.859375 0l5.203125 -13.359375l2.84375 0l5.359375 13.359375zm-4.96875 -5.28125l-1.84375 -4.953125l-1.796875 4.953125l3.640625 0z" fill-rule="nonzero"/><path fill="#000000" fill-opacity="0.0" d="m240.38135 257.95422l34.551178 0l0 42.015747l-34.551178 0z" fill-rule="evenodd"/><path fill="#ffffff" d="m256.34653 284.8742l0 -13.359375l2.6875 0l0 13.359375l-2.6875 0z" fill-rule="nonzero"/><path fill="#000000" fill-opacity="0.0" d="m290.2306 280.60776l34.551178 0l0 42.015747l-34.551178 0z" fill-rule="evenodd"/><path fill="#ffffff" d="m302.11346 294.16837l4.9375 0q1.65625 0 2.53125 0.265625q1.1875 0.34375 2.015625 1.234375q0.84375 0.875 1.28125 2.15625q0.4375 1.28125 0.4375 3.15625q0 1.640625 -0.40625 2.84375q-0.5 1.453125 -1.4375 2.359375q-0.703125 0.671875 -1.890625 1.0625q-0.890625 0.28125 -2.390625 0.28125l-5.078125 0l0 -13.359375zm2.703125 2.265625l0 8.84375l2.015625 0q1.125 0 1.625 -0.125q0.65625 -0.171875 1.078125 -0.5625q0.4375 -0.390625 0.703125 -1.28125q0.28125 -0.90625 0.28125 -2.453125q0 -1.546875 -0.28125 -2.375q-0.265625 -0.828125 -0.765625 -1.28125q-0.484375 -0.46875 -1.234375 -0.640625q-0.5625 -0.125 -2.21875 -0.125l-1.203125 0z" fill-rule="nonzero"/><path fill="#ff0000" d="m104.007484 54.51516l6.496063 -6.496063l0 0c21.52607 -21.52606 56.426704 -21.52606 77.95277 0l0 0l6.496063 -6.496063l0 25.984253l-25.984253 0l6.496063 -6.496067l0 0l0 0c-14.350708 -14.350704 -37.617798 -14.350704 -51.968513 0l-6.496063 6.496067z" fill-rule="evenodd"/><path stroke="#ff0000" stroke-width="1.0" stroke-linejoin="round" stroke-linecap="butt" d="m104.007484 54.51516l6.496063 -6.496063l0 0c21.52607 -21.52606 56.426704 -21.52606 77.95277 0l0 0l6.496063 -6.496063l0 25.984253l-25.984253 0l6.496063 -6.496067l0 0l0 0c-14.350708 -14.350704 -37.617798 -14.350704 -51.968513 0l-6.496063 6.496067z" fill-rule="evenodd"/><path fill="#000000" fill-opacity="0.0" d="m97.09935 191.86026l34.551178 0l0 42.015747l-34.551178 0z" fill-rule="evenodd"/><path fill="#ffffff" d="m109.51253 218.78026l0 -13.359375l9.90625 0l0 2.265625l-7.21875 0l0 2.953125l6.71875 0l0 2.25l-6.71875 0l0 3.640625l7.46875 0l0 2.25l-10.15625 0z" fill-rule="nonzero"/><path fill="#000000" fill-opacity="0.0" d="m123.96287 245.32715l34.551186 0l0 42.015747l-34.551186 0z" fill-rule="evenodd"/><path fill="#ffffff" d="m139.92805 272.24713l0 -13.359375l2.6875 0l0 13.359375l-2.6875 0z" fill-rule="nonzero"/><path fill="#000000" fill-opacity="0.0" d="m98.52825 291.1228l34.551186 0l0 42.015747l-34.551186 0z" fill-rule="evenodd"/><path fill="#ffffff" d="m110.42674 318.04282l0 -13.359375l5.6875 0q2.140625 0 3.109375 0.359375q0.96875 0.359375 1.546875 1.28125q0.578125 0.921875 0.578125 2.109375q0 1.5 -0.890625 2.484375q-0.875 0.96875 -2.625 1.234375q0.875 0.5 1.4375 1.125q0.578125 0.609375 1.53125 2.15625l1.640625 2.609375l-3.234375 0l-1.9375 -2.90625q-1.046875 -1.5625 -1.4375 -1.96875q-0.375 -0.40625 -0.8125 -0.546875q-0.421875 -0.15625 -1.34375 -0.15625l-0.546875 0l0 5.578125l-2.703125 0zm2.703125 -7.703125l2.0 0q1.9375 0 2.421875 -0.15625q0.484375 -0.171875 0.75 -0.578125q0.28125 -0.40625 0.28125 -1.0q0 -0.671875 -0.359375 -1.078125q-0.359375 -0.421875 -1.015625 -0.53125q-0.328125 -0.046875 -1.96875 -0.046875l-2.109375 0l0 3.390625z" fill-rule="nonzero"/><path fill="#000000" fill-opacity="0.0" d="m40.65277 289.3422l34.551178 0l0 42.015747l-34.551178 0z" fill-rule="evenodd"/><path fill="#ffffff" d="m53.065952 316.2622l0 -13.359375l9.90625 0l0 2.265625l-7.21875 0l0 2.953125l6.71875 0l0 2.25l-6.71875 0l0 3.640625l7.46875 0l0 2.25l-10.15625 0z" fill-rule="nonzero"/><path fill="#000000" fill-opacity="0.0" d="m11.558901 246.00516l34.551178 0l0 42.015747l-34.551178 0z" fill-rule="evenodd"/><path fill="#ffffff" d="m23.97208 272.92517l0 -13.359375l9.90625 0l0 2.265625l-7.21875 0l0 2.953125l6.71875 0l0 2.25l-6.71875 0l0 3.640625l7.46875 0l0 2.25l-10.15625 0z" fill-rule="nonzero"/><path fill="#000000" fill-opacity="0.0" d="m40.3656 191.12582l34.551186 0l0 42.015747l-34.551186 0z" fill-rule="evenodd"/><path fill="#ffffff" d="m52.264095 218.04582l0 -13.359375l5.6875 0q2.140625 0 3.109375 0.359375q0.96875 0.359375 1.546875 1.28125q0.578125 0.921875 0.578125 2.109375q0 1.5 -0.890625 2.484375q-0.875 0.96875 -2.625 1.234375q0.875 0.5 1.4375 1.125q0.578125 0.609375 1.53125 2.15625l1.6406212 2.609375l-3.2343712 0l-1.9375 -2.90625q-1.046875 -1.5625 -1.4375 -1.96875q-0.375 -0.40625 -0.8125 -0.546875q-0.421875 -0.15625 -1.34375 -0.15625l-0.546875 0l0 5.578125l-2.703125 0zm2.703125 -7.703125l2.0 0q1.9375 0 2.421875 -0.15625q0.484375 -0.171875 0.75 -0.578125q0.28125 -0.40625 0.28125 -1.0q0 -0.671875 -0.359375 -1.078125q-0.359375 -0.421875 -1.015625 -0.53125q-0.328125 -0.046875 -1.96875 -0.046875l-2.109375 0l0 3.390625z" fill-rule="nonzero"/></g></svg>