<?xml version="1.0" encoding="UTF-8" standalone="no"?>
<!-- Created with Inkscape (http://www.inkscape.org/) -->

<svg
   width="136.48521mm"
   height="126.85945mm"
   viewBox="0 0 136.48521 126.85945"
   version="1.1"
   id="svg1"
   inkscape:export-filename="a.svg"
   inkscape:export-xdpi="96"
   inkscape:export-ydpi="96"
   xmlns:inkscape="http://www.inkscape.org/namespaces/inkscape"
   xmlns:sodipodi="http://sodipodi.sourceforge.net/DTD/sodipodi-0.dtd"
   xmlns="http://www.w3.org/2000/svg"
   xmlns:svg="http://www.w3.org/2000/svg">
  <sodipodi:namedview
     id="namedview1"
     pagecolor="#d66a6a"
     bordercolor="#000000"
     borderopacity="0.25"
     inkscape:showpageshadow="2"
     inkscape:pageopacity="0.0"
     inkscape:pagecheckerboard="0"
     inkscape:deskcolor="#d1d1d1"
     inkscape:document-units="mm"
     inkscape:zoom="0.93403608"
     inkscape:cx="533.16998"
     inkscape:cy="102.24444"
     inkscape:window-width="1576"
     inkscape:window-height="782"
     inkscape:window-x="0"
     inkscape:window-y="25"
     inkscape:window-maximized="0"
     inkscape:current-layer="layer1">
    <inkscape:page
       x="0"
       y="0"
       width="136.48521"
       height="126.85945"
       id="page2"
       margin="0"
       bleed="0" />
  </sodipodi:namedview>
  <defs
     id="defs1" />
  <g
     inkscape:label="Layer 1"
     inkscape:groupmode="layer"
     id="layer1"
     transform="translate(-34.660416,-85.195828)">
    <path
       stroke="#ffffff"
       stroke-width="0.79375"
       stroke-linejoin="round"
       stroke-linecap="butt"
       d="M 101.61143,91.379161 68.017042,155.14993"
       fill-rule="evenodd"
       id="path34-5"
       sodipodi:nodetypes="cc" />
    <path
       stroke="#ffffff"
       stroke-width="0.79375"
       stroke-linejoin="round"
       stroke-linecap="butt"
       d="m 165.80858,203.62587 -21.93885,-38.2282"
       fill-rule="evenodd"
       id="path70"
       sodipodi:nodetypes="cc" />
    <path
       fill="#000000"
       fill-opacity="0"
       d="M 65.198873,160.09828 37.165536,208.65345"
       fill-rule="evenodd"
       id="path35-1"
       style="stroke-width:0.264583" />
    <path
       stroke="#ffffff"
       stroke-width="0.79375"
       stroke-linejoin="round"
       stroke-linecap="butt"
       d="m 50.28376,164.22322 93.8794,1.8596"
       fill-rule="evenodd"
       id="path53-8"
       sodipodi:nodetypes="cc" />
    <path
       stroke="#ffffff"
       stroke-width="0.79375"
       stroke-linejoin="round"
       stroke-linecap="butt"
       d="M 135.53246,150.86845 49.790191,164.12609"
       fill-rule="evenodd"
       id="path47-9"
       sodipodi:nodetypes="cc" />
    <path
       stroke="#ffffff"
       stroke-width="1.14907"
       stroke-linejoin="round"
       stroke-linecap="butt"
       d="m 67.502102,155.6708 -30.29782,52.96037"
       fill-rule="evenodd"
       id="path36-3"
       style="stroke-width:0.79375;stroke-dasharray:none" />
    <path
       fill="#ff0000"
       d="m 44.194957,164.44346 v 0 c -0.164973,-3.21743 2.30954,-5.95942 5.526971,-6.12439 v 0 c 1.545069,-0.0792 3.058324,0.45858 4.20687,1.49509 1.148543,1.0365 1.838296,2.48682 1.917522,4.03188 v 0 c 0.164971,3.21744 -2.30954,5.95942 -5.526973,6.1244 v 0 c -3.217434,0.16497 -5.959417,-2.30954 -6.12439,-5.52698 z"
       fill-rule="evenodd"
       id="path10"
       style="stroke-width:0.264583" />
    <path
       fill="#ff0000"
       d="m 137.57365,165.81293 v 0 c -0.16498,-3.21743 2.30954,-5.95941 5.52697,-6.12438 v 0 c 1.54506,-0.0792 3.05832,0.45857 4.20687,1.49508 1.14854,1.03651 1.83829,2.48682 1.91752,4.03189 v 0 c 0.16497,3.21743 -2.30954,5.95942 -5.52698,6.12439 v 0 c -3.21743,0.16497 -5.95941,-2.30954 -6.12438,-5.52698 z"
       fill-rule="evenodd"
       id="path11"
       style="stroke-width:0.264583" />
    <path
       fill="#ff0000"
       d="m 152.32764,189.85925 v 0 c -0.16497,-3.21744 2.30954,-5.95942 5.52697,-6.12439 v 0 c 1.54507,-0.0792 3.05832,0.45858 4.20687,1.49508 1.14854,1.03651 1.8383,2.48682 1.91752,4.03189 v 0 c 0.16497,3.21743 -2.30954,5.95943 -5.52697,6.1244 v 0 c -3.21743,0.16497 -5.95942,-2.30955 -6.12439,-5.52698 z"
       fill-rule="evenodd"
       id="path37-8"
       style="stroke-width:0.264583" />
    <path
       fill="#ffffff"
       d="m 86.732924,155.76351 v 0 c -0.164971,-3.21743 2.30954,-5.95941 5.526971,-6.12439 v 0 c 1.545074,-0.0792 3.058327,0.45858 4.206867,1.49509 1.148551,1.03651 1.838298,2.48682 1.917523,4.03189 v 0 c 0.16497,3.21743 -2.309538,5.95941 -5.526972,6.12438 v 0 c -3.217433,0.16498 -5.959416,-2.30953 -6.124389,-5.52697 z"
       fill-rule="evenodd"
       id="path38-4"
       style="stroke-width:0.264583" />
    <path
       fill="#0000ff"
       d="m 110.46221,154.01584 v 0 c -0.16497,-3.21743 2.30953,-5.95941 5.52697,-6.12438 v 0 c 1.54507,-0.0792 3.05832,0.45857 4.20687,1.49508 1.14855,1.03651 1.83829,2.48682 1.91752,4.03189 v 0 c 0.16497,3.21743 -2.30954,5.95941 -5.52698,6.12438 v 0 c -3.21743,0.16498 -5.95941,-2.30953 -6.12438,-5.52697 z"
       fill-rule="evenodd"
       id="path39-8"
       style="stroke-width:0.264583" />
    <path
       fill="#ff0000"
       d="m 86.94494,165.35654 v 0 c -0.164973,-3.21744 2.309537,-5.95942 5.526971,-6.12439 v 0 c 1.545069,-0.0792 3.058324,0.45858 4.206864,1.49509 1.148548,1.0365 1.838296,2.48681 1.917523,4.03188 v 0 c 0.164973,3.21746 -2.309537,5.95942 -5.526977,6.12439 v 0 c -3.21742,0.16496 -5.959406,-2.30952 -6.124381,-5.52697 z"
       fill-rule="evenodd"
       id="path40-0"
       style="stroke-width:0.264583" />
    <path
       fill="#ffffff"
       d="m 111.78747,166.44073 v 0 c -0.16498,-3.21745 2.30953,-5.95943 5.52697,-6.1244 v 0 c 1.54507,-0.0792 3.05833,0.45858 4.20687,1.4951 1.14855,1.03649 1.83829,2.48681 1.91752,4.03187 v 0 c 0.16497,3.21746 -2.30954,5.95941 -5.52698,6.12438 v 0 c -3.21742,0.165 -5.9594,-2.3095 -6.12438,-5.52695 z"
       fill-rule="evenodd"
       id="path12"
       style="stroke-width:0.264583" />
    <path
       fill="#ffffff"
       d="m 145.94625,178.62008 v 0 c -0.16498,-3.21745 2.30953,-5.95943 5.52697,-6.1244 v 0 c 1.54507,-0.0792 3.05832,0.45858 4.20687,1.4951 1.14855,1.03649 1.83829,2.48681 1.91752,4.03187 v 0 c 0.16497,3.21746 -2.30954,5.95941 -5.52698,6.12438 v 0 c -3.21742,0.165 -5.9594,-2.3095 -6.12438,-5.52695 z"
       fill-rule="evenodd"
       id="path13"
       style="stroke-width:0.264583" />
    <path
       fill="#ffffff"
       d="m 159.48648,203.20031 v 0 c -0.16498,-3.21743 2.30953,-5.95941 5.52697,-6.12438 v 0 c 1.54507,-0.0792 3.05833,0.45857 4.20687,1.49511 1.14855,1.03647 1.8383,2.48678 1.91752,4.03184 v 0 c 0.16497,3.21747 -2.30954,5.95942 -5.52698,6.12439 v 0 c -3.21742,0.165 -5.9594,-2.30949 -6.12438,-5.52696 z"
       fill-rule="evenodd"
       id="path14"
       style="stroke-width:0.264583" />
    <path
       fill="#ff0000"
       d="m 62.930748,151.00086 v 0 c 1.610828,-2.79004 5.178441,-3.74598 7.968485,-2.13515 v 0 c 1.339824,0.77355 2.31748,2.04766 2.717898,3.54204 0.400418,1.49438 0.190797,3.08662 -0.58275,4.42644 v 0 c -1.610831,2.79005 -5.178446,3.74598 -7.968483,2.13515 v 0 c -2.790041,-1.61083 -3.745981,-5.17844 -2.13515,-7.96848 z"
       fill-rule="evenodd"
       id="path43-0"
       style="stroke-width:0.264583" />
    <path
       fill="#0000ff"
       d="m 47.847241,179.19915 v 0 c 1.610823,-2.79003 5.178439,-3.74597 7.968483,-2.13514 v 0 c 1.339823,0.77355 2.317483,2.04765 2.717893,3.54204 0.400428,1.49437 0.190806,3.08661 -0.582743,4.42644 v 0 c -1.610836,2.79005 -5.178451,3.74599 -7.968487,2.13516 v 0 c -2.790042,-1.61083 -3.745982,-5.17845 -2.135146,-7.9685 z"
       fill-rule="evenodd"
       id="path44-3"
       style="stroke-width:0.264583" />
    <path
       fill="#0000ff"
       d="m 37.269337,197.80275 v 0 c 1.610823,-2.79003 5.178436,-3.74597 7.96848,-2.13513 v 0 c 1.339824,0.77353 2.317483,2.04763 2.717896,3.54203 0.400428,1.49436 0.190807,3.08661 -0.582743,4.42643 v 0 c -1.610836,2.79006 -5.178438,3.74597 -7.968474,2.13513 v 0 c -2.790042,-1.61081 -3.745995,-5.1784 -2.135159,-7.96846 z"
       fill-rule="evenodd"
       id="path45-2"
       style="stroke-width:0.264583" />
    <path
       fill="#000000"
       fill-opacity="0"
       d="M 69.427314,181.0244 38.785495,169.59759"
       fill-rule="evenodd"
       id="path46-6"
       style="stroke-width:0.264583" />
    <path
       fill="#000000"
       fill-opacity="0"
       d="m 79.530942,186.85773 11.893417,6.86667"
       fill-rule="evenodd"
       id="path48-4"
       style="stroke-width:0.264583" />
    <path
       fill="#000000"
       fill-opacity="0"
       d="m 68.947608,205.1886 11.893418,6.86668"
       fill-rule="evenodd"
       id="path50-3"
       style="stroke-width:0.264583" />
    <path
       fill="#000000"
       fill-opacity="0"
       d="m 34.660416,176.74201 24.183485,22.61298"
       fill-rule="evenodd"
       id="path52-8"
       style="stroke-width:0.264583" />
    <path
       fill="#0000ff"
       d="m 70.110828,137.66939 v 0 c 1.610831,-2.79005 5.178441,-3.74598 7.968485,-2.13515 v 0 c 1.339824,0.77355 2.317483,2.04766 2.717901,3.54204 0.400417,1.49438 0.190796,3.08662 -0.582753,4.42644 v 0 c -1.610831,2.79004 -5.178444,3.74598 -7.96848,2.13515 v 0 c -2.790042,-1.61083 -3.745984,-5.17844 -2.135153,-7.96848 z"
       fill-rule="evenodd"
       id="path42-6"
       style="stroke-width:0.264583" />
    <path
       fill="#ffffff"
       d="m 131.05997,153.31491 v 0 c -1.61083,-2.79004 -0.65489,-6.35766 2.13515,-7.96849 v 0 c 1.33982,-0.77354 2.93206,-0.98316 4.42645,-0.58275 1.49438,0.40042 2.76848,1.37808 3.54203,2.71791 v 0 c 1.61083,2.79003 0.65489,6.35765 -2.13515,7.96848 v 0 c -2.79003,1.61083 -6.35765,0.65488 -7.96848,-2.13515 z"
       fill-rule="evenodd"
       id="path3"
       style="stroke-width:0.264583" />
    <path
       fill="#ffffff"
       d="m 131.05997,153.31491 v 0 c -1.61083,-2.79004 -0.65489,-6.35766 2.13515,-7.96849 v 0 c 1.33982,-0.77355 2.93206,-0.98316 4.42645,-0.58275 1.49437,0.40042 2.76848,1.37808 3.54203,2.71791 v 0 c 1.61083,2.79003 0.65489,6.35765 -2.13515,7.96848 v 0 c -2.79003,1.61083 -6.35765,0.65488 -7.96848,-2.13515 z"
       fill-rule="evenodd"
       id="path66"
       style="stroke-width:0.264583" />
    <path
       fill="#000000"
       fill-opacity="0"
       d="m 127.01594,134.6438 6.17917,10.70263"
       fill-rule="evenodd"
       id="path69"
       style="stroke-width:0.264583" />
    <path
       stroke="#ffffff"
       stroke-width="0.79375"
       stroke-linejoin="round"
       stroke-linecap="butt"
       d="m 127.01594,134.6438 6.17917,10.70263"
       fill-rule="evenodd"
       id="path4" />
    <path
       fill="#000000"
       fill-opacity="0"
       d="m 102.44478,90.962493 23.33333,40.416667"
       fill-rule="evenodd"
       id="path31-9"
       style="stroke-width:0.264583" />
    <path
       stroke="#ffffff"
       stroke-width="0.79375"
       stroke-linejoin="round"
       stroke-linecap="butt"
       d="m 102.44478,90.962493 23.33333,40.416667"
       fill-rule="evenodd"
       id="path32-8" />
    <path
       fill="#000000"
       fill-opacity="0"
       d="M 101.61143,91.379161 78.278103,131.58749"
       fill-rule="evenodd"
       id="path33-6"
       style="stroke-width:0.264583" />
    <path
       fill="#ffffff"
       d="m 75.733372,126.79546 v 0 c 0,-3.22167 2.61167,-5.83334 5.833332,-5.83334 v 0 c 1.547095,0 3.030823,0.61459 4.124788,1.70855 1.093959,1.09396 1.708544,2.57769 1.708544,4.12479 v 0 c 0,3.22166 -2.61167,5.83333 -5.833332,5.83333 v 0 c -3.221662,0 -5.833332,-2.61167 -5.833332,-5.83333 z"
       fill-rule="evenodd"
       id="path54-7"
       style="stroke-width:0.264583" />
    <path
       fill="#ffffff"
       d="m 84.828106,111.32916 v 0 c 0,-3.22166 2.611671,-5.83333 5.833332,-5.83333 v 0 c 1.547096,0 3.030832,0.61458 4.124788,1.70854 1.093968,1.09396 1.708545,2.57769 1.708545,4.12479 v 0 c 0,3.22166 -2.611671,5.83333 -5.833333,5.83333 v 0 c -3.221661,0 -5.833332,-2.61167 -5.833332,-5.83333 z"
       fill-rule="evenodd"
       id="path55-6"
       style="stroke-width:0.264583" />
    <path
       fill="#ffffff"
       d="m 96.494771,91.02916 v 0 c 0,-3.221659 2.61167,-5.833332 5.833329,-5.833332 v 0 c 1.5471,0 3.03083,0.614579 4.1248,1.708544 1.09396,1.093962 1.70854,2.577693 1.70854,4.124788 v 0 c 0,3.221662 -2.61167,5.833332 -5.83334,5.833332 v 0 c -3.221659,0 -5.833329,-2.61167 -5.833329,-5.833332 z"
       fill-rule="evenodd"
       id="path56-2"
       style="stroke-width:0.264583" />
    <path
       fill="#ff0000"
       d="m 108.16143,111.32916 v 0 c 0,-3.22166 2.61168,-5.83333 5.83333,-5.83333 v 0 c 1.5471,0 3.03083,0.61458 4.1248,1.70854 1.09396,1.09396 1.70853,2.57769 1.70853,4.12479 v 0 c 0,3.22166 -2.61166,5.83333 -5.83333,5.83333 v 0 c -3.22165,0 -5.83333,-2.61167 -5.83333,-5.83333 z"
       fill-rule="evenodd"
       id="path57-7"
       style="stroke-width:0.264583" />
    <path
       stroke="#ff0000"
       stroke-width="0.79375"
       stroke-linejoin="round"
       stroke-linecap="butt"
       d="m 108.16143,111.32916 v 0 c 0,-3.22166 2.61168,-5.83333 5.83333,-5.83333 v 0 c 1.5471,0 3.03083,0.61458 4.1248,1.70854 1.09396,1.09396 1.70853,2.57769 1.70853,4.12479 v 0 c 0,3.22166 -2.61166,5.83333 -5.83333,5.83333 v 0 c -3.22165,0 -5.83333,-2.61167 -5.83333,-5.83333 z"
       fill-rule="evenodd"
       id="path58-0"
       style="fill:#ff0000" />
    <path
       fill="#ff0000"
       d="m 119.8281,131.26249 v 0 c 0,-3.22166 2.61168,-5.83333 5.83333,-5.83333 v 0 c 1.5471,0 3.03084,0.61458 4.1248,1.70854 1.09396,1.09397 1.70853,2.5777 1.70853,4.12479 v 0 c 0,3.22166 -2.61166,5.83333 -5.83333,5.83333 v 0 c -3.22165,0 -5.83333,-2.61167 -5.83333,-5.83333 z"
       fill-rule="evenodd"
       id="path59-3"
       style="stroke-width:0.264583" />
    <path
       stroke="#ff0000"
       stroke-width="0.79375"
       stroke-linejoin="round"
       stroke-linecap="butt"
       d="m 119.8281,131.26249 v 0 c 0,-3.22166 2.61168,-5.83333 5.83333,-5.83333 v 0 c 1.5471,0 3.03084,0.61458 4.1248,1.70854 1.09396,1.09397 1.70853,2.5777 1.70853,4.12479 v 0 c 0,3.22166 -2.61166,5.83333 -5.83333,5.83333 v 0 c -3.22165,0 -5.83333,-2.61167 -5.83333,-5.83333 z"
       fill-rule="evenodd"
       id="path60-9"
       style="fill:#ff0000" />
  </g>
</svg>
