<?xml version="1.0" encoding="UTF-8" standalone="no"?>
<!-- Created with Inkscape (http://www.inkscape.org/) -->

<svg
   width="119.04676mm"
   height="175.88966mm"
   viewBox="0 0 119.04676 175.88966"
   version="1.1"
   id="svg1"
   inkscape:export-filename="b.svg"
   inkscape:export-xdpi="96"
   inkscape:export-ydpi="96"
   xmlns:inkscape="http://www.inkscape.org/namespaces/inkscape"
   xmlns:sodipodi="http://sodipodi.sourceforge.net/DTD/sodipodi-0.dtd"
   xmlns="http://www.w3.org/2000/svg"
   xmlns:svg="http://www.w3.org/2000/svg">
  <sodipodi:namedview
     id="namedview1"
     pagecolor="#d55d5d"
     bordercolor="#000000"
     borderopacity="0.25"
     inkscape:showpageshadow="2"
     inkscape:pageopacity="0.0"
     inkscape:pagecheckerboard="0"
     inkscape:deskcolor="#d1d1d1"
     inkscape:document-units="mm">
    <inkscape:page
       x="0"
       y="0"
       width="119.04676"
       height="175.88965"
       id="page2"
       margin="0"
       bleed="0" />
  </sodipodi:namedview>
  <defs
     id="defs1" />
  <g
     inkscape:label="Layer 1"
     inkscape:groupmode="layer"
     id="layer1"
     transform="translate(-43.391666,-60.589584)">
    <path
       fill="#ffffff"
       d="m 148.6552,126.87555 v 0 c 0,-3.22165 2.61167,-5.83333 5.83333,-5.83333 v 0 c 1.54709,0 3.03082,0.61458 4.12479,1.70855 1.09396,1.09396 1.70854,2.57769 1.70854,4.12478 v 0 c 0,3.22167 -2.61167,5.83334 -5.83333,5.83334 v 0 c -3.22166,0 -5.83333,-2.61167 -5.83333,-5.83334 z"
       fill-rule="evenodd"
       id="path32"
       style="stroke-width:0.264583" />
    <path
       fill="#ffffff"
       d="m 57.400231,66.422917 v 0 c 0,-3.221654 2.611671,-5.833333 5.833333,-5.833333 v 0 c 1.547095,0 3.030825,0.614577 4.124788,1.708553 1.093967,1.093956 1.708544,2.577684 1.708544,4.12478 v 0 c 0,3.221669 -2.611671,5.833332 -5.833332,5.833332 v 0 c -3.221662,0 -5.833333,-2.611663 -5.833333,-5.833332 z"
       fill-rule="evenodd"
       id="path33"
       style="stroke-width:0.264583" />
    <path
       fill="#ffffff"
       d="m 57.655912,229.24975 v 0 c 0,-3.22164 2.61167,-5.83332 5.833332,-5.83332 v 0 c 1.547095,0 3.030826,0.61457 4.124788,1.70855 1.093967,1.09394 1.708544,2.57767 1.708544,4.12477 v 0 c 0,3.22167 -2.61167,5.83335 -5.833332,5.83335 v 0 c -3.221662,0 -5.833332,-2.61168 -5.833332,-5.83335 z"
       fill-rule="evenodd"
       id="path18"
       style="stroke-width:0.264583" />
    <path
       fill="#ffffff"
       d="m 92.931106,230.64593 v 0 c 0,-3.22164 2.61167,-5.83332 5.833332,-5.83332 v 0 c 1.547092,0 3.030822,0.61457 4.124792,1.70855 1.09396,1.09394 1.70854,2.57767 1.70854,4.12477 v 0 c 0,3.22167 -2.61167,5.83332 -5.833332,5.83332 v 0 c -3.221662,0 -5.833332,-2.61165 -5.833332,-5.83332 z"
       fill-rule="evenodd"
       id="path19"
       style="stroke-width:0.264583" />
    <path
       fill="#ffffff"
       d="m 150.77177,207.07531 v 0 c 0,-3.22167 2.61167,-5.83334 5.83333,-5.83334 v 0 c 1.5471,0 3.03083,0.61457 4.12479,1.70857 1.09397,1.09395 1.70854,2.57768 1.70854,4.12477 v 0 c 0,3.22168 -2.61167,5.83333 -5.83333,5.83333 v 0 c -3.22166,0 -5.83333,-2.61165 -5.83333,-5.83333 z"
       fill-rule="evenodd"
       id="path20"
       style="stroke-width:0.264583" />
    <path
       fill="#000000"
       fill-opacity="0"
       d="m 55.05833,158.9934 h 70.63333"
       fill-rule="evenodd"
       id="path25-7"
       style="stroke-width:0.264583" />
    <path
       stroke="#ffffff"
       stroke-width="0.79375"
       stroke-linejoin="round"
       stroke-linecap="butt"
       d="m 55.05833,158.9934 h 70.63333"
       fill-rule="evenodd"
       id="path26-5" />
    <path
       fill="#000000"
       fill-opacity="0"
       d="m 55.05833,127.24339 h 70.63333"
       fill-rule="evenodd"
       id="path27-3"
       style="stroke-width:0.264583" />
    <path
       stroke="#ffffff"
       stroke-width="0.942321"
       stroke-linejoin="round"
       stroke-linecap="butt"
       d="m 55.05833,127.24339 h 99.55002"
       fill-rule="evenodd"
       id="path34"
       style="stroke-width:0.79375;stroke-dasharray:none" />
    <path
       stroke="#ffffff"
       stroke-width="0.79375"
       stroke-linejoin="round"
       stroke-linecap="butt"
       d="m 63.926658,66.910877 39.316352,7.054924"
       fill-rule="evenodd"
       id="path35"
       sodipodi:nodetypes="cc" />
    <path
       stroke="#ffffff"
       stroke-width="0.79375"
       stroke-linejoin="round"
       stroke-linecap="butt"
       d="m 101.61027,73.793729 33.31181,15.587713"
       fill-rule="evenodd"
       id="path36"
       sodipodi:nodetypes="cc" />
    <path
       stroke="#ffffff"
       stroke-width="0.79375"
       stroke-linejoin="round"
       stroke-linecap="butt"
       d="m 133.68593,91.046541 21.61872,33.285349"
       fill-rule="evenodd"
       id="path37"
       sodipodi:nodetypes="cc" />
    <path
       stroke="#ffffff"
       stroke-width="0.79375"
       stroke-linejoin="round"
       stroke-linecap="butt"
       d="m 128.94947,160.53981 28.10434,46.24256"
       fill-rule="evenodd"
       id="path38"
       sodipodi:nodetypes="cc"
       style="stroke-width:0.79375;stroke-dasharray:none" />
    <path
       stroke="#ffffff"
       stroke-width="0.79375"
       stroke-linejoin="round"
       stroke-linecap="butt"
       d="M 99.298483,231.29742 156.89225,206.65071"
       fill-rule="evenodd"
       id="path39"
       sodipodi:nodetypes="cc" />
    <path
       stroke="#ffffff"
       stroke-width="0.79375"
       stroke-linejoin="round"
       stroke-linecap="butt"
       d="m 62.730697,229.79802 36.788121,1.36642"
       fill-rule="evenodd"
       id="path40"
       sodipodi:nodetypes="cc" />
    <path
       fill="#000000"
       fill-opacity="0"
       d="m 63.233447,116.7523 v 79.66666"
       fill-rule="evenodd"
       id="path29-0"
       style="stroke-width:0.264583" />
    <path
       stroke="#ffffff"
       stroke-width="1.12215"
       stroke-linejoin="round"
       stroke-linecap="butt"
       d="M 63.354946,67.812799 V 227.03662"
       fill-rule="evenodd"
       id="path30-5"
       style="stroke-width:0.79375;stroke-dasharray:none" />
    <path
       fill="#ffffff"
       d="m 43.391666,127.24339 v 0 c 0,-3.22166 2.611673,-5.83333 5.833332,-5.83333 v 0 c 1.547096,0 3.030826,0.61458 4.124788,1.70854 1.093967,1.09397 1.708544,2.57769 1.708544,4.12479 v 0 c 0,3.22166 -2.61167,5.83334 -5.833332,5.83334 v 0 c -3.221659,0 -5.833332,-2.61168 -5.833332,-5.83334 z"
       fill-rule="evenodd"
       id="path75-5"
       style="stroke-width:0.264583" />
    <path
       fill="#ff0000"
       d="m 70.825002,127.24339 v 0 c 0,-3.22166 2.61167,-5.83333 5.833332,-5.83333 v 0 c 1.547095,0 3.030826,0.61458 4.124788,1.70854 1.093962,1.09397 1.708544,2.57769 1.708544,4.12479 v 0 c 0,3.22166 -2.61167,5.83334 -5.833332,5.83334 v 0 c -3.221662,0 -5.833332,-2.61168 -5.833332,-5.83334 z"
       fill-rule="evenodd"
       id="path76-6"
       style="stroke-width:0.264583" />
    <path
       fill="#ffffff"
       d="m 98.258327,127.24339 v 0 c 0,-3.22166 2.611673,-5.83333 5.833333,-5.83333 v 0 c 1.54709,0 3.03083,0.61458 4.12479,1.70854 1.09396,1.09397 1.70854,2.57769 1.70854,4.12479 v 0 c 0,3.22166 -2.61167,5.83334 -5.83333,5.83334 v 0 c -3.22166,0 -5.833333,-2.61168 -5.833333,-5.83334 z"
       fill-rule="evenodd"
       id="path77-3"
       style="stroke-width:0.264583" />
    <path
       fill="#ff0000"
       d="m 125.69167,127.24339 v 0 c 0,-3.22166 2.61167,-5.83333 5.83333,-5.83333 v 0 c 1.5471,0 3.03082,0.61458 4.12479,1.70854 1.09396,1.09397 1.70854,2.57769 1.70854,4.12479 v 0 c 0,3.22166 -2.61167,5.83334 -5.83333,5.83334 v 0 c -3.22166,0 -5.83333,-2.61168 -5.83333,-5.83334 z"
       fill-rule="evenodd"
       id="path21"
       style="stroke-width:0.264583" />
    <path
       fill="#ff0000"
       d="m 129.15926,90.007861 v 0 c 0,-3.221662 2.61167,-5.833332 5.83333,-5.833332 v 0 c 1.5471,0 3.03082,0.614585 4.12479,1.708544 1.09396,1.093965 1.70854,2.577693 1.70854,4.124788 v 0 c 0,3.221662 -2.61167,5.83334 -5.83333,5.83334 v 0 c -3.22166,0 -5.83333,-2.611678 -5.83333,-5.83334 z"
       fill-rule="evenodd"
       id="path22"
       style="stroke-width:0.264583" />
    <path
       fill="#ff0000"
       d="m 97.232344,73.356188 v 0 c 0,-3.221662 2.611671,-5.833332 5.833336,-5.833332 v 0 c 1.54709,0 3.03082,0.614584 4.12478,1.708544 1.09396,1.093965 1.70855,2.577692 1.70855,4.124788 v 0 c 0,3.221662 -2.61167,5.83334 -5.83333,5.83334 v 0 c -3.221665,0 -5.833336,-2.611678 -5.833336,-5.83334 z"
       fill-rule="evenodd"
       id="path31"
       style="stroke-width:0.264583" />
    <path
       fill="#ffffff"
       d="m 43.391666,158.9934 v 0 c 0,-3.22167 2.611673,-5.83333 5.833332,-5.83333 v 0 c 1.547096,0 3.030826,0.61458 4.124788,1.70854 1.093967,1.09395 1.708544,2.5777 1.708544,4.12479 v 0 c 0,3.22166 -2.61167,5.83334 -5.833332,5.83334 v 0 c -3.221659,0 -5.833332,-2.61168 -5.833332,-5.83334 z"
       fill-rule="evenodd"
       id="path79-6"
       style="fill:#0000ff;fill-opacity:1;stroke-width:0.264583" />
    <path
       fill="#0000ff"
       d="m 70.825002,158.9934 v 0 c 0,-3.22167 2.61167,-5.83333 5.833332,-5.83333 v 0 c 1.547095,0 3.030826,0.61458 4.124788,1.70854 1.093962,1.09395 1.708544,2.5777 1.708544,4.12479 v 0 c 0,3.22166 -2.61167,5.83334 -5.833332,5.83334 v 0 c -3.221662,0 -5.833332,-2.61168 -5.833332,-5.83334 z"
       fill-rule="evenodd"
       id="path80-8"
       style="stroke-width:0.264583" />
    <path
       fill="#ff0000"
       d="m 98.258327,158.9934 v 0 c 0,-3.22167 2.611673,-5.83333 5.833333,-5.83333 v 0 c 1.54709,0 3.03083,0.61458 4.12479,1.70854 1.09396,1.09395 1.70854,2.5777 1.70854,4.12479 v 0 c 0,3.22166 -2.61167,5.83334 -5.83333,5.83334 v 0 c -3.22166,0 -5.833333,-2.61168 -5.833333,-5.83334 z"
       fill-rule="evenodd"
       id="path81-9"
       style="stroke-width:0.264583" />
    <path
       fill="#0000ff"
       d="m 123.02588,159.59657 v 0 c 0,-3.22167 2.61167,-5.83333 5.83333,-5.83333 v 0 c 1.5471,0 3.03083,0.61457 4.12479,1.70853 1.09396,1.09396 1.70855,2.5777 1.70855,4.1248 v 0 c 0,3.22165 -2.61167,5.83333 -5.83334,5.83333 v 0 c -3.22166,0 -5.83333,-2.61168 -5.83333,-5.83333 z"
       fill-rule="evenodd"
       id="path82-1"
       style="stroke-width:0.264583" />
    <path
       fill="#0000ff"
       d="m 57.400112,110.91897 v 0 c 0,-3.22166 2.611673,-5.83333 5.833333,-5.83333 v 0 c 1.547095,0 3.030825,0.61457 4.124793,1.70854 1.093962,1.09396 1.708539,2.57769 1.708539,4.12479 v 0 c 0,3.22166 -2.611671,5.83333 -5.833332,5.83333 v 0 c -3.22166,0 -5.833333,-2.61167 -5.833333,-5.83333 z"
       fill-rule="evenodd"
       id="path83-4"
       style="stroke-width:0.264583" />
    <path
       fill="#ffffff"
       d="m 57.121003,143.37935 v 0 c 0,-3.22166 2.611671,-5.83333 5.833333,-5.83333 v 0 c 1.547095,0 3.030825,0.61457 4.124788,1.70855 1.093967,1.09396 1.708544,2.57768 1.708544,4.12478 v 0 c 0,3.22167 -2.611671,5.83333 -5.833332,5.83333 v 0 c -3.221662,0 -5.833333,-2.61166 -5.833333,-5.83333 z"
       fill-rule="evenodd"
       id="path84-8"
       style="stroke-width:0.264583" />
    <path
       fill="#ff0000"
       d="m 57.400057,176.85495 v 0 c 0,-3.22165 2.61167,-5.83333 5.833332,-5.83333 v 0 c 1.547095,0 3.030826,0.61459 4.124788,1.70856 1.093962,1.09394 1.708544,2.57767 1.708544,4.12477 v 0 c 0,3.22167 -2.61167,5.83335 -5.833332,5.83335 v 0 c -3.221662,0 -5.833332,-2.61168 -5.833332,-5.83335 z"
       fill-rule="evenodd"
       id="path85-8"
       style="stroke-width:0.264583" />
    <path
       fill="#ff0000"
       d="m 57.400057,202.25495 v 0 c 0,-3.22165 2.61167,-5.83332 5.833332,-5.83332 v 0 c 1.547095,0 3.030826,0.61457 4.124788,1.70855 1.093962,1.09394 1.708544,2.57767 1.708544,4.12477 v 0 c 0,3.22167 -2.61167,5.83335 -5.833332,5.83335 v 0 c -3.221662,0 -5.833332,-2.61168 -5.833332,-5.83335 z"
       fill-rule="evenodd"
       id="path86-7"
       style="stroke-width:0.264583" />
  </g>
</svg>
