<?xml version="1.0" encoding="UTF-8" standalone="no"?>
<svg
   version="1.1"
   viewBox="0.0 0.0 968.8897637795276 1735.5564304461943"
   fill="none"
   stroke="none"
   stroke-linecap="square"
   stroke-miterlimit="10"
   id="svg148"
   sodipodi:docname="beads_diagram.svg"
   inkscape:version="1.4 (e7c3feb1, 2024-10-09)"
   xmlns:inkscape="http://www.inkscape.org/namespaces/inkscape"
   xmlns:sodipodi="http://sodipodi.sourceforge.net/DTD/sodipodi-0.dtd"
   xmlns="http://www.w3.org/2000/svg"
   xmlns:svg="http://www.w3.org/2000/svg">
  <defs
     id="defs148" />
  <sodipodi:namedview
     id="namedview148"
     pagecolor="#ffffff"
     bordercolor="#000000"
     borderopacity="0.25"
     inkscape:showpageshadow="2"
     inkscape:pageopacity="0.0"
     inkscape:pagecheckerboard="0"
     inkscape:deskcolor="#d1d1d1"
     inkscape:zoom="0.29811076"
     inkscape:cx="248.22988"
     inkscape:cy="214.68531"
     inkscape:window-width="1104"
     inkscape:window-height="639"
     inkscape:window-x="648"
     inkscape:window-y="25"
     inkscape:window-maximized="0"
     inkscape:current-layer="g148" />
  <clipPath
     id="p.0">
    <path
       d="m0 0l968.8898 0l0 1735.5564l-968.8898 0l0 -1735.5564z"
       clip-rule="nonzero"
       id="path1" />
  </clipPath>
  <g
     clip-path="url(#p.0)"
     id="g148">
    <path
       fill="#000000"
       fill-opacity="0.0"
       d="m0 0l968.8898 0l0 1735.5564l-968.8898 0z"
       fill-rule="evenodd"
       id="path2" />
    <path
       fill="#000000"
       fill-opacity="0.0"
       d="m568.64307 1234.8215l174.99213 154.45667"
       fill-rule="evenodd"
       id="path3" />
    <path
       stroke="#ffffff"
       stroke-width="3.0"
       stroke-linejoin="round"
       stroke-linecap="butt"
       d="m568.64307 1234.8215l174.99213 154.45667"
       fill-rule="evenodd"
       id="path4" />
    <path
       fill="#000000"
       fill-opacity="0.0"
       d="m224.64305 1234.8215l174.99211 154.45667"
       fill-rule="evenodd"
       id="path5" />
    <path
       stroke="#ffffff"
       stroke-width="3.0"
       stroke-linejoin="round"
       stroke-linecap="butt"
       d="m224.64305 1234.8215l174.99211 154.45667"
       fill-rule="evenodd"
       id="path6" />
    <path
       fill="#000000"
       fill-opacity="0.0"
       d="m250.20473 1235.3911l127.464554 0"
       fill-rule="evenodd"
       id="path7" />
    <path
       stroke="#ffffff"
       stroke-width="3.0"
       stroke-linejoin="round"
       stroke-linecap="butt"
       d="m250.20473 1235.3911l127.464554 0"
       fill-rule="evenodd"
       id="path8" />
    <path
       fill="#000000"
       fill-opacity="0.0"
       d="m389.063 933.4068l-94.519684 159.37006"
       fill-rule="evenodd"
       id="path9" />
    <path
       stroke="#ffffff"
       stroke-width="3.0"
       stroke-linejoin="round"
       stroke-linecap="butt"
       d="m389.063 933.4068l-94.519684 159.37006"
       fill-rule="evenodd"
       id="path10" />
    <path
       fill="#000000"
       fill-opacity="0.0"
       d="m805.063 925.4068l-94.51965 159.37006"
       fill-rule="evenodd"
       id="path11" />
    <path
       stroke="#ffffff"
       stroke-width="3.0"
       stroke-linejoin="round"
       stroke-linecap="butt"
       d="m805.063 925.4068l-94.51965 159.37006"
       fill-rule="evenodd"
       id="path12" />
    <path
       fill="#000000"
       fill-opacity="0.0"
       d="m520.4698 1019.3438l-53.921234 75.7796"
       fill-rule="evenodd"
       id="path13" />
    <path
       stroke="#ffffff"
       stroke-width="3.0"
       stroke-linejoin="round"
       stroke-linecap="butt"
       d="m520.4698 1019.3438l-53.921234 75.7796"
       fill-rule="evenodd"
       id="path14" />
    <path
       fill="#000000"
       fill-opacity="0.0"
       d="m466.56168 980.2808l-53.88977 85.165344"
       fill-rule="evenodd"
       id="path15" />
    <path
       stroke="#ffffff"
       stroke-width="3.0"
       stroke-linejoin="round"
       stroke-linecap="butt"
       d="m466.56168 980.2808l-53.88977 85.165344"
       fill-rule="evenodd"
       id="path16" />
    <path
       fill="#000000"
       fill-opacity="0.0"
       d="m541.5617 925.5932l-20.315002 93.76373"
       fill-rule="evenodd"
       id="path17" />
    <path
       stroke="#ffffff"
       stroke-width="3.0"
       stroke-linejoin="round"
       stroke-linecap="butt"
       d="m541.5617 925.5932l-20.315002 93.76373"
       fill-rule="evenodd"
       id="path18" />
    <path
       fill="#000000"
       fill-opacity="0.0"
       d="m543.126 925.5932l-79.68503 57.82672"
       fill-rule="evenodd"
       id="path19" />
    <path
       stroke="#ffffff"
       stroke-width="3.0"
       stroke-linejoin="round"
       stroke-linecap="butt"
       d="m543.126 925.5932l-79.68503 57.82672"
       fill-rule="evenodd"
       id="path20" />
    <path
       fill="#000000"
       fill-opacity="0.0"
       d="m203.12599 933.4068l94.55116 162.48822"
       fill-rule="evenodd"
       id="path21" />
    <path
       stroke="#ffffff"
       stroke-width="3.0"
       stroke-linejoin="round"
       stroke-linecap="butt"
       d="m203.12599 933.4068l94.55116 162.48822"
       fill-rule="evenodd"
       id="path22" />
    <path
       fill="#000000"
       fill-opacity="0.0"
       d="m567.4333 485.7104l0 147.90552"
       fill-rule="evenodd"
       id="path23" />
    <path
       stroke="#ffffff"
       stroke-width="3.0"
       stroke-linejoin="round"
       stroke-linecap="butt"
       d="m567.4333 485.7104l0 147.90552"
       fill-rule="evenodd"
       id="path24" />
    <path
       fill="#000000"
       fill-opacity="0.0"
       d="m153.35432 618.6772l266.96063 0"
       fill-rule="evenodd"
       id="path25" />
    <path
       stroke="#ffffff"
       stroke-width="3.0"
       stroke-linejoin="round"
       stroke-linecap="butt"
       d="m153.35432 618.6772l266.96063 0"
       fill-rule="evenodd"
       id="path26" />
    <path
       fill="#000000"
       fill-opacity="0.0"
       d="m153.35432 498.67715l266.96063 0"
       fill-rule="evenodd"
       id="path27" />
    <path
       stroke="#ffffff"
       stroke-width="3.0"
       stroke-linejoin="round"
       stroke-linecap="butt"
       d="m153.35432 498.67715l266.96063 0"
       fill-rule="evenodd"
       id="path28" />
    <path
       fill="#000000"
       fill-opacity="0.0"
       d="m184.2524 459.0258l0 301.10233"
       fill-rule="evenodd"
       id="path29" />
    <path
       stroke="#ffffff"
       stroke-width="3.0"
       stroke-linejoin="round"
       stroke-linecap="butt"
       d="m184.2524 459.0258l0 301.10233"
       fill-rule="evenodd"
       id="path30" />
    <path
       fill="#000000"
       fill-opacity="0.0"
       d="m516.53546 121.25984l88.188965 152.7559"
       fill-rule="evenodd"
       id="path31" />
    <path
       stroke="#ffffff"
       stroke-width="3.0"
       stroke-linejoin="round"
       stroke-linecap="butt"
       d="m516.53546 121.25984l88.188965 152.7559"
       fill-rule="evenodd"
       id="path32" />
    <path
       fill="#000000"
       fill-opacity="0.0"
       d="m513.3858 122.83465l-88.188965 151.9685"
       fill-rule="evenodd"
       id="path33" />
    <path
       stroke="#ffffff"
       stroke-width="3.0"
       stroke-linejoin="round"
       stroke-linecap="butt"
       d="m513.3858 122.83465l-88.188965 151.9685"
       fill-rule="evenodd"
       id="path34" />
    <path
       fill="#000000"
       fill-opacity="0.0"
       d="m171.65355 57.732285l0 211.9055"
       fill-rule="evenodd"
       id="path35" />
    <path
       stroke="#ffffff"
       stroke-width="4.0"
       stroke-linejoin="round"
       stroke-linecap="butt"
       d="m171.65355 57.732285l0 211.9055"
       fill-rule="evenodd"
       id="path36" />
    <path
       fill="#ff0000"
       d="m65.51181 154.3307l0 0c0 -12.176346 9.870888 -22.047241 22.047241 -22.047241l0 0c5.8472977 0 11.455101 2.3228302 15.58976 6.457489c4.134659 4.134659 6.457489 9.742462 6.457489 15.589752l0 0c0 12.176361 -9.870888 22.047256 -22.047249 22.047256l0 0c-12.176353 0 -22.047241 -9.870895 -22.047241 -22.047256z"
       fill-rule="evenodd"
       id="path37" />
    <path
       fill="#ffffff"
       d="m225.03937 118.23622l0 0c0 -12.176361 9.870895 -22.047241 22.047241 -22.047241l0 0c5.8473053 0 11.455109 2.3228226 15.589752 6.4574814c4.134674 4.1346664 6.457489 9.74247 6.457489 15.58976l0 0c0 12.176361 -9.87088 22.047241 -22.047241 22.047241l0 0c-12.176346 0 -22.047241 -9.87088 -22.047241 -22.047241z"
       fill-rule="evenodd"
       id="path38" />
    <path
       fill="#0000ff"
       d="m321.03937 118.23622l0 0c0 -12.176361 9.87088 -22.047241 22.047241 -22.047241l0 0c5.84729 0 11.455109 2.3228226 15.589752 6.4574814c4.134674 4.1346664 6.457489 9.74247 6.457489 15.58976l0 0c0 12.176361 -9.87088 22.047241 -22.047241 22.047241l0 0c-12.176361 0 -22.047241 -9.87088 -22.047241 -22.047241z"
       fill-rule="evenodd"
       id="path39" />
    <path
       fill="#ff0000"
       d="m225.03937 198.23622l0 0c0 -12.176361 9.870895 -22.047241 22.047241 -22.047241l0 0c5.8473053 0 11.455109 2.3228302 15.589752 6.457489c4.134674 4.134659 6.457489 9.742462 6.457489 15.589752l0 0c0 12.176361 -9.87088 22.047241 -22.047241 22.047241l0 0c-12.176346 0 -22.047241 -9.87088 -22.047241 -22.047241z"
       fill-rule="evenodd"
       id="path40" />
    <path
       fill="#ffffff"
       d="m321.03937 198.23622l0 0c0 -12.176361 9.87088 -22.047241 22.047241 -22.047241l0 0c5.84729 0 11.455109 2.3228302 15.589752 6.457489c4.134674 4.134659 6.457489 9.742462 6.457489 15.589752l0 0c0 12.176361 -9.87088 22.047241 -22.047241 22.047241l0 0c-12.176361 0 -22.047241 -9.87088 -22.047241 -22.047241z"
       fill-rule="evenodd"
       id="path41" />
    <path
       fill="#0000ff"
       d="m149.6063 35.68504l0 0c0 -12.176357 9.870895 -22.047245 22.047256 -22.047245l0 0c5.84729 0 11.455093 2.3228273 15.589752 6.457488c4.134659 4.1346607 6.457489 9.742464 6.457489 15.589756l0 0c0 12.176357 -9.870895 22.047245 -22.047241 22.047245l0 0c-12.176361 0 -22.047256 -9.870888 -22.047256 -22.047245z"
       fill-rule="evenodd"
       id="path42" />
    <path
       fill="#ff0000"
       d="m149.6063 99.40157l0 0c0 -12.176353 9.870895 -22.047241 22.047256 -22.047241l0 0c5.84729 0 11.455093 2.3228302 15.589752 6.457489c4.134659 4.134659 6.457489 9.742462 6.457489 15.589752l0 0c0 12.176361 -9.870895 22.047249 -22.047241 22.047249l0 0c-12.176361 0 -22.047256 -9.870888 -22.047256 -22.047249z"
       fill-rule="evenodd"
       id="path43" />
    <path
       fill="#0000ff"
       d="m149.6063 219.68504l0 0c0 -12.176361 9.870895 -22.047241 22.047256 -22.047241l0 0c5.84729 0 11.455093 2.322815 15.589752 6.457489c4.134659 4.134659 6.457489 9.742462 6.457489 15.589752l0 0c0 12.176346 -9.870895 22.047241 -22.047241 22.047241l0 0c-12.176361 0 -22.047256 -9.870895 -22.047256 -22.047241z"
       fill-rule="evenodd"
       id="path44" />
    <path
       fill="#0000ff"
       d="m149.6063 291.68503l0 0c0 -12.176331 9.870895 -22.047241 22.047256 -22.047241l0 0c5.84729 0 11.455093 2.3228455 15.589752 6.457489c4.134659 4.134674 6.457489 9.742462 6.457489 15.589752l0 0c0 12.176361 -9.870895 22.047241 -22.047241 22.047241l0 0c-12.176361 0 -22.047256 -9.87088 -22.047256 -22.047241z"
       fill-rule="evenodd"
       id="path45" />
    <path
       fill="#000000"
       fill-opacity="0.0"
       d="m225.03937 118.23622l-121.88976 20.503937"
       fill-rule="evenodd"
       id="path46" />
    <path
       stroke="#ffffff"
       stroke-width="3.0"
       stroke-linejoin="round"
       stroke-linecap="butt"
       d="m225.03937 118.23622l-121.88976 20.503937"
       fill-rule="evenodd"
       id="path47" />
    <path
       fill="#000000"
       fill-opacity="0.0"
       d="m269.13385 118.23622l51.905518 0"
       fill-rule="evenodd"
       id="path48" />
    <path
       stroke="#ffffff"
       stroke-width="3.0"
       stroke-linejoin="round"
       stroke-linecap="butt"
       d="m269.13385 118.23622l51.905518 0"
       fill-rule="evenodd"
       id="path49" />
    <path
       fill="#000000"
       fill-opacity="0.0"
       d="m269.13385 198.23622l51.905518 0"
       fill-rule="evenodd"
       id="path50" />
    <path
       stroke="#ffffff"
       stroke-width="3.0"
       stroke-linejoin="round"
       stroke-linecap="butt"
       d="m269.13385 198.23622l51.905518 0"
       fill-rule="evenodd"
       id="path51" />
    <path
       fill="#000000"
       fill-opacity="0.0"
       d="m103.14881 169.92047l121.88976 28.314957"
       fill-rule="evenodd"
       id="path52" />
    <path
       stroke="#ffffff"
       stroke-width="3.0"
       stroke-linejoin="round"
       stroke-linecap="butt"
       d="m103.14881 169.92047l121.88976 28.314957"
       fill-rule="evenodd"
       id="path53" />
    <path
       fill="#ffffff"
       d="m405.85828 273.5748l0 0c0 -12.176361 9.87088 -22.047241 22.047241 -22.047241l0 0c5.84729 0 11.455078 2.3228302 15.589752 6.457489c4.1346436 4.134674 6.457489 9.742462 6.457489 15.589752l0 0c0 12.176361 -9.87088 22.047241 -22.047241 22.047241l0 0c-12.176361 0 -22.047241 -9.87088 -22.047241 -22.047241z"
       fill-rule="evenodd"
       id="path54" />
    <path
       fill="#ffffff"
       d="m449.95276 198.23622l0 0c0 -12.176361 9.87088 -22.047241 22.047241 -22.047241l0 0c5.84729 0 11.455109 2.3228302 15.589752 6.457489c4.134674 4.134659 6.457489 9.742462 6.457489 15.589752l0 0c0 12.176361 -9.87088 22.047241 -22.047241 22.047241l0 0c-12.176361 0 -22.047241 -9.87088 -22.047241 -22.047241z"
       fill-rule="evenodd"
       id="path55" />
    <path
       fill="#ffffff"
       d="m494.04724 121.51181l0 0c0 -12.176353 9.87088 -22.047241 22.047241 -22.047241l0 0c5.84729 0 11.455078 2.3228226 15.589783 6.457489c4.1346436 4.134659 6.4574585 9.742462 6.4574585 15.589752l0 0c0 12.176361 -9.87085 22.047241 -22.047241 22.047241l0 0c-12.176361 0 -22.047241 -9.87088 -22.047241 -22.047241z"
       fill-rule="evenodd"
       id="path56" />
    <path
       fill="#ff0000"
       d="m538.1417 198.23622l0 0c0 -12.176361 9.870911 -22.047241 22.047241 -22.047241l0 0c5.84729 0 11.455078 2.3228302 15.589783 6.457489c4.1346436 4.134659 6.4574585 9.742462 6.4574585 15.589752l0 0c0 12.176361 -9.87085 22.047241 -22.047241 22.047241l0 0c-12.176331 0 -22.047241 -9.87088 -22.047241 -22.047241z"
       fill-rule="evenodd"
       id="path57" />
    <path
       stroke="#ff0000"
       stroke-width="3.0"
       stroke-linejoin="round"
       stroke-linecap="butt"
       d="m538.1417 198.23622l0 0c0 -12.176361 9.870911 -22.047241 22.047241 -22.047241l0 0c5.84729 0 11.455078 2.3228302 15.589783 6.457489c4.1346436 4.134659 6.4574585 9.742462 6.4574585 15.589752l0 0c0 12.176361 -9.87085 22.047241 -22.047241 22.047241l0 0c-12.176331 0 -22.047241 -9.87088 -22.047241 -22.047241z"
       fill-rule="evenodd"
       id="path58" />
    <path
       fill="#ff0000"
       d="m582.2362 273.5748l0 0c0 -12.176361 9.870911 -22.047241 22.047241 -22.047241l0 0c5.84729 0 11.455139 2.3228302 15.589783 6.457489c4.1346436 4.134674 6.4574585 9.742462 6.4574585 15.589752l0 0c0 12.176361 -9.87085 22.047241 -22.047241 22.047241l0 0c-12.176331 0 -22.047241 -9.87088 -22.047241 -22.047241z"
       fill-rule="evenodd"
       id="path59" />
    <path
       stroke="#ff0000"
       stroke-width="3.0"
       stroke-linejoin="round"
       stroke-linecap="butt"
       d="m582.2362 273.5748l0 0c0 -12.176361 9.870911 -22.047241 22.047241 -22.047241l0 0c5.84729 0 11.455139 2.3228302 15.589783 6.457489c4.1346436 4.134674 6.4574585 9.742462 6.4574585 15.589752l0 0c0 12.176361 -9.87085 22.047241 -22.047241 22.047241l0 0c-12.176331 0 -22.047241 -9.87088 -22.047241 -22.047241z"
       fill-rule="evenodd"
       id="path60" />
    <path
       fill="#ff0000"
       d="m828.9764 35.68504l0 0c0 -12.176357 9.870911 -22.047245 22.047241 -22.047245l0 0c5.84729 0 11.455078 2.3228273 15.589783 6.457488c4.1346436 4.1346607 6.4574585 9.742464 6.4574585 15.589756l0 0c0 12.176357 -9.870911 22.047245 -22.047241 22.047245l0 0c-12.176331 0 -22.047241 -9.870888 -22.047241 -22.047245z"
       fill-rule="evenodd"
       id="path61" />
    <path
       fill="#ffffff"
       d="m828.9764 121.51181l0 0c0 -12.176353 9.870911 -22.047241 22.047241 -22.047241l0 0c5.84729 0 11.455078 2.3228226 15.589783 6.457489c4.1346436 4.134659 6.4574585 9.742462 6.4574585 15.589752l0 0c0 12.176361 -9.870911 22.047241 -22.047241 22.047241l0 0c-12.176331 0 -22.047241 -9.87088 -22.047241 -22.047241z"
       fill-rule="evenodd"
       id="path62" />
    <path
       fill="#0000ff"
       d="m729.95276 121.51181l0 0c0 -12.176353 9.870911 -22.047241 22.047241 -22.047241l0 0c5.84729 0 11.455078 2.3228226 15.589783 6.457489c4.1346436 4.134659 6.4574585 9.742462 6.4574585 15.589752l0 0c0 12.176361 -9.870911 22.047241 -22.047241 22.047241l0 0c-12.176331 0 -22.047241 -9.87088 -22.047241 -22.047241z"
       fill-rule="evenodd"
       id="path63" />
    <path
       fill="#ffffff"
       d="m725.2913 191.9685l0 0c0 -12.176361 9.870911 -22.047241 22.047241 -22.047241l0 0c5.84729 0 11.455139 2.3228302 15.589783 6.457489c4.1346436 4.134659 6.4574585 9.742462 6.4574585 15.589752l0 0c0 12.176361 -9.87085 22.047241 -22.047241 22.047241l0 0c-12.176331 0 -22.047241 -9.87088 -22.047241 -22.047241z"
       fill-rule="evenodd"
       id="path64" />
    <path
       fill="#ff0000"
       d="m828.9764 191.9685l0 0c0 -12.176361 9.870911 -22.047241 22.047241 -22.047241l0 0c5.84729 0 11.455078 2.3228302 15.589783 6.457489c4.1346436 4.134659 6.4574585 9.742462 6.4574585 15.589752l0 0c0 12.176361 -9.870911 22.047241 -22.047241 22.047241l0 0c-12.176331 0 -22.047241 -9.87088 -22.047241 -22.047241z"
       fill-rule="evenodd"
       id="path65" />
    <path
       fill="#ffffff"
       d="m828.9764 282.77167l0 0c0 -12.176361 9.870911 -22.047272 22.047241 -22.047272l0 0c5.84729 0 11.455078 2.3228455 15.589783 6.457489c4.1346436 4.134674 6.4574585 9.742462 6.4574585 15.589783l0 0c0 12.176331 -9.870911 22.047241 -22.047241 22.047241l0 0c-12.176331 0 -22.047241 -9.870911 -22.047241 -22.047241z"
       fill-rule="evenodd"
       id="path66" />
    <path
       fill="#000000"
       fill-opacity="0.0"
       d="m851.0236 57.732285l0 41.732285"
       fill-rule="evenodd"
       id="path67" />
    <path
       stroke="#ffffff"
       stroke-width="3.0"
       stroke-linejoin="round"
       stroke-linecap="butt"
       d="m851.0236 57.732285l0 41.732285"
       fill-rule="evenodd"
       id="path68" />
    <path
       fill="#000000"
       fill-opacity="0.0"
       d="m851.0236 214.01575l0 46.70865"
       fill-rule="evenodd"
       id="path69" />
    <path
       stroke="#ffffff"
       stroke-width="3.0"
       stroke-linejoin="round"
       stroke-linecap="butt"
       d="m851.0236 214.01575l0 46.70865"
       fill-rule="evenodd"
       id="path70" />
    <path
       fill="#000000"
       fill-opacity="0.0"
       d="m774.04724 121.51181l54.92914 0"
       fill-rule="evenodd"
       id="path71" />
    <path
       stroke="#ffffff"
       stroke-width="3.0"
       stroke-linejoin="round"
       stroke-linecap="butt"
       d="m774.04724 121.51181l54.92914 0"
       fill-rule="evenodd"
       id="path72" />
    <path
       fill="#000000"
       fill-opacity="0.0"
       d="m769.3858 191.9685l59.590576 0"
       fill-rule="evenodd"
       id="path73" />
    <path
       stroke="#ffffff"
       stroke-width="3.0"
       stroke-linejoin="round"
       stroke-linecap="butt"
       d="m769.3858 191.9685l59.590576 0"
       fill-rule="evenodd"
       id="path74" />
    <path
       fill="#ffffff"
       d="m109.25984 498.67715l0 0c0 -12.176361 9.870888 -22.047241 22.047241 -22.047241l0 0c5.84729 0 11.455093 2.3228455 15.589752 6.457489c4.134674 4.134674 6.457489 9.742462 6.457489 15.589752l0 0c0 12.176361 -9.87088 22.047272 -22.047241 22.047272l0 0c-12.176353 0 -22.047241 -9.870911 -22.047241 -22.047272z"
       fill-rule="evenodd"
       id="path75" />
    <path
       fill="#ff0000"
       d="m212.94489 498.67715l0 0c0 -12.176361 9.87088 -22.047241 22.047241 -22.047241l0 0c5.84729 0 11.455093 2.3228455 15.589752 6.457489c4.134659 4.134674 6.457489 9.742462 6.457489 15.589752l0 0c0 12.176361 -9.87088 22.047272 -22.047241 22.047272l0 0c-12.176361 0 -22.047241 -9.870911 -22.047241 -22.047272z"
       fill-rule="evenodd"
       id="path76" />
    <path
       fill="#ffffff"
       d="m316.6299 498.67715l0 0c0 -12.176361 9.87088 -22.047241 22.047241 -22.047241l0 0c5.84729 0 11.455109 2.3228455 15.589752 6.457489c4.134674 4.134674 6.457489 9.742462 6.457489 15.589752l0 0c0 12.176361 -9.87088 22.047272 -22.047241 22.047272l0 0c-12.176361 0 -22.047241 -9.870911 -22.047241 -22.047272z"
       fill-rule="evenodd"
       id="path77" />
    <path
       fill="#ff0000"
       d="m420.31497 498.67715l0 0c0 -12.176361 9.87088 -22.047241 22.047241 -22.047241l0 0c5.84729 0 11.455078 2.3228455 15.589752 6.457489c4.1346436 4.134674 6.457489 9.742462 6.457489 15.589752l0 0c0 12.176361 -9.87088 22.047272 -22.047241 22.047272l0 0c-12.176361 0 -22.047241 -9.870911 -22.047241 -22.047272z"
       fill-rule="evenodd"
       id="path78" />
    <path
       fill="#ffffff"
       d="m109.25984 618.6772l0 0c0 -12.176392 9.870888 -22.047241 22.047241 -22.047241l0 0c5.84729 0 11.455093 2.322815 15.589752 6.4574585c4.134674 4.1346436 6.457489 9.742493 6.457489 15.589783l0 0c0 12.176331 -9.87088 22.047241 -22.047241 22.047241l0 0c-12.176353 0 -22.047241 -9.870911 -22.047241 -22.047241z"
       fill-rule="evenodd"
       id="path79"
       style="fill:#0000ff;fill-opacity:1" />
    <path
       fill="#0000ff"
       d="m212.94489 618.6772l0 0c0 -12.176392 9.87088 -22.047241 22.047241 -22.047241l0 0c5.84729 0 11.455093 2.322815 15.589752 6.4574585c4.134659 4.1346436 6.457489 9.742493 6.457489 15.589783l0 0c0 12.176331 -9.87088 22.047241 -22.047241 22.047241l0 0c-12.176361 0 -22.047241 -9.870911 -22.047241 -22.047241z"
       fill-rule="evenodd"
       id="path80" />
    <path
       fill="#ff0000"
       d="m316.6299 618.6772l0 0c0 -12.176392 9.87088 -22.047241 22.047241 -22.047241l0 0c5.84729 0 11.455109 2.322815 15.589752 6.4574585c4.134674 4.1346436 6.457489 9.742493 6.457489 15.589783l0 0c0 12.176331 -9.87088 22.047241 -22.047241 22.047241l0 0c-12.176361 0 -22.047241 -9.870911 -22.047241 -22.047241z"
       fill-rule="evenodd"
       id="path81" />
    <path
       fill="#0000ff"
       d="m420.31497 618.6772l0 0c0 -12.176392 9.87088 -22.047241 22.047241 -22.047241l0 0c5.84729 0 11.455078 2.322815 15.589752 6.4574585c4.1346436 4.1346436 6.457489 9.742493 6.457489 15.589783l0 0c0 12.176331 -9.87088 22.047241 -22.047241 22.047241l0 0c-12.176361 0 -22.047241 -9.870911 -22.047241 -22.047241z"
       fill-rule="evenodd"
       id="path82" />
    <path
       fill="#0000ff"
       d="m162.20515 436.97855l0 0c0 -12.176361 9.870895 -22.047241 22.047241 -22.047241l0 0c5.84729 0 11.455093 2.322815 15.589767 6.457489c4.134659 4.1346436 6.4574738 9.742462 6.4574738 15.589752l0 0c0 12.176361 -9.87088 22.047241 -22.047241 22.047241l0 0c-12.176346 0 -22.047241 -9.87088 -22.047241 -22.047241z"
       fill-rule="evenodd"
       id="path83" />
    <path
       fill="#ffffff"
       d="m161.15025 559.66345l0 0c0 -12.176331 9.87088 -22.047241 22.047241 -22.047241l0 0c5.84729 0 11.455093 2.322815 15.589752 6.4575195c4.134674 4.1346436 6.457489 9.742432 6.457489 15.589722l0 0c0 12.176392 -9.87088 22.047241 -22.047241 22.047241l0 0c-12.176361 0 -22.047241 -9.87085 -22.047241 -22.047241z"
       fill-rule="evenodd"
       id="path84" />
    <path
       fill="#ff0000"
       d="m162.20494 686.1854l0 0c0 -12.176331 9.87088 -22.047241 22.047241 -22.047241l0 0c5.84729 0 11.455093 2.322876 15.589752 6.4575195c4.134659 4.1346436 6.457489 9.742432 6.457489 15.589722l0 0c0 12.176392 -9.87088 22.047302 -22.047241 22.047302l0 0c-12.176361 0 -22.047241 -9.870911 -22.047241 -22.047302z"
       fill-rule="evenodd"
       id="path85" />
    <path
       fill="#ff0000"
       d="m162.20494 782.1854l0 0c0 -12.176331 9.87088 -22.047241 22.047241 -22.047241l0 0c5.84729 0 11.455093 2.322876 15.589752 6.4575195c4.134659 4.1346436 6.457489 9.742432 6.457489 15.589722l0 0c0 12.176392 -9.87088 22.047302 -22.047241 22.047302l0 0c-12.176361 0 -22.047241 -9.870911 -22.047241 -22.047302z"
       fill-rule="evenodd"
       id="path86" />
    <path
       fill="#ff0000"
       d="m545.38605 463.66315l0 0c0 -12.176361 9.870911 -22.047241 22.047241 -22.047241l0 0c5.84729 0 11.455078 2.322815 15.589783 6.457489c4.1346436 4.1346436 6.4574585 9.742462 6.4574585 15.589752l0 0c0 12.176361 -9.870911 22.047241 -22.047241 22.047241l0 0c-12.176331 0 -22.047241 -9.87088 -22.047241 -22.047241z"
       fill-rule="evenodd"
       id="path87" />
    <path
       fill="#ff0000"
       d="m545.38605 559.66315l0 0c0 -12.176331 9.870911 -22.047241 22.047241 -22.047241l0 0c5.84729 0 11.455078 2.322815 15.589783 6.4574585c4.1346436 4.1347046 6.4574585 9.742493 6.4574585 15.589783l0 0c0 12.176331 -9.870911 22.047241 -22.047241 22.047241l0 0c-12.176331 0 -22.047241 -9.870911 -22.047241 -22.047241z"
       fill-rule="evenodd"
       id="path88" />
    <path
       fill="#ffffff"
       d="m545.3858 655.66406l0 0c0 -12.176392 9.870911 -22.047241 22.047241 -22.047241l0 0c5.84729 0 11.455139 2.322815 15.589783 6.4574585c4.1346436 4.1346436 6.4574585 9.742493 6.4574585 15.589783l0 0c0 12.176331 -9.87085 22.047241 -22.047241 22.047241l0 0c-12.176331 0 -22.047241 -9.870911 -22.047241 -22.047241z"
       fill-rule="evenodd"
       id="path89" />
    <path
       fill="#ffffff"
       d="m666.3307 655.66406l0 0c0 -12.176392 9.870911 -22.047241 22.047241 -22.047241l0 0c5.84729 0 11.455139 2.322815 15.589783 6.4574585c4.1346436 4.1346436 6.4574585 9.742493 6.4574585 15.589783l0 0c0 12.176331 -9.87085 22.047241 -22.047241 22.047241l0 0c-12.176331 0 -22.047241 -9.870911 -22.047241 -22.047241z"
       fill-rule="evenodd"
       id="path90" />
    <path
       fill="#ffffff"
       d="m787.2756 655.66406l0 0c0 -12.176392 9.870911 -22.047241 22.047241 -22.047241l0 0c5.84729 0 11.455139 2.322815 15.589783 6.4574585c4.1346436 4.1346436 6.4574585 9.742493 6.4574585 15.589783l0 0c0 12.176331 -9.87085 22.047241 -22.047241 22.047241l0 0c-12.176331 0 -22.047241 -9.870911 -22.047241 -22.047241z"
       fill-rule="evenodd"
       id="path91" />
    <path
       fill="#000000"
       fill-opacity="0.0"
       d="m589.4803 655.66406l197.79529 0"
       fill-rule="evenodd"
       id="path92" />
    <path
       stroke="#ffffff"
       stroke-width="3.0"
       stroke-linejoin="round"
       stroke-linecap="butt"
       d="m589.4803 655.66406l197.79529 0"
       fill-rule="evenodd"
       id="path93" />
    <path
       fill="#ff0000"
       d="m184.25218 935.1172l0 0c0 -12.176331 9.870895 -22.047241 22.047241 -22.047241l0 0c5.8473053 0 11.455093 2.322876 15.589767 6.4575195c4.134659 4.1346436 6.457489 9.742432 6.457489 15.589722l0 0c0 12.176392 -9.870895 22.047241 -22.047256 22.047241l0 0c-12.176346 0 -22.047241 -9.87085 -22.047241 -22.047241z"
       fill-rule="evenodd"
       id="path94" />
    <path
       fill="#0000ff"
       d="m228.34645 1011.1365l0 0c0 -12.176331 9.870895 -22.047241 22.047256 -22.047241l0 0c5.84729 0 11.455078 2.322815 15.589752 6.4575195c4.1346436 4.1346436 6.457489 9.742432 6.457489 15.589722l0 0c0 12.176392 -9.87088 22.047241 -22.047241 22.047241l0 0c-12.176361 0 -22.047256 -9.87085 -22.047256 -22.047241z"
       fill-rule="evenodd"
       id="path95" />
    <path
       fill="#ffffff"
       d="m273.03937 1091.8398l0 0c0 -12.17627 9.87088 -22.047241 22.047241 -22.047241l0 0c5.84729 0 11.455109 2.322876 15.589752 6.4575195c4.134674 4.1346436 6.457489 9.742432 6.457489 15.589722l0 0c0 12.176392 -9.87088 22.047241 -22.047241 22.047241l0 0c-12.176361 0 -22.047241 -9.87085 -22.047241 -22.047241z"
       fill-rule="evenodd"
       id="path96" />
    <path
       fill="#ffffff"
       d="m321.03937 1011.1365l0 0c0 -12.176331 9.87088 -22.047241 22.047241 -22.047241l0 0c5.84729 0 11.455109 2.322815 15.589752 6.4575195c4.134674 4.1346436 6.457489 9.742432 6.457489 15.589722l0 0c0 12.176392 -9.87088 22.047241 -22.047241 22.047241l0 0c-12.176361 0 -22.047241 -9.87085 -22.047241 -22.047241z"
       fill-rule="evenodd"
       id="path97" />
    <path
       fill="#ffffff"
       d="m365.13385 935.1181l0 0c0 -12.176331 9.870911 -22.047241 22.047241 -22.047241l0 0c5.84729 0 11.455109 2.322815 15.589752 6.4575195c4.134674 4.1346436 6.457489 9.742432 6.457489 15.589722l0 0c0 12.176392 -9.87088 22.047241 -22.047241 22.047241l0 0c-12.176331 0 -22.047241 -9.87085 -22.047241 -22.047241z"
       fill-rule="evenodd"
       id="path98" />
    <path
       fill="#ffffff"
       d="m521.19684 926.1181l0 0c0 -12.176331 9.870911 -22.047241 22.047241 -22.047241l0 0c5.84729 0 11.455139 2.322815 15.589783 6.4575195c4.1346436 4.1346436 6.4574585 9.742432 6.4574585 15.589722l0 0c0 12.176392 -9.87085 22.047241 -22.047241 22.047241l0 0c-12.176331 0 -22.047241 -9.87085 -22.047241 -22.047241z"
       fill-rule="evenodd"
       id="path99" />
    <path
       fill="#ff0000"
       d="m444.72464 982.43744l0 0c0 -12.176392 9.87088 -22.047241 22.047241 -22.047241l0 0c5.84729 0 11.455078 2.322815 15.589752 6.4574585c4.1346436 4.1346436 6.457489 9.742493 6.457489 15.589783l0 0c0 12.176331 -9.870911 22.047241 -22.047241 22.047241l0 0c-12.176361 0 -22.047241 -9.870911 -22.047241 -22.047241z"
       fill-rule="evenodd"
       id="path100" />
    <path
       fill="#ff0000"
       d="m392.75613 1062.5004l0 0c0 -12.17627 9.87088 -22.047241 22.047241 -22.047241l0 0c5.84729 0 11.455078 2.322876 15.589752 6.4575195c4.1346436 4.1346436 6.457489 9.742432 6.457489 15.589722l0 0c0 12.176392 -9.87088 22.047241 -22.047241 22.047241l0 0c-12.176361 0 -22.047241 -9.87085 -22.047241 -22.047241z"
       fill-rule="evenodd"
       id="path101" />
    <path
       fill="#0000ff"
       d="m499.7533 1018.4068l0 0c0 -12.176331 9.87088 -22.047241 22.047241 -22.047241l0 0c5.84729 0 11.455078 2.322876 15.589722 6.4575195c4.1347046 4.1346436 6.4575195 9.742432 6.4575195 15.589722l0 0c0 12.176331 -9.870911 22.047302 -22.047241 22.047302l0 0c-12.176361 0 -22.047241 -9.870972 -22.047241 -22.047302z"
       fill-rule="evenodd"
       id="path102" />
    <path
       fill="#ffffff"
       d="m444.7244 1097.6824l0 0c0 -12.17627 9.870911 -22.047241 22.047272 -22.047241l0 0c5.84729 0 11.455078 2.322876 15.589752 6.4575195c4.1346436 4.1346436 6.457489 9.742432 6.457489 15.589722l0 0c0 12.176392 -9.870911 22.047241 -22.047241 22.047241l0 0c-12.176361 0 -22.047272 -9.87085 -22.047272 -22.047241z"
       fill-rule="evenodd"
       id="path103" />
    <path
       fill="#000000"
       fill-opacity="0.0"
       d="m619.126 925.4068l94.55121 162.48822"
       fill-rule="evenodd"
       id="path104" />
    <path
       stroke="#ffffff"
       stroke-width="3.0"
       stroke-linejoin="round"
       stroke-linecap="butt"
       d="m619.126 925.4068l94.55121 162.48822"
       fill-rule="evenodd"
       id="path105" />
    <path
       fill="#ff0000"
       d="m600.2522 927.1172l0 0c0 -12.176331 9.87085 -22.047241 22.047241 -22.047241l0 0c5.84729 0 11.455078 2.322876 15.589722 6.4575195c4.1347046 4.1346436 6.4575195 9.742432 6.4575195 15.589722l0 0c0 12.176392 -9.870911 22.047241 -22.047241 22.047241l0 0c-12.176392 0 -22.047241 -9.87085 -22.047241 -22.047241z"
       fill-rule="evenodd"
       id="path106" />
    <path
       fill="#ffffff"
       d="m644.34644 1003.1365l0 0c0 -12.176331 9.870911 -22.047241 22.047241 -22.047241l0 0c5.84729 0 11.455139 2.322815 15.589783 6.4575195c4.1346436 4.1346436 6.4574585 9.742432 6.4574585 15.589722l0 0c0 12.176392 -9.87085 22.047241 -22.047241 22.047241l0 0c-12.176331 0 -22.047241 -9.87085 -22.047241 -22.047241z"
       fill-rule="evenodd"
       id="path107" />
    <path
       fill="#ff0000"
       d="m689.03937 1083.8398l0 0c0 -12.17627 9.870911 -22.047241 22.047241 -22.047241l0 0c5.84729 0 11.455078 2.322876 15.589783 6.4575195c4.1346436 4.1346436 6.4574585 9.742432 6.4574585 15.589722l0 0c0 12.176392 -9.87085 22.047241 -22.047241 22.047241l0 0c-12.176331 0 -22.047241 -9.87085 -22.047241 -22.047241z"
       fill-rule="evenodd"
       id="path108" />
    <path
       fill="#ffffff"
       d="m737.03937 1003.1365l0 0c0 -12.176331 9.870911 -22.047241 22.047241 -22.047241l0 0c5.84729 0 11.455078 2.322815 15.589783 6.4575195c4.1346436 4.1346436 6.4574585 9.742432 6.4574585 15.589722l0 0c0 12.176392 -9.87085 22.047241 -22.047241 22.047241l0 0c-12.176331 0 -22.047241 -9.87085 -22.047241 -22.047241z"
       fill-rule="evenodd"
       id="path109" />
    <path
       fill="#ff0000"
       d="m781.13385 927.1181l0 0c0 -12.176331 9.870911 -22.047241 22.047241 -22.047241l0 0c5.84729 0 11.455078 2.322815 15.589783 6.4575195c4.1346436 4.1346436 6.4574585 9.742432 6.4574585 15.589722l0 0c0 12.176392 -9.87085 22.047241 -22.047241 22.047241l0 0c-12.176331 0 -22.047241 -9.87085 -22.047241 -22.047241z"
       fill-rule="evenodd"
       id="path110" />
    <path
       fill="#ff0000"
       d="m377.67737 1235.3901l0 0c0 -12.17627 9.870911 -22.047241 22.047272 -22.047241l0 0c5.84729 0 11.455078 2.322876 15.589752 6.4575195c4.1346436 4.1346436 6.457489 9.742432 6.457489 15.589722l0 0c0 12.176392 -9.870911 22.047241 -22.047241 22.047241l0 0c-12.176361 0 -22.047272 -9.87085 -22.047272 -22.047241z"
       fill-rule="evenodd"
       id="path111" />
    <path
       fill="#0000ff"
       d="m292.9449 1235.5591l0 0c0 -12.176392 9.87088 -22.047241 22.047241 -22.047241l0 0c5.84729 0 11.455109 2.322754 15.589752 6.4573975c4.134674 4.1347656 6.457489 9.742554 6.457489 15.589844l0 0c0 12.17627 -9.87088 22.047241 -22.047241 22.047241l0 0c-12.176361 0 -22.047241 -9.870972 -22.047241 -22.047241z"
       fill-rule="evenodd"
       id="path112" />
    <path
       fill="#ffffff"
       d="m206.11023 1235.3911l0 0c0 -12.176392 9.870895 -22.047241 22.047256 -22.047241l0 0c5.84729 0 11.455093 2.322754 15.589752 6.4573975c4.134659 4.1347656 6.457489 9.742554 6.457489 15.589844l0 0c0 12.17627 -9.870895 22.047241 -22.047241 22.047241l0 0c-12.176361 0 -22.047256 -9.870972 -22.047256 -22.047241z"
       fill-rule="evenodd"
       id="path113" />
    <path
       fill="#ffffff"
       d="m292.9449 1316.0l0 0c0 -12.176392 9.87088 -22.047241 22.047241 -22.047241l0 0c5.84729 0 11.455109 2.322876 15.589752 6.4575195c4.134674 4.1346436 6.457489 9.742432 6.457489 15.589722l0 0c0 12.176392 -9.87088 22.047241 -22.047241 22.047241l0 0c-12.176361 0 -22.047241 -9.87085 -22.047241 -22.047241z"
       fill-rule="evenodd"
       id="path114" />
    <path
       fill="#ffffff"
       d="m377.67715 1388.9343l0 0c0 -12.17627 9.870911 -22.047241 22.047241 -22.047241l0 0c5.8473206 0 11.455109 2.322876 15.589783 6.4575195c4.1346436 4.1346436 6.457489 9.742432 6.457489 15.589722l0 0c0 12.176392 -9.870911 22.047241 -22.047272 22.047241l0 0c-12.176331 0 -22.047241 -9.87085 -22.047241 -22.047241z"
       fill-rule="evenodd"
       id="path115" />
    <path
       fill="#000000"
       fill-opacity="0.0"
       d="m596.874 1388.8503l127.46454 0"
       fill-rule="evenodd"
       id="path116" />
    <path
       stroke="#ffffff"
       stroke-width="3.0"
       stroke-linejoin="round"
       stroke-linecap="butt"
       d="m596.874 1388.8503l127.46454 0"
       fill-rule="evenodd"
       id="path117" />
    <path
       fill="#ff0000"
       d="m724.3467 1388.8495l0 0c0 -12.176392 9.870911 -22.047241 22.047241 -22.047241l0 0c5.84729 0 11.455078 2.322876 15.589722 6.4575195c4.1347046 4.1346436 6.4575195 9.742432 6.4575195 15.589722l0 0c0 12.176392 -9.870911 22.047241 -22.047241 22.047241l0 0c-12.176331 0 -22.047241 -9.87085 -22.047241 -22.047241z"
       fill-rule="evenodd"
       id="path118" />
    <path
       fill="#ffffff"
       d="m639.6142 1389.0184l0 0c0 -12.176392 9.87085 -22.047363 22.047241 -22.047363l0 0c5.84729 0 11.455078 2.322876 15.589722 6.4575195c4.1346436 4.1346436 6.4575195 9.742432 6.4575195 15.589844l0 0c0 12.17627 -9.870911 22.047241 -22.047241 22.047241l0 0c-12.176392 0 -22.047241 -9.870972 -22.047241 -22.047241z"
       fill-rule="evenodd"
       id="path119" />
    <path
       fill="#ff0000"
       d="m552.77954 1388.8503l0 0c0 -12.17627 9.87085 -22.047241 22.047241 -22.047241l0 0c5.84729 0 11.455078 2.322876 15.589722 6.4575195c4.1347046 4.1346436 6.4575195 9.742432 6.4575195 15.589722l0 0c0 12.176392 -9.870911 22.047241 -22.047241 22.047241l0 0c-12.176392 0 -22.047241 -9.87085 -22.047241 -22.047241z"
       fill-rule="evenodd"
       id="path120" />
    <path
       fill="#ff0000"
       d="m630.5591 1312.0499l0 0c0 -12.176392 9.87085 -22.047241 22.047241 -22.047241l0 0c5.84729 0 11.455078 2.322754 15.589722 6.4573975c4.1346436 4.1346436 6.4575195 9.742554 6.4575195 15.589844l0 0c0 12.17627 -9.870911 22.047241 -22.047241 22.047241l0 0c-12.176392 0 -22.047241 -9.870972 -22.047241 -22.047241z"
       fill-rule="evenodd"
       id="path121" />
    <path
       fill="#ffffff"
       d="m549.2428 1234.9633l0 0c0 -12.176392 9.87085 -22.047241 22.047241 -22.047241l0 0c5.84729 0 11.455078 2.322876 15.589722 6.4575195c4.1347046 4.1346436 6.4575195 9.742432 6.4575195 15.589722l0 0c0 12.176392 -9.870911 22.047241 -22.047241 22.047241l0 0c-12.176392 0 -22.047241 -9.87085 -22.047241 -22.047241z"
       fill-rule="evenodd"
       id="path122" />
    <path
       fill="#000000"
       fill-opacity="0.0"
       d="m589.27295 1548.4121l174.99213 154.45667"
       fill-rule="evenodd"
       id="path123" />
    <path
       stroke="#ffffff"
       stroke-width="3.0"
       stroke-linejoin="round"
       stroke-linecap="butt"
       d="m589.27295 1548.4121l174.99213 154.45667"
       fill-rule="evenodd"
       id="path124" />
    <path
       fill="#000000"
       fill-opacity="0.0"
       d="m245.27296 1548.4121l174.99214 154.45667"
       fill-rule="evenodd"
       id="path125" />
    <path
       stroke="#ffffff"
       stroke-width="3.0"
       stroke-linejoin="round"
       stroke-linecap="butt"
       d="m245.27296 1548.4121l174.99214 154.45667"
       fill-rule="evenodd"
       id="path126" />
    <path
       fill="#000000"
       fill-opacity="0.0"
       d="m270.83466 1548.9816l127.46457 0"
       fill-rule="evenodd"
       id="path127" />
    <path
       stroke="#ffffff"
       stroke-width="3.0"
       stroke-linejoin="round"
       stroke-linecap="butt"
       d="m270.83466 1548.9816l127.46457 0"
       fill-rule="evenodd"
       id="path128" />
    <path
       fill="#ff0000"
       d="m398.3073 1548.9807l0 0c0 -12.176392 9.87088 -22.047241 22.047241 -22.047241l0 0c5.84729 0 11.455078 2.322876 15.589752 6.4575195c4.1346436 4.1346436 6.457489 9.742432 6.457489 15.589722l0 0c0 12.176392 -9.87088 22.047241 -22.047241 22.047241l0 0c-12.176361 0 -22.047241 -9.87085 -22.047241 -22.047241z"
       fill-rule="evenodd"
       id="path129" />
    <path
       fill="#0000ff"
       d="m313.5748 1549.1497l0 0c0 -12.176392 9.87088 -22.047241 22.047241 -22.047241l0 0c5.84729 0 11.455109 2.322754 15.589752 6.4573975c4.134674 4.1346436 6.457489 9.742554 6.457489 15.589844l0 0c0 12.17627 -9.87088 22.047241 -22.047241 22.047241l0 0c-12.176361 0 -22.047241 -9.870972 -22.047241 -22.047241z"
       fill-rule="evenodd"
       id="path130" />
    <path
       fill="#ffffff"
       d="m226.74016 1548.9816l0 0c0 -12.17627 9.87088 -22.047241 22.047241 -22.047241l0 0c5.84729 0 11.455093 2.322876 15.589767 6.4575195c4.1346436 4.1346436 6.457489 9.742432 6.457489 15.589722l0 0c0 12.176392 -9.870911 22.047363 -22.047256 22.047363l0 0c-12.176361 0 -22.047241 -9.870972 -22.047241 -22.047363z"
       fill-rule="evenodd"
       id="path131" />
    <path
       fill="#ffffff"
       d="m313.5748 1629.5906l0 0c0 -12.176392 9.87088 -22.047241 22.047241 -22.047241l0 0c5.84729 0 11.455109 2.322754 15.589752 6.4575195c4.134674 4.1346436 6.457489 9.742432 6.457489 15.589722l0 0c0 12.176392 -9.87088 22.047241 -22.047241 22.047241l0 0c-12.176361 0 -22.047241 -9.87085 -22.047241 -22.047241z"
       fill-rule="evenodd"
       id="path132" />
    <path
       fill="#ffffff"
       d="m398.3071 1702.5249l0 0c0 -12.17627 9.87088 -22.047241 22.047241 -22.047241l0 0c5.84729 0 11.455078 2.322876 15.589752 6.4575195c4.1346436 4.1346436 6.457489 9.742432 6.457489 15.589722l0 0c0 12.176392 -9.87088 22.047241 -22.047241 22.047241l0 0c-12.176361 0 -22.047241 -9.87085 -22.047241 -22.047241z"
       fill-rule="evenodd"
       id="path133" />
    <path
       fill="#000000"
       fill-opacity="0.0"
       d="m617.50397 1702.4409l127.46454 0"
       fill-rule="evenodd"
       id="path134" />
    <path
       stroke="#ffffff"
       stroke-width="3.0"
       stroke-linejoin="round"
       stroke-linecap="butt"
       d="m617.50397 1702.4409l127.46454 0"
       fill-rule="evenodd"
       id="path135" />
    <path
       fill="#ff0000"
       d="m744.9766 1702.4401l0 0c0 -12.176392 9.87085 -22.047241 22.047241 -22.047241l0 0c5.84729 0 11.455078 2.322754 15.589722 6.4575195c4.1346436 4.1346436 6.4575195 9.742432 6.4575195 15.589722l0 0c0 12.176392 -9.870911 22.047241 -22.047241 22.047241l0 0c-12.176392 0 -22.047241 -9.87085 -22.047241 -22.047241z"
       fill-rule="evenodd"
       id="path136" />
    <path
       fill="#ffffff"
       d="m660.2441 1702.6089l0 0c0 -12.17627 9.870911 -22.047241 22.047241 -22.047241l0 0c5.84729 0 11.455139 2.322876 15.589783 6.4575195c4.1346436 4.1346436 6.4574585 9.742432 6.4574585 15.589722l0 0c0 12.176392 -9.87085 22.047241 -22.047241 22.047241l0 0c-12.176331 0 -22.047241 -9.87085 -22.047241 -22.047241z"
       fill-rule="evenodd"
       id="path137" />
    <path
       fill="#ff0000"
       d="m573.4094 1702.4409l0 0c0 -12.17627 9.870911 -22.047241 22.047241 -22.047241l0 0c5.847351 0 11.455139 2.322876 15.589783 6.4575195c4.1346436 4.1346436 6.4575195 9.742432 6.4575195 15.589722l0 0c0 12.176392 -9.870911 22.047241 -22.047302 22.047241l0 0c-12.176331 0 -22.047241 -9.87085 -22.047241 -22.047241z"
       fill-rule="evenodd"
       id="path138" />
    <path
       fill="#ff0000"
       d="m651.18896 1625.6404l0 0c0 -12.17627 9.870911 -22.047241 22.047241 -22.047241l0 0c5.84729 0 11.455139 2.322876 15.589783 6.4575195c4.1346436 4.1346436 6.4574585 9.742432 6.4574585 15.589722l0 0c0 12.176392 -9.87085 22.047241 -22.047241 22.047241l0 0c-12.176331 0 -22.047241 -9.87085 -22.047241 -22.047241z"
       fill-rule="evenodd"
       id="path139" />
    <path
       fill="#ffffff"
       d="m569.8727 1548.5538l0 0c0 -12.176392 9.870911 -22.047241 22.047241 -22.047241l0 0c5.84729 0 11.455139 2.322754 15.589783 6.4573975c4.1346436 4.1347656 6.4574585 9.742554 6.4574585 15.589844l0 0c0 12.17627 -9.87085 22.047241 -22.047241 22.047241l0 0c-12.176331 0 -22.047241 -9.870972 -22.047241 -22.047241z"
       fill-rule="evenodd"
       id="path140" />
    <path
       fill="#000000"
       fill-opacity="0.0"
       d="m-2.1732283 367.39108l969.57477 0"
       fill-rule="evenodd"
       id="path141" />
    <path
       stroke="#ffffff"
       stroke-width="8.0"
       stroke-linejoin="round"
       stroke-linecap="butt"
       d="m-2.1732283 367.39108l969.57477 0"
       fill-rule="evenodd"
       id="path142" />
    <path
       fill="#000000"
       fill-opacity="0.0"
       d="m-2.1732283 847.39105l969.57477 0"
       fill-rule="evenodd"
       id="path143" />
    <path
       stroke="#ffffff"
       stroke-width="8.0"
       stroke-linejoin="round"
       stroke-linecap="butt"
       d="m-2.1732283 847.39105l969.57477 0"
       fill-rule="evenodd"
       id="path144" />
    <path
       fill="#000000"
       fill-opacity="0.0"
       d="m-2.1732283 1167.3911l969.57477 0"
       fill-rule="evenodd"
       id="path145" />
    <path
       stroke="#ffffff"
       stroke-width="8.0"
       stroke-linejoin="round"
       stroke-linecap="butt"
       d="m-2.1732283 1167.3911l969.57477 0"
       fill-rule="evenodd"
       id="path146" />
    <path
       fill="#000000"
       fill-opacity="0.0"
       d="m-2.1732283 1471.3911l969.57477 0"
       fill-rule="evenodd"
       id="path147" />
    <path
       stroke="#ffffff"
       stroke-width="8.0"
       stroke-linejoin="round"
       stroke-linecap="butt"
       d="m-2.1732283 1471.3911l969.57477 0"
       fill-rule="evenodd"
       id="path148" />
  </g>
</svg>
