<?xml version="1.0" encoding="UTF-8" standalone="no"?>
<!-- Created with Inkscape (http://www.inkscape.org/) -->

<svg
   width="170.08032mm"
   height="214.54671mm"
   viewBox="0 0 170.08032 214.54671"
   version="1.1"
   id="svg1"
   xmlns:inkscape="http://www.inkscape.org/namespaces/inkscape"
   xmlns:sodipodi="http://sodipodi.sourceforge.net/DTD/sodipodi-0.dtd"
   xmlns="http://www.w3.org/2000/svg"
   xmlns:svg="http://www.w3.org/2000/svg">
  <sodipodi:namedview
     id="namedview1"
     pagecolor="#ffffff"
     bordercolor="#000000"
     borderopacity="0.25"
     inkscape:showpageshadow="2"
     inkscape:pageopacity="0.0"
     inkscape:pagecheckerboard="0"
     inkscape:deskcolor="#d1d1d1"
     inkscape:document-units="mm">
    <inkscape:page
       x="0"
       y="0"
       width="170.08032"
       height="214.54671"
       id="page2"
       margin="0"
       bleed="0" />
  </sodipodi:namedview>
  <defs
     id="defs1" />
  <g
     inkscape:label="Layer 1"
     inkscape:groupmode="layer"
     id="layer1"
     transform="translate(-17.727082,-41.274995)">
    <path
       fill="#000000"
       fill-opacity="0"
       d="M 22.630557,46.957875 68.930552,87.824543"
       fill-rule="evenodd"
       id="path5-9"
       style="stroke-width:0.264583" />
    <path
       stroke="#ffffff"
       stroke-width="0.79375"
       stroke-linejoin="round"
       stroke-linecap="butt"
       d="M 22.630557,46.957875 68.930552,87.824543"
       fill-rule="evenodd"
       id="path77" />
    <path
       stroke="#ffffff"
       stroke-width="0.79375"
       stroke-linejoin="round"
       stroke-linecap="butt"
       d="M 67.839723,87.269381 135.61407,209.88929"
       fill-rule="evenodd"
       id="path6-6"
       sodipodi:nodetypes="cc" />
    <path
       fill="#000000"
       fill-opacity="0"
       d="M 29.393751,47.108581 H 63.118746"
       fill-rule="evenodd"
       id="path7-1"
       style="stroke-width:0.264583" />
    <path
       stroke="#ffffff"
       stroke-width="4.8867"
       stroke-linejoin="round"
       stroke-linecap="butt"
       d="M 29.393751,47.108581 H 118.87672"
       fill-rule="evenodd"
       id="path8-7"
       style="stroke-width:0.79375;stroke-dasharray:none" />
    <path
       fill="#ff0000"
       d="m 63.120887,47.108317 v 0 c 0,-3.221646 2.611678,-5.833322 5.83334,-5.833322 v 0 c 1.547096,0 3.030823,0.614574 4.124788,1.708547 1.093959,1.093946 1.708544,2.577677 1.708544,4.124775 v 0 c 0,3.221672 -2.611678,5.833321 -5.833332,5.833321 v 0 c -3.221662,0 -5.83334,-2.611649 -5.83334,-5.833321 z"
       fill-rule="evenodd"
       id="path70"
       style="stroke-width:0.264583" />
    <path
       fill="#ff0000"
       d="m 74.7737,111.05023 v 0 c 0,-3.22165 2.611679,-5.83333 5.83334,-5.83333 v 0 c 1.547096,0 3.030824,0.61458 4.124788,1.70855 1.09396,1.09395 1.708545,2.57768 1.708545,4.12478 v 0 c 0,3.22167 -2.611679,5.83332 -5.833333,5.83332 v 0 c -3.221661,0 -5.83334,-2.61165 -5.83334,-5.83332 z"
       fill-rule="evenodd"
       id="path71"
       style="stroke-width:0.264583" />
    <path
       fill="#ff0000"
       d="m 90.685588,137.45396 v 0 c 0,-3.22164 2.611679,-5.83332 5.83334,-5.83332 v 0 c 1.547096,0 3.030824,0.61457 4.124792,1.70855 1.09396,1.09394 1.70854,2.57767 1.70854,4.12477 v 0 c 0,3.22167 -2.611678,5.83332 -5.833332,5.83332 v 0 c -3.221661,0 -5.83334,-2.61165 -5.83334,-5.83332 z"
       fill-rule="evenodd"
       id="path111-3"
       style="stroke-width:0.264583" />
    <path
       fill="#0000ff"
       d="m 40.702088,47.153031 v 0 c 0,-3.221672 2.61167,-5.833321 5.833332,-5.833321 v 0 c 1.547096,0 3.030831,0.614547 4.124788,1.70852 1.093967,1.093973 1.708544,2.577703 1.708544,4.124801 v 0 c 0,3.221646 -2.61167,5.833322 -5.833332,5.833322 v 0 c -3.221662,0 -5.833332,-2.611676 -5.833332,-5.833322 z"
       fill-rule="evenodd"
       id="path68"
       style="stroke-width:0.264583" />
    <path
       fill="#0000ff"
       d="m 85.522679,47.153031 v 0 c 0,-3.221672 2.61167,-5.833321 5.833332,-5.833321 v 0 c 1.547095,0 3.030831,0.614547 4.124788,1.70852 1.093967,1.093973 1.708544,2.577703 1.708544,4.124801 v 0 c 0,3.221646 -2.61167,5.833322 -5.833332,5.833322 v 0 c -3.221662,0 -5.833332,-2.611676 -5.833332,-5.833322 z"
       fill-rule="evenodd"
       id="path69"
       style="stroke-width:0.264583" />
    <path
       fill="#0000ff"
       d="m 113.77914,47.153031 v 0 c 0,-3.221672 2.61167,-5.833321 5.83333,-5.833321 v 0 c 1.54709,0 3.03083,0.614547 4.12479,1.70852 1.09396,1.093973 1.70854,2.577703 1.70854,4.124801 v 0 c 0,3.221646 -2.61167,5.833322 -5.83333,5.833322 v 0 c -3.22166,0 -5.83333,-2.611676 -5.83333,-5.833322 z"
       fill-rule="evenodd"
       id="path76"
       style="stroke-width:0.264583" />
    <path
       fill="#0000ff"
       d="m 115.44837,184.79484 v 0 c 0,-3.22168 2.61167,-5.83332 5.83334,-5.83332 v 0 c 1.54709,0 3.03083,0.61455 4.12478,1.70851 1.09397,1.09398 1.70855,2.57771 1.70855,4.12481 v 0 c 0,3.22162 -2.61167,5.83329 -5.83333,5.83329 v 0 c -3.22167,0 -5.83334,-2.61167 -5.83334,-5.83329 z"
       fill-rule="evenodd"
       id="path112-9"
       style="stroke-width:0.264583" />
    <path
       fill="#ffffff"
       d="m 17.727082,47.108581 v 0 c 0,-3.221672 2.611673,-5.833321 5.833337,-5.833321 v 0 c 1.547096,0 3.030826,0.614547 4.124788,1.70852 1.093962,1.093973 1.708544,2.577703 1.708544,4.124801 v 0 c 0,3.221646 -2.611675,5.833322 -5.833332,5.833322 v 0 c -3.221662,0 -5.833337,-2.611676 -5.833337,-5.833322 z"
       fill-rule="evenodd"
       id="path113-8"
       style="stroke-width:0.264583" />
    <path
       fill="#ffffff"
       d="m 40.702088,68.436352 v 0 c 0,-3.221672 2.61167,-5.833321 5.833332,-5.833321 v 0 c 1.547096,0 3.030831,0.614574 4.124788,1.708547 1.093967,1.093946 1.708544,2.577676 1.708544,4.124774 v 0 c 0,3.221673 -2.61167,5.833322 -5.833332,5.833322 v 0 c -3.221662,0 -5.833332,-2.611649 -5.833332,-5.833322 z"
       fill-rule="evenodd"
       id="path114-4"
       style="stroke-width:0.264583" />
    <path
       fill="#ffffff"
       d="m 63.120829,87.733552 v 0 c 0,-3.221646 2.611678,-5.833321 5.833332,-5.833321 v 0 c 1.547103,0 3.030831,0.614574 4.124796,1.708547 1.093959,1.093946 1.708544,2.577676 1.708544,4.124774 v 0 c 0,3.221673 -2.611678,5.833322 -5.83334,5.833322 v 0 c -3.221654,0 -5.833332,-2.611649 -5.833332,-5.833322 z"
       fill-rule="evenodd"
       id="path115-0"
       style="stroke-width:0.264583" />
    <path
       fill="#000000"
       fill-opacity="0"
       d="m 134.94416,208.70327 46.3,40.86667"
       fill-rule="evenodd"
       id="path3-9"
       style="stroke-width:0.264583" />
    <path
       stroke="#ffffff"
       stroke-width="0.79375"
       stroke-linejoin="round"
       stroke-linecap="butt"
       d="m 134.94416,208.70327 46.3,40.86667"
       fill-rule="evenodd"
       id="path4-7" />
    <path
       fill="#000000"
       fill-opacity="0"
       d="m 142.4136,249.45673 h 33.72499"
       fill-rule="evenodd"
       id="path116-4"
       style="stroke-width:0.264583" />
    <path
       stroke="#ffffff"
       stroke-width="5.91943"
       stroke-linejoin="round"
       stroke-linecap="butt"
       d="M 44.837144,249.45673 H 176.13859"
       fill-rule="evenodd"
       id="path117-9"
       style="stroke-width:0.79375;stroke-dasharray:none" />
    <path
       fill="#ff0000"
       d="m 176.14075,249.45651 v 0 c 0,-3.22167 2.61167,-5.83332 5.83333,-5.83332 v 0 c 1.54709,0 3.03082,0.61458 4.12478,1.70855 1.09397,1.09395 1.70855,2.57768 1.70855,4.12477 v 0 c 0,3.22168 -2.61168,5.83333 -5.83333,5.83333 v 0 c -3.22166,0 -5.83333,-2.61165 -5.83333,-5.83333 z"
       fill-rule="evenodd"
       id="path118-4"
       style="stroke-width:0.264583" />
    <path
       fill="#ffffff"
       d="m 153.72194,249.5012 v 0 c 0,-3.22167 2.61166,-5.83337 5.83333,-5.83337 v 0 c 1.5471,0 3.03083,0.6146 4.12478,1.70857 1.09396,1.09395 1.70855,2.57768 1.70855,4.1248 v 0 c 0,3.22165 -2.61167,5.83332 -5.83333,5.83332 v 0 c -3.22167,0 -5.83333,-2.61167 -5.83333,-5.83332 z"
       fill-rule="evenodd"
       id="path72"
       style="stroke-width:0.264583" />
    <path
       fill="#ffffff"
       d="m 102.08082,249.5012 v 0 c 0,-3.22167 2.61167,-5.83337 5.83334,-5.83337 v 0 c 1.54709,0 3.03082,0.6146 4.12478,1.70857 1.09396,1.09395 1.70855,2.57768 1.70855,4.1248 v 0 c 0,3.22165 -2.61168,5.83332 -5.83333,5.83332 v 0 c -3.22167,0 -5.83334,-2.61167 -5.83334,-5.83332 z"
       fill-rule="evenodd"
       id="path73"
       style="stroke-width:0.264583" />
    <path
       fill="#ffffff"
       d="m 38.747383,249.98838 v 0 c 0,-3.22167 2.611663,-5.83337 5.833332,-5.83337 v 0 c 1.547096,0 3.030824,0.6146 4.12478,1.70857 1.09396,1.09394 1.708553,2.57768 1.708553,4.1248 v 0 c 0,3.22165 -2.611679,5.83332 -5.833333,5.83332 v 0 c -3.221669,0 -5.833332,-2.61167 -5.833332,-5.83332 z"
       fill-rule="evenodd"
       id="path119-1"
       style="stroke-width:0.264583" />
    <path
       fill="#ff0000"
       d="m 130.74694,249.45673 v 0 c 0,-3.22165 2.61166,-5.83333 5.83333,-5.83333 v 0 c 1.54709,0 3.03082,0.61458 4.12478,1.70855 1.09397,1.09395 1.70855,2.57768 1.70855,4.12478 v 0 c 0,3.22167 -2.61168,5.83332 -5.83333,5.83332 v 0 c -3.22167,0 -5.83333,-2.61165 -5.83333,-5.83332 z"
       fill-rule="evenodd"
       id="path74"
       style="stroke-width:0.264583" />
    <path
       fill="#ff0000"
       d="m 71.798117,249.9439 v 0 c 0,-3.22164 2.611662,-5.83332 5.833332,-5.83332 v 0 c 1.547095,0 3.030823,0.61458 4.12478,1.70855 1.093975,1.09394 1.708552,2.57768 1.708552,4.12477 v 0 c 0,3.22168 -2.611678,5.83333 -5.833332,5.83333 v 0 c -3.22167,0 -5.833332,-2.61165 -5.833332,-5.83333 z"
       fill-rule="evenodd"
       id="path120-9"
       style="stroke-width:0.264583" />
    <path
       fill="#ff0000"
       d="m 151.32611,229.13662 v 0 c 0,-3.22167 2.61166,-5.83332 5.83333,-5.83332 v 0 c 1.5471,0 3.03083,0.61455 4.12478,1.70852 1.09396,1.09395 1.70856,2.5777 1.70856,4.1248 v 0 c 0,3.22165 -2.61168,5.83332 -5.83334,5.83332 v 0 c -3.22167,0 -5.83333,-2.61167 -5.83333,-5.83332 z"
       fill-rule="evenodd"
       id="path121-6"
       style="stroke-width:0.264583" />
    <path
       fill="#ffffff"
       d="m 129.81117,208.74079 v 0 c 0,-3.22167 2.61167,-5.83332 5.83334,-5.83332 v 0 c 1.54709,0 3.03082,0.61457 4.12478,1.70855 1.09397,1.09394 1.70855,2.57767 1.70855,4.12477 v 0 c 0,3.22167 -2.61168,5.83332 -5.83333,5.83332 v 0 c -3.22167,0 -5.83334,-2.61165 -5.83334,-5.83332 z"
       fill-rule="evenodd"
       id="path75"
       style="stroke-width:0.264583" />
    <path
       fill="#ffffff"
       d="m 103.42453,162.49561 v 0 c 0,-3.22168 2.61166,-5.83332 5.83333,-5.83332 v 0 c 1.54709,0 3.03082,0.61457 4.12478,1.70854 1.09397,1.09395 1.70855,2.57768 1.70855,4.12478 v 0 c 0,3.22167 -2.61168,5.83332 -5.83333,5.83332 v 0 c -3.22167,0 -5.83333,-2.61165 -5.83333,-5.83332 z"
       fill-rule="evenodd"
       id="path122-7"
       style="stroke-width:0.264583" />
  </g>
</svg>
