<?xml version="1.0" encoding="UTF-8" standalone="no"?>
<!-- Created with Inkscape (http://www.inkscape.org/) -->

<svg
   width="159.91989mm"
   height="189.05898mm"
   viewBox="0 0 159.91989 189.05898"
   version="1.1"
   id="svg1"
   xmlns:inkscape="http://www.inkscape.org/namespaces/inkscape"
   xmlns:sodipodi="http://sodipodi.sourceforge.net/DTD/sodipodi-0.dtd"
   xmlns="http://www.w3.org/2000/svg"
   xmlns:svg="http://www.w3.org/2000/svg">
  <sodipodi:namedview
     id="namedview1"
     pagecolor="#db7c7c"
     bordercolor="#000000"
     borderopacity="0.25"
     inkscape:showpageshadow="2"
     inkscape:pageopacity="0.0"
     inkscape:pagecheckerboard="0"
     inkscape:deskcolor="#d1d1d1"
     inkscape:document-units="mm">
    <inkscape:page
       x="0"
       y="0"
       width="159.91989"
       height="189.05899"
       id="page2"
       margin="0"
       bleed="0" />
  </sodipodi:namedview>
  <defs
     id="defs1" />
  <g
     inkscape:label="Layer 1"
     inkscape:groupmode="layer"
     id="layer1"
     transform="translate(-22.754166,-53.974998)">
    <path
       fill="#000000"
       fill-opacity="0"
       d="m 130.47188,114.77514 -25.00834,42.16667"
       fill-rule="evenodd"
       id="path9"
       style="stroke-width:0.264583" />
    <path
       stroke="#ffffff"
       stroke-width="4.19069"
       stroke-linejoin="round"
       stroke-linecap="butt"
       d="m 140.53312,97.95891 -34.93409,58.90255"
       fill-rule="evenodd"
       id="path10"
       style="stroke-width:0.79375;stroke-dasharray:none" />
    <path
       stroke="#ffffff"
       stroke-width="0.79375"
       stroke-linejoin="round"
       stroke-linecap="butt"
       d="M 170.81503,84.474296 64.643999,238.82335"
       fill-rule="evenodd"
       id="path14"
       sodipodi:nodetypes="cc" />
    <path
       stroke="#ffffff"
       stroke-width="0.79375"
       stroke-linejoin="round"
       stroke-linecap="butt"
       d="M 158.39057,76.401933 142.29351,96.672196"
       fill-rule="evenodd"
       id="path16"
       sodipodi:nodetypes="cc" />
    <path
       stroke="#ffffff"
       stroke-width="0.79375"
       stroke-linejoin="round"
       stroke-linecap="butt"
       d="m 176.3956,59.66945 -5.37501,24.808312"
       fill-rule="evenodd"
       id="path18" />
    <path
       stroke="#ffffff"
       stroke-width="0.79375"
       stroke-linejoin="round"
       stroke-linecap="butt"
       d="M 176.80948,59.66945 158.55497,76.949609"
       fill-rule="evenodd"
       id="path20"
       sodipodi:nodetypes="cc" />
    <path
       fill="#000000"
       fill-opacity="0"
       d="M 81.276043,114.77514 106.2927,157.76681"
       fill-rule="evenodd"
       id="path21"
       style="stroke-width:0.264583" />
    <path
       stroke="#ffffff"
       stroke-width="5.96749"
       stroke-linejoin="round"
       stroke-linecap="butt"
       d="M 56.191186,72.051944 105.95339,157.56937"
       fill-rule="evenodd"
       id="path68"
       style="stroke-width:0.79375;stroke-dasharray:none" />
    <path
       stroke="#ffffff"
       stroke-width="5.96749"
       stroke-linejoin="round"
       stroke-linecap="butt"
       d="m 28.082282,201.78533 36.78887,37.58814"
       fill-rule="evenodd"
       id="path22"
       style="stroke-width:0.79375;stroke-dasharray:none"
       sodipodi:nodetypes="cc" />
    <path
       fill="#ff0000"
       d="m 76.282348,115.22768 v 0 c 0,-3.22165 2.611673,-5.83333 5.833332,-5.83333 v 0 c 1.547101,0 3.030826,0.61459 4.124793,1.70855 1.093962,1.09396 1.708544,2.57769 1.708544,4.12478 v 0 c 0,3.22167 -2.611675,5.83334 -5.833337,5.83334 v 0 c -3.221659,0 -5.833332,-2.61167 -5.833332,-5.83334 z"
       fill-rule="evenodd"
       id="path94"
       style="stroke-width:0.264583" />
    <path
       fill="#0000ff"
       d="m 87.948956,135.34112 v 0 c 0,-3.22165 2.611673,-5.83333 5.833338,-5.83333 v 0 c 1.547095,0 3.030821,0.61458 4.124788,1.70855 1.093957,1.09396 1.708544,2.57769 1.708544,4.12478 v 0 c 0,3.22168 -2.61167,5.83333 -5.833332,5.83333 v 0 c -3.221662,0 -5.833338,-2.61165 -5.833338,-5.83333 z"
       fill-rule="evenodd"
       id="path95"
       style="stroke-width:0.264583" />
    <path
       fill="#ffffff"
       d="m 99.773958,156.69387 v 0 c 0,-3.22164 2.611672,-5.83332 5.833332,-5.83332 v 0 c 1.5471,0 3.03083,0.61457 4.12479,1.70855 1.09397,1.09394 1.70854,2.57767 1.70854,4.12477 v 0 c 0,3.22167 -2.61167,5.83332 -5.83333,5.83332 v 0 c -3.22166,0 -5.833332,-2.61165 -5.833332,-5.83332 z"
       fill-rule="evenodd"
       id="path96"
       style="stroke-width:0.264583" />
    <path
       fill="#ffffff"
       d="m 112.47396,135.34112 v 0 c 0,-3.22165 2.61167,-5.83333 5.83333,-5.83333 v 0 c 1.5471,0 3.03083,0.61458 4.12479,1.70855 1.09397,1.09396 1.70854,2.57769 1.70854,4.12478 v 0 c 0,3.22168 -2.61167,5.83333 -5.83333,5.83333 v 0 c -3.22166,0 -5.83333,-2.61165 -5.83333,-5.83333 z"
       fill-rule="evenodd"
       id="path97"
       style="stroke-width:0.264583" />
    <path
       fill="#ffffff"
       d="m 124.14062,115.22792 v 0 c 0,-3.22165 2.61168,-5.83333 5.83333,-5.83333 v 0 c 1.5471,0 3.03084,0.61458 4.12479,1.70855 1.09397,1.09396 1.70855,2.57769 1.70855,4.12478 v 0 c 0,3.22167 -2.61167,5.83333 -5.83334,5.83333 v 0 c -3.22165,0 -5.83333,-2.61166 -5.83333,-5.83333 z"
       fill-rule="evenodd"
       id="path98"
       style="stroke-width:0.264583" />
    <path
       fill="#ffffff"
       d="m 171.00739,59.80833 v 0 c 0,-3.221654 2.61168,-5.833332 5.83334,-5.833332 v 0 c 1.54709,0 3.03084,0.614576 4.12479,1.708552 1.09396,1.093956 1.70854,2.577684 1.70854,4.12478 v 0 c 0,3.22167 -2.61166,5.833332 -5.83333,5.833332 v 0 c -3.22166,0 -5.83334,-2.611662 -5.83334,-5.833332 z"
       fill-rule="evenodd"
       id="path99"
       style="stroke-width:0.264583" />
    <path
       fill="#ff0000"
       d="m 152.7543,77.113984 v 0 c 0,-3.221669 2.61167,-5.833332 5.83333,-5.833332 v 0 c 1.5471,0 3.03082,0.614577 4.12479,1.708537 1.09396,1.093956 1.70854,2.5777 1.70854,4.124795 v 0 c 0,3.221654 -2.61168,5.833338 -5.83333,5.833338 v 0 c -3.22166,0 -5.83333,-2.611684 -5.83333,-5.833338 z"
       fill-rule="evenodd"
       id="path100"
       style="stroke-width:0.264583" />
    <path
       fill="#ff0000"
       d="m 137.02412,95.892813 v 0 c 0,-3.221646 2.61167,-5.833322 5.83334,-5.833322 v 0 c 1.54709,0 3.03082,0.614574 4.12478,1.708547 1.09396,1.093946 1.70855,2.577677 1.70855,4.124775 v 0 c 0,3.221672 -2.61167,5.833317 -5.83333,5.833317 v 0 c -3.22167,0 -5.83334,-2.611645 -5.83334,-5.833317 z"
       fill-rule="evenodd"
       id="path101"
       style="stroke-width:0.264583" />
    <path
       fill="#0000ff"
       d="m 165.33379,84.226381 v 0 c 0,-3.221646 2.61167,-5.833332 5.83333,-5.833332 v 0 c 1.5471,0 3.03083,0.614593 4.12478,1.708558 1.09398,1.093946 1.70856,2.577676 1.70856,4.124774 v 0 c 0,3.221646 -2.61168,5.833348 -5.83334,5.833348 v 0 c -3.22166,0 -5.83333,-2.611702 -5.83333,-5.833348 z"
       fill-rule="evenodd"
       id="path49"
       style="stroke-width:0.264583" />
    <path
       fill="#0000ff"
       d="m 65.644672,96.22923 v 0 c 0,-3.221646 2.61167,-5.833332 5.833332,-5.833332 v 0 c 1.547095,0 3.030823,0.614593 4.12478,1.708558 1.093975,1.093946 1.708552,2.577676 1.708552,4.124774 v 0 c 0,3.221646 -2.611678,5.83335 -5.833332,5.83335 v 0 c -3.221662,0 -5.833332,-2.611704 -5.833332,-5.83335 z"
       fill-rule="evenodd"
       id="path50"
       style="stroke-width:0.264583" />
    <path
       fill="#0000ff"
       d="m 53.719017,75.443681 v 0 c 0,-3.221646 2.611671,-5.833333 5.833333,-5.833333 v 0 c 1.547095,0 3.030823,0.614593 4.12478,1.708558 1.093975,1.093946 1.708552,2.577676 1.708552,4.124775 v 0 c 0,3.221646 -2.611679,5.833348 -5.833332,5.833348 v 0 c -3.221662,0 -5.833333,-2.611702 -5.833333,-5.833348 z"
       fill-rule="evenodd"
       id="path102"
       style="stroke-width:0.264583" />
    <path
       fill="#ffffff"
       d="m 150.77406,105.20138 v 0 c 0,-3.22164 2.61168,-5.833318 5.83334,-5.833318 v 0 c 1.5471,0 3.03083,0.614574 4.12479,1.708548 1.09396,1.09395 1.70854,2.57768 1.70854,4.12477 v 0 c 0,3.22168 -2.61167,5.83333 -5.83333,5.83333 v 0 c -3.22166,0 -5.83334,-2.61165 -5.83334,-5.83333 z"
       fill-rule="evenodd"
       id="path62"
       style="stroke-width:0.264583" />
    <path
       fill="#ffffff"
       d="m 109.80246,166.00913 v 0 c 0,-3.22165 2.61168,-5.83333 5.83334,-5.83333 v 0 c 1.5471,0 3.03083,0.61458 4.12479,1.70855 1.09396,1.09395 1.70854,2.57768 1.70854,4.12478 v 0 c 0,3.22167 -2.61167,5.83332 -5.83333,5.83332 v 0 c -3.22166,0 -5.83334,-2.61165 -5.83334,-5.83332 z"
       fill-rule="evenodd"
       id="path64"
       style="stroke-width:0.264583" />
    <path
       fill="#ffffff"
       d="m 79.031189,210.73016 v 0 c 0,-3.22165 2.611678,-5.83333 5.83334,-5.83333 v 0 c 1.547095,0 3.030823,0.61458 4.124788,1.70855 1.093959,1.09395 1.708544,2.57768 1.708544,4.12478 v 0 c 0,3.22167 -2.611678,5.83332 -5.833332,5.83332 v 0 c -3.221662,0 -5.83334,-2.61165 -5.83334,-5.83332 z"
       fill-rule="evenodd"
       id="path66"
       style="stroke-width:0.264583" />
    <path
       fill="#ffffff"
       d="m 38.988655,220.32368 v 0 c 0,-3.22164 2.611679,-5.83332 5.83334,-5.83332 v 0 c 1.547096,0 3.030824,0.61458 4.124788,1.70855 1.09396,1.09394 1.708545,2.57768 1.708545,4.12477 v 0 c 0,3.22168 -2.611679,5.83332 -5.833333,5.83332 v 0 c -3.221661,0 -5.83334,-2.61164 -5.83334,-5.83332 z"
       fill-rule="evenodd"
       id="path103"
       style="stroke-width:0.264583" />
    <path
       fill="#ff0000"
       d="m 139.96086,122.5688 v 0 c 0,-3.22165 2.61168,-5.83332 5.83333,-5.83332 v 0 c 1.5471,0 3.03082,0.61457 4.1248,1.70854 1.09396,1.09395 1.70853,2.57768 1.70853,4.12478 v 0 c 0,3.22167 -2.61166,5.83332 -5.83333,5.83332 v 0 c -3.22165,0 -5.83333,-2.61165 -5.83333,-5.83332 z"
       fill-rule="evenodd"
       id="path61"
       style="stroke-width:0.264583" />
    <path
       fill="#ff0000"
       d="m 125.43287,142.4815 v 0 c 0,-3.22165 2.61168,-5.83332 5.83333,-5.83332 v 0 c 1.5471,0 3.03083,0.61457 4.1248,1.70854 1.09396,1.09395 1.70854,2.57768 1.70854,4.12478 v 0 c 0,3.22167 -2.61167,5.83332 -5.83334,5.83332 v 0 c -3.22165,0 -5.83333,-2.61165 -5.83333,-5.83332 z"
       fill-rule="evenodd"
       id="path65"
       style="stroke-width:0.264583" />
    <path
       fill="#ff0000"
       d="m 60.017262,237.20066 v 0 c 0,-3.22165 2.611678,-5.83332 5.833332,-5.83332 v 0 c 1.547096,0 3.030824,0.61457 4.124796,1.70855 1.09396,1.09394 1.708536,2.57767 1.708536,4.12477 v 0 c 0,3.22167 -2.611662,5.83332 -5.833332,5.83332 v 0 c -3.221654,0 -5.833332,-2.61165 -5.833332,-5.83332 z"
       fill-rule="evenodd"
       id="path63"
       style="stroke-width:0.264583" />
    <path
       fill="#ff0000"
       d="m 95.629805,185.80326 v 0 c 0,-3.22165 2.611679,-5.83332 5.833335,-5.83332 v 0 c 1.54709,0 3.03082,0.61457 4.12479,1.70855 1.09396,1.09394 1.70854,2.57767 1.70854,4.12477 v 0 c 0,3.22167 -2.61166,5.83332 -5.83333,5.83332 v 0 c -3.221656,0 -5.833335,-2.61165 -5.833335,-5.83332 z"
       fill-rule="evenodd"
       id="path67"
       style="stroke-width:0.264583" />
    <path
       fill="#ff0000"
       d="m 22.754166,201.58422 v 0 c 0,-3.22164 2.611678,-5.83331 5.833332,-5.83331 v 0 c 1.547096,0 3.030824,0.61458 4.124796,1.70854 1.09396,1.09395 1.708536,2.57768 1.708536,4.12477 v 0 c 0,3.22168 -2.611662,5.83333 -5.833332,5.83333 v 0 c -3.221654,0 -5.833332,-2.61165 -5.833332,-5.83333 z"
       fill-rule="evenodd"
       id="path108"
       style="stroke-width:0.264583" />
  </g>
</svg>
