<svg version="1.1" viewBox="0.0 0.0 497.249343832021 476.34645669291336" fill="none" stroke="none" stroke-linecap="square" stroke-miterlimit="10" xmlns:xlink="http://www.w3.org/1999/xlink" xmlns="http://www.w3.org/2000/svg"><clipPath id="p.0"><path d="m0 0l497.24933 0l0 476.34647l-497.24933 0l0 -476.34647z" clip-rule="nonzero"/></clipPath><g clip-path="url(#p.0)"><path fill="#ffffff" d="m0 0l497.24933 0l0 476.34647l-497.24933 0z" fill-rule="evenodd"/><path fill="#000000" fill-opacity="0.0" d="m154.57349 271.45276l47.65355 0l0 42.015747l-47.65355 0z" fill-rule="evenodd"/><path fill="#000000" d="m164.24536 294.029l2.625 -0.25q0.234375 1.3125 0.953125 1.9375q0.734375 0.609375 1.96875 0.609375q1.296875 0 1.953125 -0.546875q0.671875 -0.546875 0.671875 -1.28125q0 -0.484375 -0.28125 -0.8125q-0.28125 -0.328125 -0.96875 -0.578125q-0.484375 -0.15625 -2.171875 -0.578125q-2.15625 -0.546875 -3.03125 -1.328125q-1.234375 -1.09375 -1.234375 -2.6875q0 -1.015625 0.578125 -1.90625q0.578125 -0.890625 1.65625 -1.34375q1.09375 -0.46875 2.640625 -0.46875q2.515625 0 3.78125 1.109375q1.28125 1.09375 1.34375 2.9375l-2.703125 0.109375q-0.171875 -1.03125 -0.75 -1.46875q-0.5625 -0.453125 -1.703125 -0.453125q-1.171875 0 -1.84375 0.46875q-0.421875 0.3125 -0.421875 0.84375q0 0.46875 0.40625 0.796875q0.5 0.4375 2.46875 0.90625q1.96875 0.453125 2.90625 0.953125q0.953125 0.5 1.484375 1.359375q0.53125 0.859375 0.53125 2.125q0 1.15625 -0.640625 2.15625q-0.640625 1.0 -1.8125 1.484375q-1.15625 0.484375 -2.890625 0.484375q-2.53125 0 -3.890625 -1.171875q-1.359375 -1.171875 -1.625 -3.40625z" fill-rule="nonzero"/><path fill="#000000" fill-opacity="0.0" d="m234.89287 319.45645l47.65355 0l0 42.015747l-47.65355 0z" fill-rule="evenodd"/><path fill="#000000" d="m245.25224 346.37646l0 -13.359375l9.90625 0l0 2.265625l-7.21875 0l0 2.953125l6.71875 0l0 2.25l-6.71875 0l0 3.640625l7.46875 0l0 2.25l-10.15625 0z" fill-rule="nonzero"/><path fill="#000000" d="m426.28873 89.854454l0 0c0 -6.3230133 5.1257935 -11.448822 11.4487915 -11.448822l0 0c3.036438 0 5.9484863 1.2062149 8.095551 3.353279c2.1470642 2.1470718 3.3532715 5.059128 3.3532715 8.095543l0 0c0 6.3230057 -5.1257935 11.448814 -11.448822 11.448814l0 0c-6.322998 0 -11.4487915 -5.1258087 -11.4487915 -11.448814z" fill-rule="evenodd"/><path stroke="#000000" stroke-width="1.0" stroke-linejoin="round" stroke-linecap="butt" d="m426.28873 89.854454l0 0c0 -6.3230133 5.1257935 -11.448822 11.4487915 -11.448822l0 0c3.036438 0 5.9484863 1.2062149 8.095551 3.353279c2.1470642 2.1470718 3.3532715 5.059128 3.3532715 8.095543l0 0c0 6.3230057 -5.1257935 11.448814 -11.448822 11.448814l0 0c-6.322998 0 -11.4487915 -5.1258087 -11.4487915 -11.448814z" fill-rule="evenodd"/><path fill="#000000" d="m426.28873 160.09448l0 0c0 -6.322998 5.1257935 -11.448807 11.4487915 -11.448807l0 0c3.036438 0 5.9484863 1.2062073 8.095551 3.3532715c2.1470642 2.1470795 3.3532715 5.059128 3.3532715 8.095535l0 0c0 6.3230133 -5.1257935 11.448822 -11.448822 11.448822l0 0c-6.322998 0 -11.4487915 -5.1258087 -11.4487915 -11.448822z" fill-rule="evenodd"/><path stroke="#000000" stroke-width="1.0" stroke-linejoin="round" stroke-linecap="butt" d="m426.28873 160.09448l0 0c0 -6.322998 5.1257935 -11.448807 11.4487915 -11.448807l0 0c3.036438 0 5.9484863 1.2062073 8.095551 3.3532715c2.1470642 2.1470795 3.3532715 5.059128 3.3532715 8.095535l0 0c0 6.3230133 -5.1257935 11.448822 -11.448822 11.448822l0 0c-6.322998 0 -11.4487915 -5.1258087 -11.4487915 -11.448822z" fill-rule="evenodd"/><path fill="#000000" d="m426.28873 224.979l0 0c0 -6.3230133 5.1257935 -11.448822 11.4487915 -11.448822l0 0c3.036438 0 5.9484863 1.2062073 8.095551 3.3532867c2.1470642 2.1470642 3.3532715 5.0591125 3.3532715 8.095535l0 0c0 6.3230133 -5.1257935 11.448822 -11.448822 11.448822l0 0c-6.322998 0 -11.4487915 -5.1258087 -11.4487915 -11.448822z" fill-rule="evenodd"/><path stroke="#000000" stroke-width="1.0" stroke-linejoin="round" stroke-linecap="butt" d="m426.28873 224.979l0 0c0 -6.3230133 5.1257935 -11.448822 11.4487915 -11.448822l0 0c3.036438 0 5.9484863 1.2062073 8.095551 3.3532867c2.1470642 2.1470642 3.3532715 5.0591125 3.3532715 8.095535l0 0c0 6.3230133 -5.1257935 11.448822 -11.448822 11.448822l0 0c-6.322998 0 -11.4487915 -5.1258087 -11.4487915 -11.448822z" fill-rule="evenodd"/><path fill="#000000" fill-opacity="0.0" d="m437.73752 101.30327l0 47.338577" fill-rule="evenodd"/><path stroke="#000000" stroke-width="3.0" stroke-linejoin="round" stroke-linecap="butt" d="m437.73752 101.30327l0 47.338577" fill-rule="evenodd"/><path fill="#000000" fill-opacity="0.0" d="m437.73752 171.5433l0 41.984253" fill-rule="evenodd"/><path stroke="#000000" stroke-width="3.0" stroke-linejoin="round" stroke-linecap="butt" d="m437.73752 171.5433l0 41.984253" fill-rule="evenodd"/><path fill="#000000" fill-opacity="0.0" d="m437.73752 236.42783l0 81.76376" fill-rule="evenodd"/><path stroke="#000000" stroke-width="3.0" stroke-linejoin="round" stroke-linecap="butt" d="m437.73752 236.42783l0 81.76376" fill-rule="evenodd"/><path fill="#000000" fill-opacity="0.0" d="m437.73752 341.09448l0 41.984253" fill-rule="evenodd"/><path stroke="#000000" stroke-width="3.0" stroke-linejoin="round" stroke-linecap="butt" d="m437.73752 341.09448l0 41.984253" fill-rule="evenodd"/><path fill="#000000" fill-opacity="0.0" d="m263.4882 149.30971l0 -48.661415" fill-rule="evenodd"/><path stroke="#4b0082" stroke-width="3.0" stroke-linejoin="round" stroke-linecap="butt" d="m263.4882 149.30971l0 -48.661415" fill-rule="evenodd"/><path fill="#000000" fill-opacity="0.0" d="m252.03937 89.19685l-65.63779 28.377953" fill-rule="evenodd"/><path stroke="#4b0082" stroke-width="3.0" stroke-linejoin="round" stroke-linecap="butt" d="m252.03937 89.19685l-65.63779 28.377953" fill-rule="evenodd"/><path fill="#000000" fill-opacity="0.0" d="m194.49187 137.12047l57.543304 23.65355" fill-rule="evenodd"/><path stroke="#4b0082" stroke-width="3.0" stroke-linejoin="round" stroke-linecap="butt" d="m194.49187 137.12047l57.543304 23.65355" fill-rule="evenodd"/><path fill="#000000" fill-opacity="0.0" d="m255.39265 168.85406l-151.08661 121.38583" fill-rule="evenodd"/><path stroke="#4b0082" stroke-width="3.0" stroke-linejoin="round" stroke-linecap="butt" d="m255.39265 168.85406l-151.08661 121.38583" fill-rule="evenodd"/><path fill="#000000" fill-opacity="0.0" d="m104.301834 313.1299l129.03937 131.52756" fill-rule="evenodd"/><path stroke="#4b0082" stroke-width="3.0" stroke-linejoin="round" stroke-linecap="butt" d="m104.301834 313.1299l129.03937 131.52756" fill-rule="evenodd"/><path fill="#000000" fill-opacity="0.0" d="m54.02887 444.272l-0.88188934 -264.72443" fill-rule="evenodd"/><path stroke="#000000" stroke-width="3.0" stroke-linejoin="round" stroke-linecap="butt" stroke-dasharray="3.0,9.0" d="m54.02887 444.272l-0.88188934 -264.72443" fill-rule="evenodd"/><path fill="#000000" fill-opacity="0.0" d="m64.585304 168.09448l190.80316 0.75590515" fill-rule="evenodd"/><path stroke="#000000" stroke-width="3.0" stroke-linejoin="round" stroke-linecap="butt" stroke-dasharray="3.0,9.0" d="m64.585304 168.09448l190.80316 0.75590515" fill-rule="evenodd"/><path fill="#000000" fill-opacity="0.0" d="m263.4882 172.20735l0.72439575 62.89763" fill-rule="evenodd"/><path stroke="#000000" stroke-width="3.0" stroke-linejoin="round" stroke-linecap="butt" stroke-dasharray="3.0,9.0" d="m263.4882 172.20735l0.72439575 62.89763" fill-rule="evenodd"/><path fill="#000000" fill-opacity="0.0" d="m264.22824 258.0105l0.06298828 50.04724" fill-rule="evenodd"/><path stroke="#000000" stroke-width="3.0" stroke-linejoin="round" stroke-linecap="butt" stroke-dasharray="3.0,9.0" d="m264.22824 258.0105l0.06298828 50.04724" fill-rule="evenodd"/><path fill="#000000" fill-opacity="0.0" d="m272.38293 327.59424l153.92126 2.0472412" fill-rule="evenodd"/><path stroke="#ffff00" stroke-width="3.0" stroke-linejoin="round" stroke-linecap="butt" d="m272.38293 327.59424l153.92126 2.0472412" fill-rule="evenodd"/><path fill="#000000" fill-opacity="0.0" d="m445.83307 337.7412c0 14.176605 7.089447 29.509705 14.176636 28.35321c7.0871887 -1.1564941 14.17215 -18.802551 14.176636 -36.44876c0.0045166016 -17.64618 -7.0714417 -35.29251 -14.145142 -36.44876c-7.0737 -1.1562195 -14.145142 14.177673 -14.145142 28.355316" fill-rule="evenodd"/><path stroke="#ffff00" stroke-width="3.0" stroke-linejoin="round" stroke-linecap="butt" d="m445.83307 337.7412c0 14.176605 7.089447 29.509705 14.176636 28.35321c7.0871887 -1.1564941 14.17215 -18.802551 14.176636 -36.44876c0.0045166016 -17.64618 -7.0714417 -35.29251 -14.145142 -36.44876c-7.0737 -1.1562195 -14.145142 14.177673 -14.145142 28.355316" fill-rule="evenodd"/><path fill="#000000" fill-opacity="0.0" d="m429.642 337.7412l-184.8504 118.36221" fill-rule="evenodd"/><path stroke="#ffff00" stroke-width="3.0" stroke-linejoin="round" stroke-linecap="butt" d="m429.642 337.7412l-184.8504 118.36221" fill-rule="evenodd"/><path fill="#000000" fill-opacity="0.0" d="m221.89502 456.1076l-156.40945 -0.3779602" fill-rule="evenodd"/><path stroke="#ffff00" stroke-width="3.0" stroke-linejoin="round" stroke-linecap="butt" d="m221.89502 456.1076l-156.40945 -0.3779602" fill-rule="evenodd"/><path fill="#000000" fill-opacity="0.0" d="m252.83858 319.4987l-62.992126 21.795288" fill-rule="evenodd"/><path stroke="#ffff00" stroke-width="3.0" stroke-linejoin="round" stroke-linecap="butt" d="m252.83858 319.4987l-62.992126 21.795288" fill-rule="evenodd"/><path fill="#000000" fill-opacity="0.0" d="m342.06458 291.94986l-69.66931 19.46457" fill-rule="evenodd"/><path stroke="#b7b7b7" stroke-width="3.0" stroke-linejoin="round" stroke-linecap="butt" d="m342.06458 291.94986l-69.66931 19.46457" fill-rule="evenodd"/><path fill="#000000" fill-opacity="0.0" d="m264.2874 330.9475l23.055115 39.905518" fill-rule="evenodd"/><path stroke="#b7b7b7" stroke-width="3.0" stroke-linejoin="round" stroke-linecap="butt" d="m264.2874 330.9475l23.055115 39.905518" fill-rule="evenodd"/><path fill="#000000" fill-opacity="0.0" d="m306.89108 378.9475l119.40158 -49.29135" fill-rule="evenodd"/><path stroke="#b7b7b7" stroke-width="3.0" stroke-linejoin="round" stroke-linecap="butt" d="m306.89108 378.9475l119.40158 -49.29135" fill-rule="evenodd"/><path fill="#000000" fill-opacity="0.0" d="m186.39633 260.75854l77.102356 -88.535446" fill-rule="evenodd"/><path stroke="#b7b7b7" stroke-width="3.0" stroke-linejoin="round" stroke-linecap="butt" d="m186.39633 260.75854l77.102356 -88.535446" fill-rule="evenodd"/><path fill="#000000" fill-opacity="0.0" d="m271.58374 152.663l0 -55.37008" fill-rule="evenodd"/><path stroke="#ff00ff" stroke-width="3.0" stroke-linejoin="round" stroke-linecap="butt" d="m271.58374 152.663l0 -55.37008" fill-rule="evenodd"/><path fill="#000000" fill-opacity="0.0" d="m274.937 89.19685l151.3386 0.6614151" fill-rule="evenodd"/><path stroke="#ff00ff" stroke-width="3.0" stroke-linejoin="round" stroke-linecap="butt" d="m274.937 89.19685l151.3386 0.6614151" fill-rule="evenodd"/><path fill="#000000" fill-opacity="0.0" d="m271.58374 168.85406l74.99213 51.370087" fill-rule="evenodd"/><path stroke="#ff00ff" stroke-width="3.0" stroke-linejoin="round" stroke-linecap="butt" d="m271.58374 168.85406l74.99213 51.370087" fill-rule="evenodd"/><path fill="#000000" fill-opacity="0.0" d="m274.937 160.75853c77.35434 0 154.70865 80.39371 154.70865 160.7874" fill-rule="evenodd"/><path stroke="#b7b7b7" stroke-width="3.0" stroke-linejoin="round" stroke-linecap="butt" d="m274.937 160.75853c77.35434 0 154.70865 80.39371 154.70865 160.7874" fill-rule="evenodd"/><path fill="#000000" fill-opacity="0.0" d="m343.21127 228.30577l-28.251953 9.921265" fill-rule="evenodd"/><path stroke="#9900ff" stroke-width="3.0" stroke-linejoin="round" stroke-linecap="butt" d="m343.21127 228.30577l-28.251953 9.921265" fill-rule="evenodd"/><path fill="#000000" fill-opacity="0.0" d="m314.94855 254.40918l27.118134 21.35434" fill-rule="evenodd"/><path stroke="#9900ff" stroke-width="3.0" stroke-linejoin="round" stroke-linecap="butt" d="m314.94855 254.40918l27.118134 21.35434" fill-rule="evenodd"/><path fill="#000000" fill-opacity="0.0" d="m362.75565 236.4013l-12.598419 36.0" fill-rule="evenodd"/><path stroke="#9900ff" stroke-width="3.0" stroke-linejoin="round" stroke-linecap="butt" d="m362.75565 236.4013l-12.598419 36.0" fill-rule="evenodd"/><path fill="#000000" fill-opacity="0.0" d="m366.10892 228.30577l63.527557 93.25984" fill-rule="evenodd"/><path stroke="#9900ff" stroke-width="3.0" stroke-linejoin="round" stroke-linecap="butt" d="m366.10892 228.30577l63.527557 93.25984" fill-rule="evenodd"/><path fill="#000000" fill-opacity="0.0" d="m275.7362 319.4987l153.92126 2.0472412" fill-rule="evenodd"/><path stroke="#9900ff" stroke-width="3.0" stroke-linejoin="round" stroke-linecap="butt" d="m275.7362 319.4987l153.92126 2.0472412" fill-rule="evenodd"/><path fill="#000000" fill-opacity="0.0" d="m194.49187 280.3029l61.70079 31.086609" fill-rule="evenodd"/><path stroke="#ff0000" stroke-width="4.0" stroke-linejoin="round" stroke-linecap="butt" stroke-dasharray="16.0,12.0" d="m194.49187 280.3029l61.70079 31.086609" fill-rule="evenodd"/><path fill="#000000" fill-opacity="0.0" d="m76.89764 0l326.58267 0l0 67.874016l-326.58267 0z" fill-rule="evenodd"/><path fill="#000000" d="m114.90598 47.806248q-2.75 0 -4.984375 -0.65625q-2.21875 -0.671875 -3.9375 -1.921875q-1.71875 -1.265625 -3.078125 -2.984375l4.125 -4.6875q2.0 2.6875 4.015625 3.609375q2.015625 0.921875 4.1875 0.921875q1.078125 0 1.953125 -0.28125q0.875 -0.28125 1.359375 -0.8125q0.484375 -0.546875 0.484375 -1.359375q0 -0.59375 -0.3125 -1.0625q-0.296875 -0.484375 -0.8125 -0.84375q-0.515625 -0.375 -1.234375 -0.671875q-0.71875 -0.296875 -1.53125 -0.515625q-0.796875 -0.21875 -1.625 -0.375q-2.328125 -0.53125 -4.046875 -1.28125q-1.71875 -0.765625 -2.859375 -1.859375q-1.140625 -1.109375 -1.703125 -2.515625q-0.5625 -1.421875 -0.5625 -3.1875q0 -1.875 0.859375 -3.453125q0.859375 -1.59375 2.3125 -2.734375q1.46875 -1.140625 3.390625 -1.75q1.921875 -0.625 4.0 -0.625q2.765625 0 4.734375 0.578125q1.984375 0.578125 3.40625 1.671875q1.421875 1.078125 2.421875 2.59375l-4.203125 4.03125q-0.84375 -1.03125 -1.828125 -1.703125q-0.96875 -0.6875 -2.078125 -1.046875q-1.09375 -0.359375 -2.25 -0.359375q-1.203125 0 -2.0625 0.296875q-0.859375 0.296875 -1.34375 0.84375q-0.46875 0.53125 -0.46875 1.296875q0 0.671875 0.390625 1.15625q0.40625 0.484375 1.078125 0.859375q0.6875 0.375 1.5625 0.640625q0.890625 0.265625 1.84375 0.421875q2.203125 0.4375 3.984375 1.15625q1.78125 0.71875 3.078125 1.765625q1.296875 1.03125 2.0 2.453125q0.703125 1.421875 0.703125 3.296875q0 2.921875 -1.421875 4.953125q-1.421875 2.015625 -3.890625 3.078125q-2.453125 1.0625 -5.65625 1.0625zm27.875603 -0.171875q-3.46875 0 -6.1875 -1.40625q-2.71875 -1.421875 -4.265625 -3.90625q-1.546875 -2.484375 -1.546875 -5.6875l0 -17.234375l6.890625 0l0 16.875q0 1.53125 0.671875 2.75q0.6875 1.21875 1.84375 1.921875q1.15625 0.6875 2.59375 0.6875q1.53125 0 2.703125 -0.6875q1.1875 -0.703125 1.90625 -1.921875q0.71875 -1.21875 0.71875 -2.75l0 -16.875l6.640625 0l0 17.234375q0 3.203125 -1.546875 5.6875q-1.53125 2.484375 -4.25 3.90625q-2.71875 1.40625 -6.171875 1.40625zm18.8031 -0.234375l0 -28.0l12.359375 0q2.890625 0 4.890625 0.828125q2.0 0.8125 3.015625 2.359375q1.015625 1.53125 1.015625 3.6875q0 2.40625 -1.1875 4.046875q-1.171875 1.640625 -3.40625 2.203125l-0.078125 -0.765625q1.875 0.40625 3.25 1.40625q1.390625 1.0 2.140625 2.46875q0.765625 1.453125 0.765625 3.28125q0 2.125 -0.71875 3.703125q-0.71875 1.578125 -2.078125 2.65625q-1.359375 1.078125 -3.1875 1.609375q-1.8125 0.515625 -4.015625 0.515625l-12.765625 0zm6.40625 -5.6875l6.125 0q1.109375 0 1.890625 -0.359375q0.78125 -0.359375 1.21875 -1.046875q0.4375 -0.703125 0.4375 -1.703125q0 -0.921875 -0.453125 -1.5625q-0.453125 -0.640625 -1.296875 -0.984375q-0.84375 -0.34375 -2.0 -0.34375l-5.921875 0l0 6.0zm0 -11.078125l5.0 0q1.03125 0 1.765625 -0.328125q0.75 -0.34375 1.125 -0.96875q0.390625 -0.625 0.390625 -1.5q0 -1.28125 -0.890625 -2.015625q-0.875 -0.734375 -2.625 -0.734375l-4.765625 0l0 5.546875zm26.440598 16.765625l-8.40625 -28.0l6.921875 0l4.203125 14.71875q0.28125 1.0 0.5 2.03125q0.21875 1.015625 0.359375 1.9375q0.140625 0.90625 0.21875 1.6875q0.078125 0.78125 0.15625 1.3125l-0.875 0q0.234375 -1.484375 0.40625 -2.640625q0.1875 -1.171875 0.421875 -2.1875q0.25 -1.015625 0.609375 -2.140625l4.15625 -11.078125l5.453125 0l4.078125 11.078125q0.46875 1.328125 0.78125 2.484375q0.328125 1.15625 0.5 2.21875q0.1875 1.0625 0.3125 2.09375l-0.796875 0.125q0.078125 -0.71875 0.109375 -1.328125q0.046875 -0.625 0.109375 -1.203125q0.0625 -0.59375 0.140625 -1.234375q0.078125 -0.640625 0.234375 -1.40625q0.15625 -0.78125 0.4375 -1.78125l4.171875 -14.6875l6.75 0l-8.390625 28.0l-5.203125 0l-6.640625 -16.125l0.765625 0.078125l-6.125 16.046875l-5.359375 0zm29.510574 0l11.09375 -28.0l5.75 0l11.0 28.0l-6.875 0l-5.28125 -14.203125q-0.328125 -0.84375 -0.640625 -1.796875q-0.3125 -0.953125 -0.640625 -1.96875q-0.3125 -1.03125 -0.625 -2.0q-0.296875 -0.984375 -0.5 -1.828125l1.203125 -0.046875q-0.234375 1.0 -0.546875 1.96875q-0.296875 0.953125 -0.59375 1.890625q-0.296875 0.9375 -0.65625 1.890625q-0.359375 0.9375 -0.6875 1.9375l-5.265625 14.15625l-6.734375 0zm5.28125 -5.359375l2.125 -5.125l12.875 0l2.078125 5.125l-17.078125 0zm30.091217 5.359375l0 -13.953125l0.28125 1.953125l-11.32811 -16.0l7.71875 0l8.64061 12.40625l-3.515625 -0.125l7.796875 -12.28125l7.484375 0l-10.84375 16.4375l0.59375 -2.71875l0 14.28125l-6.828125 0zm33.109955 0l0 -28.0l6.078125 0l10.203125 16.59375l-4.359375 -0.03125l10.328125 -16.5625l5.828125 0l0 28.0l-6.59375 0l0 -8.71875q0 -3.59375 0.171875 -6.46875q0.1875 -2.890625 0.625 -5.734375l0.765625 2.078125l-7.765625 12.046875l-2.640625 0l-7.59375 -11.96875l0.75 -2.15625q0.453125 2.6875 0.625 5.515625q0.1875 2.8125 0.1875 6.6875l0 8.71875l-6.609375 0zm31.557465 0l11.09375 -28.0l5.75 0l11.0 28.0l-6.875 0l-5.28125 -14.203125q-0.328125 -0.84375 -0.640625 -1.796875q-0.3125 -0.953125 -0.640625 -1.96875q-0.3125 -1.03125 -0.625 -2.0q-0.296875 -0.984375 -0.5 -1.828125l1.203125 -0.046875q-0.234375 1.0 -0.546875 1.96875q-0.296875 0.953125 -0.59375 1.890625q-0.296875 0.9375 -0.65625 1.890625q-0.359375 0.9375 -0.6875 1.9375l-5.265625 14.15625l-6.734375 0zm5.28125 -5.359375l2.125 -5.125l12.875 0l2.078125 5.125l-17.078125 0zm26.04126 5.359375l0 -28.0l12.078125 0q2.640625 0 4.703125 1.203125q2.0625 1.203125 3.28125 3.28125q1.21875 2.078125 1.21875 4.671875q0 2.71875 -1.21875 4.859375q-1.21875 2.140625 -3.28125 3.390625q-2.0625 1.234375 -4.703125 1.234375l-5.28125 0l0 9.359375l-6.796875 0zm6.6875 -15.3125l4.4375 0q0.875 0 1.59375 -0.4375q0.71875 -0.453125 1.15625 -1.203125q0.453125 -0.765625 0.453125 -1.765625q0 -1.046875 -0.453125 -1.765625q-0.4375 -0.71875 -1.15625 -1.109375q-0.71875 -0.40625 -1.59375 -0.40625l-4.4375 0l0 6.6875z" fill-rule="nonzero"/><path fill="#000000" d="m426.28873 329.64566l0 0c0 -6.322998 5.1257935 -11.448822 11.4487915 -11.448822l0 0c3.036438 0 5.9484863 1.2062378 8.095551 3.353302c2.1470642 2.1470642 3.3532715 5.0591125 3.3532715 8.09552l0 0c0 6.3230286 -5.1257935 11.448822 -11.448822 11.448822l0 0c-6.322998 0 -11.4487915 -5.1257935 -11.4487915 -11.448822z" fill-rule="evenodd"/><path stroke="#000000" stroke-width="1.0" stroke-linejoin="round" stroke-linecap="butt" d="m426.28873 329.64566l0 0c0 -6.322998 5.1257935 -11.448822 11.4487915 -11.448822l0 0c3.036438 0 5.9484863 1.2062378 8.095551 3.353302c2.1470642 2.1470642 3.3532715 5.0591125 3.3532715 8.09552l0 0c0 6.3230286 -5.1257935 11.448822 -11.448822 11.448822l0 0c-6.322998 0 -11.4487915 -5.1257935 -11.4487915 -11.448822z" fill-rule="evenodd"/><path fill="#000000" d="m426.28873 394.53018l0 0c0 -6.322998 5.1257935 -11.448822 11.4487915 -11.448822l0 0c3.036438 0 5.9484863 1.2062073 8.095551 3.3532715c2.1470642 2.1470947 3.3532715 5.059143 3.3532715 8.095551l0 0c0 6.322998 -5.1257935 11.448822 -11.448822 11.448822l0 0c-6.322998 0 -11.4487915 -5.125824 -11.4487915 -11.448822z" fill-rule="evenodd"/><path stroke="#000000" stroke-width="1.0" stroke-linejoin="round" stroke-linecap="butt" d="m426.28873 394.53018l0 0c0 -6.322998 5.1257935 -11.448822 11.4487915 -11.448822l0 0c3.036438 0 5.9484863 1.2062073 8.095551 3.3532715c2.1470642 2.1470947 3.3532715 5.059143 3.3532715 8.095551l0 0c0 6.322998 -5.1257935 11.448822 -11.448822 11.448822l0 0c-6.322998 0 -11.4487915 -5.125824 -11.4487915 -11.448822z" fill-rule="evenodd"/><path fill="#000000" d="m252.03937 89.19685l0 0c0 -6.3230133 5.125824 -11.448822 11.448822 -11.448822l0 0c3.0364075 0 5.948456 1.2062149 8.095551 3.353279c2.1470642 2.1470718 3.3532715 5.059128 3.3532715 8.095543l0 0c0 6.3230057 -5.125824 11.448814 -11.448822 11.448814l0 0c-6.322998 0 -11.448822 -5.1258087 -11.448822 -11.448814z" fill-rule="evenodd"/><path stroke="#000000" stroke-width="1.0" stroke-linejoin="round" stroke-linecap="butt" d="m252.03937 89.19685l0 0c0 -6.3230133 5.125824 -11.448822 11.448822 -11.448822l0 0c3.0364075 0 5.948456 1.2062149 8.095551 3.353279c2.1470642 2.1470718 3.3532715 5.059128 3.3532715 8.095543l0 0c0 6.3230057 -5.125824 11.448814 -11.448822 11.448814l0 0c-6.322998 0 -11.448822 -5.1258087 -11.448822 -11.448814z" fill-rule="evenodd"/><path fill="#000000" d="m252.03937 160.75853l0 0c0 -6.3230133 5.125824 -11.448822 11.448822 -11.448822l0 0c3.0364075 0 5.948456 1.2062225 8.095551 3.3532867c2.1470642 2.1470642 3.3532715 5.059128 3.3532715 8.095535l0 0c0 6.3230133 -5.125824 11.448822 -11.448822 11.448822l0 0c-6.322998 0 -11.448822 -5.1258087 -11.448822 -11.448822z" fill-rule="evenodd"/><path stroke="#000000" stroke-width="1.0" stroke-linejoin="round" stroke-linecap="butt" d="m252.03937 160.75853l0 0c0 -6.3230133 5.125824 -11.448822 11.448822 -11.448822l0 0c3.0364075 0 5.948456 1.2062225 8.095551 3.3532867c2.1470642 2.1470642 3.3532715 5.059128 3.3532715 8.095535l0 0c0 6.3230133 -5.125824 11.448822 -11.448822 11.448822l0 0c-6.322998 0 -11.448822 -5.1258087 -11.448822 -11.448822z" fill-rule="evenodd"/><path fill="#000000" d="m174.94751 129.02493l0 0c0 -6.3230057 5.1258087 -11.448814 11.448822 -11.448814l0 0c3.0364075 0 5.948456 1.2062073 8.095535 3.353279c2.1470642 2.1470718 3.3532715 5.05912 3.3532715 8.095535l0 0c0 6.3230133 -5.1258087 11.448822 -11.448807 11.448822l0 0c-6.3230133 0 -11.448822 -5.1258087 -11.448822 -11.448822z" fill-rule="evenodd"/><path stroke="#000000" stroke-width="1.0" stroke-linejoin="round" stroke-linecap="butt" d="m174.94751 129.02493l0 0c0 -6.3230057 5.1258087 -11.448814 11.448822 -11.448814l0 0c3.0364075 0 5.948456 1.2062073 8.095535 3.353279c2.1470642 2.1470718 3.3532715 5.05912 3.3532715 8.095535l0 0c0 6.3230133 -5.1258087 11.448822 -11.448807 11.448822l0 0c-6.3230133 0 -11.448822 -5.1258087 -11.448822 -11.448822z" fill-rule="evenodd"/><path fill="#000000" d="m92.85302 301.6811l0 0c0 -6.322998 5.1258087 -11.448822 11.448814 -11.448822l0 0c3.036415 0 5.948471 1.2062378 8.095543 3.353302c2.1470642 2.1470642 3.353279 5.0591125 3.353279 8.09552l0 0c0 6.3230286 -5.1258087 11.448822 -11.448822 11.448822l0 0c-6.3230057 0 -11.448814 -5.1257935 -11.448814 -11.448822z" fill-rule="evenodd"/><path stroke="#000000" stroke-width="1.0" stroke-linejoin="round" stroke-linecap="butt" d="m92.85302 301.6811l0 0c0 -6.322998 5.1258087 -11.448822 11.448814 -11.448822l0 0c3.036415 0 5.948471 1.2062378 8.095543 3.353302c2.1470642 2.1470642 3.353279 5.0591125 3.353279 8.09552l0 0c0 6.3230286 -5.1258087 11.448822 -11.448822 11.448822l0 0c-6.3230057 0 -11.448814 -5.1257935 -11.448814 -11.448822z" fill-rule="evenodd"/><path fill="#000000" d="m221.89502 456.1076l0 0c0 -6.322998 5.1258087 -11.448822 11.448807 -11.448822l0 0c3.0364227 0 5.948471 1.2062073 8.095551 3.353302c2.1470642 2.1470642 3.3532715 5.0591125 3.3532715 8.09552l0 0c0 6.3230286 -5.1258087 11.448822 -11.448822 11.448822l0 0c-6.322998 0 -11.448807 -5.1257935 -11.448807 -11.448822z" fill-rule="evenodd"/><path stroke="#000000" stroke-width="1.0" stroke-linejoin="round" stroke-linecap="butt" d="m221.89502 456.1076l0 0c0 -6.322998 5.1258087 -11.448822 11.448807 -11.448822l0 0c3.0364227 0 5.948471 1.2062073 8.095551 3.353302c2.1470642 2.1470642 3.3532715 5.0591125 3.3532715 8.09552l0 0c0 6.3230286 -5.1258087 11.448822 -11.448822 11.448822l0 0c-6.322998 0 -11.448807 -5.1257935 -11.448807 -11.448822z" fill-rule="evenodd"/><path fill="#000000" d="m41.687664 168.09448l0 0c0 -6.322998 5.1258125 -11.448807 11.448818 -11.448807l0 0c3.036415 0 5.9484673 1.2062073 8.095539 3.3532715c2.147068 2.1470795 3.353283 5.059128 3.353283 8.095535l0 0c0 6.3230133 -5.1258125 11.448822 -11.448822 11.448822l0 0c-6.3230057 0 -11.448818 -5.1258087 -11.448818 -11.448822z" fill-rule="evenodd"/><path stroke="#000000" stroke-width="1.0" stroke-linejoin="round" stroke-linecap="butt" d="m41.687664 168.09448l0 0c0 -6.322998 5.1258125 -11.448807 11.448818 -11.448807l0 0c3.036415 0 5.9484673 1.2062073 8.095539 3.3532715c2.147068 2.1470795 3.353283 5.059128 3.353283 8.095535l0 0c0 6.3230133 -5.1258125 11.448822 -11.448822 11.448822l0 0c-6.3230057 0 -11.448818 -5.1258087 -11.448818 -11.448822z" fill-rule="evenodd"/><path fill="#000000" d="m42.58005 455.72083l0 0c0 -6.322998 5.1258125 -11.448822 11.448818 -11.448822l0 0c3.036419 0 5.948471 1.2062073 8.095539 3.3532715c2.147068 2.1470947 3.353283 5.059143 3.353283 8.095551l0 0c0 6.322998 -5.1258125 11.448822 -11.448822 11.448822l0 0c-6.3230057 0 -11.448818 -5.125824 -11.448818 -11.448822z" fill-rule="evenodd"/><path stroke="#000000" stroke-width="1.0" stroke-linejoin="round" stroke-linecap="butt" d="m42.58005 455.72083l0 0c0 -6.322998 5.1258125 -11.448822 11.448818 -11.448822l0 0c3.036419 0 5.948471 1.2062073 8.095539 3.3532715c2.147068 2.1470947 3.353283 5.059143 3.353283 8.095551l0 0c0 6.322998 -5.1258125 11.448822 -11.448822 11.448822l0 0c-6.3230057 0 -11.448818 -5.125824 -11.448818 -11.448822z" fill-rule="evenodd"/><path fill="#000000" d="m252.7794 246.56168l0 0c0 -6.322998 5.1258087 -11.448822 11.448837 -11.448822l0 0c3.0364075 0 5.948456 1.2062225 8.09552 3.3532867c2.1470642 2.1470642 3.3532715 5.059128 3.3532715 8.095535l0 0c0 6.3230133 -5.1257935 11.448822 -11.4487915 11.448822l0 0c-6.3230286 0 -11.448837 -5.1258087 -11.448837 -11.448822z" fill-rule="evenodd"/><path stroke="#000000" stroke-width="1.0" stroke-linejoin="round" stroke-linecap="butt" d="m252.7794 246.56168l0 0c0 -6.322998 5.1258087 -11.448822 11.448837 -11.448822l0 0c3.0364075 0 5.948456 1.2062225 8.09552 3.3532867c2.1470642 2.1470642 3.3532715 5.059128 3.3532715 8.095535l0 0c0 6.3230133 -5.1257935 11.448822 -11.4487915 11.448822l0 0c-6.3230286 0 -11.448837 -5.1258087 -11.448837 -11.448822z" fill-rule="evenodd"/><path fill="#000000" d="m252.83858 319.4987l0 0c0 -6.322998 5.1258087 -11.448822 11.448837 -11.448822l0 0c3.0364075 0 5.948456 1.2062073 8.09552 3.3532715c2.1470642 2.1470947 3.3532715 5.059143 3.3532715 8.095551l0 0c0 6.322998 -5.1257935 11.448822 -11.4487915 11.448822l0 0c-6.3230286 0 -11.448837 -5.125824 -11.448837 -11.448822z" fill-rule="evenodd"/><path stroke="#000000" stroke-width="1.0" stroke-linejoin="round" stroke-linecap="butt" d="m252.83858 319.4987l0 0c0 -6.322998 5.1258087 -11.448822 11.448837 -11.448822l0 0c3.0364075 0 5.948456 1.2062073 8.09552 3.3532715c2.1470642 2.1470947 3.3532715 5.059143 3.3532715 8.095551l0 0c0 6.322998 -5.1257935 11.448822 -11.4487915 11.448822l0 0c-6.3230286 0 -11.448837 -5.125824 -11.448837 -11.448822z" fill-rule="evenodd"/><path fill="#000000" d="m166.95145 341.30316l0 0c0 -6.3230286 5.1258087 -11.448822 11.448822 -11.448822l0 0c3.0364075 0 5.948456 1.2062073 8.095535 3.3532715c2.1470642 2.1470642 3.3532715 5.0591125 3.3532715 8.095551l0 0c0 6.322998 -5.1258087 11.448822 -11.448807 11.448822l0 0c-6.3230133 0 -11.448822 -5.125824 -11.448822 -11.448822z" fill-rule="evenodd"/><path stroke="#000000" stroke-width="1.0" stroke-linejoin="round" stroke-linecap="butt" d="m166.95145 341.30316l0 0c0 -6.3230286 5.1258087 -11.448822 11.448822 -11.448822l0 0c3.0364075 0 5.948456 1.2062073 8.095535 3.3532715c2.1470642 2.1470642 3.3532715 5.0591125 3.3532715 8.095551l0 0c0 6.322998 -5.1258087 11.448822 -11.448807 11.448822l0 0c-6.3230133 0 -11.448822 -5.125824 -11.448822 -11.448822z" fill-rule="evenodd"/><path fill="#000000" d="m338.71127 283.85434l0 0c0 -6.3230286 5.125824 -11.448822 11.448822 -11.448822l0 0c3.036438 0 5.9484863 1.2062073 8.095551 3.3532715c2.1470642 2.1470642 3.3532715 5.0591125 3.3532715 8.095551l0 0c0 6.322998 -5.1257935 11.448822 -11.448822 11.448822l0 0c-6.322998 0 -11.448822 -5.125824 -11.448822 -11.448822z" fill-rule="evenodd"/><path stroke="#000000" stroke-width="1.0" stroke-linejoin="round" stroke-linecap="butt" d="m338.71127 283.85434l0 0c0 -6.3230286 5.125824 -11.448822 11.448822 -11.448822l0 0c3.036438 0 5.9484863 1.2062073 8.095551 3.3532715c2.1470642 2.1470642 3.3532715 5.0591125 3.3532715 8.095551l0 0c0 6.322998 -5.1257935 11.448822 -11.448822 11.448822l0 0c-6.322998 0 -11.448822 -5.125824 -11.448822 -11.448822z" fill-rule="evenodd"/><path fill="#000000" d="m283.99344 378.9475l0 0c0 -6.322998 5.125824 -11.448822 11.448822 -11.448822l0 0c3.0364075 0 5.948456 1.2062073 8.09552 3.3532715c2.1470947 2.1470947 3.353302 5.059143 3.353302 8.095551l0 0c0 6.322998 -5.125824 11.448822 -11.448822 11.448822l0 0c-6.322998 0 -11.448822 -5.125824 -11.448822 -11.448822z" fill-rule="evenodd"/><path stroke="#000000" stroke-width="1.0" stroke-linejoin="round" stroke-linecap="butt" d="m283.99344 378.9475l0 0c0 -6.322998 5.125824 -11.448822 11.448822 -11.448822l0 0c3.0364075 0 5.948456 1.2062073 8.09552 3.3532715c2.1470947 2.1470947 3.353302 5.059143 3.353302 8.095551l0 0c0 6.322998 -5.125824 11.448822 -11.448822 11.448822l0 0c-6.322998 0 -11.448822 -5.125824 -11.448822 -11.448822z" fill-rule="evenodd"/><path fill="#000000" d="m174.94751 272.20734l0 0c0 -6.322998 5.1258087 -11.4487915 11.448822 -11.4487915l0 0c3.0364075 0 5.948456 1.2062073 8.095535 3.3532715c2.1470642 2.1470642 3.3532715 5.0591125 3.3532715 8.09552l0 0c0 6.3230286 -5.1258087 11.448822 -11.448807 11.448822l0 0c-6.3230133 0 -11.448822 -5.1257935 -11.448822 -11.448822z" fill-rule="evenodd"/><path stroke="#000000" stroke-width="1.0" stroke-linejoin="round" stroke-linecap="butt" d="m174.94751 272.20734l0 0c0 -6.322998 5.1258087 -11.4487915 11.448822 -11.4487915l0 0c3.0364075 0 5.948456 1.2062073 8.095535 3.3532715c2.1470642 2.1470642 3.3532715 5.0591125 3.3532715 8.09552l0 0c0 6.3230286 -5.1258087 11.448822 -11.448807 11.448822l0 0c-6.3230133 0 -11.448822 -5.1257935 -11.448822 -11.448822z" fill-rule="evenodd"/><path fill="#000000" d="m295.4042 246.31364l0 0c0 -6.322998 5.1257935 -11.448822 11.448822 -11.448822l0 0c3.0364075 0 5.948456 1.2062225 8.09552 3.3532867c2.1470642 2.1470642 3.353302 5.059128 3.353302 8.095535l0 0c0 6.3230133 -5.125824 11.448837 -11.448822 11.448837l0 0c-6.3230286 0 -11.448822 -5.125824 -11.448822 -11.448837z" fill-rule="evenodd"/><path stroke="#000000" stroke-width="1.0" stroke-linejoin="round" stroke-linecap="butt" d="m295.4042 246.31364l0 0c0 -6.322998 5.1257935 -11.448822 11.448822 -11.448822l0 0c3.0364075 0 5.948456 1.2062225 8.09552 3.3532867c2.1470642 2.1470642 3.353302 5.059128 3.353302 8.095535l0 0c0 6.3230133 -5.125824 11.448837 -11.448822 11.448837l0 0c-6.3230286 0 -11.448822 -5.125824 -11.448822 -11.448837z" fill-rule="evenodd"/><path fill="#000000" d="m343.21127 228.30577l0 0c0 -6.322998 5.125824 -11.448822 11.448822 -11.448822l0 0c3.036438 0 5.9484863 1.2062225 8.095551 3.3532867c2.1470642 2.1470642 3.3532715 5.059128 3.3532715 8.095535l0 0c0 6.3230133 -5.1257935 11.448822 -11.448822 11.448822l0 0c-6.322998 0 -11.448822 -5.1258087 -11.448822 -11.448822z" fill-rule="evenodd"/><path stroke="#000000" stroke-width="1.0" stroke-linejoin="round" stroke-linecap="butt" d="m343.21127 228.30577l0 0c0 -6.322998 5.125824 -11.448822 11.448822 -11.448822l0 0c3.036438 0 5.9484863 1.2062225 8.095551 3.3532867c2.1470642 2.1470642 3.3532715 5.059128 3.3532715 8.095535l0 0c0 6.3230133 -5.1257935 11.448822 -11.448822 11.448822l0 0c-6.322998 0 -11.448822 -5.1258087 -11.448822 -11.448822z" fill-rule="evenodd"/><path fill="#000000" fill-opacity="0.0" d="m-0.001312336 442.06955l47.65354 0l0 42.015747l-47.65354 0z" fill-rule="evenodd"/><path fill="#000000" d="m18.27113 468.98956l-3.187499 -13.359375l2.765624 0l2.015625 9.171875l2.4375 -9.171875l3.203125 0l2.34375 9.328125l2.046875 -9.328125l2.71875 0l-3.25 13.359375l-2.859375 0l-2.65625 -9.984375l-2.65625 9.984375l-2.921875 0z" fill-rule="nonzero"/><path fill="#000000" fill-opacity="0.0" d="m6.374016 139.0853l47.65354 0l0 42.015747l-47.65354 0z" fill-rule="evenodd"/><path fill="#000000" d="m16.73339 166.0053l0 -13.359375l2.703125 0l0 5.265625l5.28125 0l0 -5.265625l2.703125 0l0 13.359375l-2.703125 0l0 -5.84375l-5.28125 0l0 5.84375l-2.703125 0z" fill-rule="nonzero"/><path fill="#000000" fill-opacity="0.0" d="m263.48688 123.019684l47.653534 0l0 42.015747l-47.653534 0z" fill-rule="evenodd"/><path fill="#000000" d="m286.00323 149.93968l0 -13.359375l2.6875 0l0 13.359375l-2.6875 0z" fill-rule="nonzero"/><path fill="#000000" fill-opacity="0.0" d="m222.79659 221.66011l47.65355 0l0 42.01573l-47.65355 0z" fill-rule="evenodd"/><path fill="#000000" d="m245.28474 248.58011l0 -11.09375l-3.953125 0l0 -2.265625l10.609375 0l0 2.265625l-3.953125 0l0 11.09375l-2.703125 0z" fill-rule="nonzero"/><path fill="#000000" fill-opacity="0.0" d="m467.89346 309.38715l47.653534 0l0 42.015747l-47.653534 0z" fill-rule="evenodd"/><path fill="#000000" d="m487.45975 336.30713l0 -13.25l2.6875 0l0 11.0l6.703125 0l0 2.25l-9.390625 0z" fill-rule="nonzero"/><path fill="#000000" fill-opacity="0.0" d="m442.71115 374.5611l47.653564 0l0 42.015747l-47.653564 0z" fill-rule="evenodd"/><path fill="#000000" d="m461.16083 388.1217l5.34375 0q1.59375 0 2.359375 0.140625q0.78125 0.125 1.390625 0.546875q0.625 0.421875 1.03125 1.125q0.40625 0.6875 0.40625 1.546875q0 0.9375 -0.5 1.734375q-0.5 0.78125 -1.375 1.171875q1.21875 0.359375 1.875 1.21875q0.65625 0.84375 0.65625 2.0q0 0.921875 -0.421875 1.78125q-0.421875 0.859375 -1.15625 1.375q-0.734375 0.515625 -1.796875 0.625q-0.6875 0.078125 -3.265625 0.09375l-4.546875 0l0 -13.359375zm2.703125 2.234375l0 3.078125l1.765625 0q1.578125 0 1.953125 -0.046875q0.703125 -0.078125 1.09375 -0.46875q0.40625 -0.40625 0.40625 -1.046875q0 -0.625 -0.34375 -1.0q-0.34375 -0.390625 -1.015625 -0.484375q-0.40625 -0.03125 -2.3125 -0.03125l-1.546875 0zm0 5.296875l0 3.578125l2.5 0q1.453125 0 1.84375 -0.078125q0.609375 -0.109375 0.984375 -0.53125q0.375 -0.421875 0.375 -1.140625q0 -0.59375 -0.296875 -1.015625q-0.28125 -0.421875 -0.84375 -0.609375q-0.546875 -0.203125 -2.390625 -0.203125l-2.171875 0z" fill-rule="nonzero"/><path fill="#000000" fill-opacity="0.0" d="m439.8164 204.8863l47.653534 0l0 42.015747l-47.653534 0z" fill-rule="evenodd"/><path fill="#000000" d="m470.31293 231.8063l-2.9375 0l-1.171875 -3.03125l-5.328125 0l-1.109375 3.03125l-2.859375 0l5.203125 -13.359375l2.84375 0l5.359375 13.359375zm-4.96875 -5.28125l-1.84375 -4.953125l-1.796875 4.953125l3.640625 0z" fill-rule="nonzero"/><path fill="#000000" fill-opacity="0.0" d="m439.8164 138.48831l47.653534 0l0 42.015747l-47.653534 0z" fill-rule="evenodd"/><path fill="#000000" d="m466.81293 160.50206l2.609375 0.828125q-0.59375 2.1875 -2.0 3.25q-1.390625 1.0625 -3.546875 1.0625q-2.65625 0 -4.375 -1.8125q-1.703125 -1.828125 -1.703125 -4.984375q0 -3.328125 1.71875 -5.171875q1.71875 -1.84375 4.515625 -1.84375q2.453125 0 3.984375 1.4375q0.921875 0.859375 1.375 2.46875l-2.671875 0.640625q-0.234375 -1.046875 -0.984375 -1.640625q-0.75 -0.609375 -1.828125 -0.609375q-1.484375 0 -2.421875 1.078125q-0.921875 1.0625 -0.921875 3.4375q0 2.53125 0.90625 3.609375q0.921875 1.078125 2.375 1.078125q1.078125 0 1.84375 -0.671875q0.78125 -0.6875 1.125 -2.15625z" fill-rule="nonzero"/><path fill="#000000" fill-opacity="0.0" d="m439.8164 67.92997l47.653534 0l0 42.015747l-47.653534 0z" fill-rule="evenodd"/><path fill="#000000" d="m458.2973 94.84997l0 -13.359375l2.703125 0l0 5.9375l5.4375 -5.9375l3.625 0l-5.015625 5.203125l5.296875 8.15625l-3.484375 0l-3.671875 -6.265625l-2.1875 2.234375l0 4.03125l-2.703125 0z" fill-rule="nonzero"/><path fill="#000000" fill-opacity="0.0" d="m213.74147 57.83858l47.65355 0l0 42.01575l-47.65355 0z" fill-rule="evenodd"/><path fill="#000000" d="m232.2224 84.75858l0 -13.359375l2.625 0l5.453125 8.921875l0 -8.921875l2.515625 0l0 13.359375l-2.703125 0l-5.390625 -8.703125l0 8.703125l-2.5 0z" fill-rule="nonzero"/><path fill="#000000" fill-opacity="0.0" d="m134.93045 103.94357l47.653534 0l0 42.015747l-47.653534 0z" fill-rule="evenodd"/><path fill="#000000" d="m153.36449 117.504196l4.9375 0q1.65625 0 2.53125 0.265625q1.1875 0.34375 2.015625 1.234375q0.84375 0.875 1.28125 2.15625q0.4375 1.28125 0.4375 3.15625q0 1.640625 -0.40625 2.84375q-0.5 1.453125 -1.4375 2.359375q-0.703125 0.671875 -1.890625 1.0625q-0.890625 0.28125 -2.390625 0.28125l-5.078125 0l0 -13.359375zm2.703125 2.265625l0 8.84375l2.015625 0q1.125 0 1.625 -0.125q0.65625 -0.171875 1.078125 -0.5625q0.4375 -0.390625 0.703125 -1.28125q0.28125 -0.90625 0.28125 -2.453125q0 -1.546875 -0.28125 -2.375q-0.265625 -0.828125 -0.765625 -1.28125q-0.484375 -0.46875 -1.234375 -0.640625q-0.5625 -0.125 -2.21875 -0.125l-1.203125 0z" fill-rule="nonzero"/><path fill="#000000" fill-opacity="0.0" d="m239.72572 446.479l47.65355 0l0 42.015747l-47.65355 0z" fill-rule="evenodd"/><path fill="#000000" d="m257.10928 466.80524q0 -2.046875 0.609375 -3.421875q0.453125 -1.03125 1.234375 -1.828125q0.796875 -0.8125 1.734375 -1.203125q1.25 -0.53125 2.875 -0.53125q2.953125 0 4.71875 1.828125q1.78125 1.828125 1.78125 5.09375q0 3.234375 -1.765625 5.0625q-1.75 1.828125 -4.6875 1.828125q-2.984375 0 -4.75 -1.8125q-1.75 -1.828125 -1.75 -5.015625zm2.78125 -0.09375q0 2.265625 1.046875 3.4375q1.046875 1.171875 2.65625 1.171875q1.609375 0 2.640625 -1.15625q1.046875 -1.171875 1.046875 -3.484375q0 -2.296875 -1.015625 -3.421875q-1.0 -1.140625 -2.671875 -1.140625q-1.671875 0 -2.6875 1.15625q-1.015625 1.140625 -1.015625 3.4375z" fill-rule="nonzero"/><path fill="#000000" fill-opacity="0.0" d="m289.96588 335.68634l47.653534 0l0 42.015747l-47.653534 0z" fill-rule="evenodd"/><path fill="#000000" d="m312.3365 362.60635l-4.78125 -13.359375l2.9375 0l3.375 9.890625l3.265625 -9.890625l2.859375 0l-4.78125 13.359375l-2.875 0z" fill-rule="nonzero"/><path fill="#000000" fill-opacity="0.0" d="m350.16928 263.69684l47.653564 0l0 42.015747l-47.653564 0z" fill-rule="evenodd"/><path fill="#000000" d="m368.61896 290.61685l0 -13.359375l5.6875 0q2.140625 0 3.109375 0.359375q0.96875 0.359375 1.546875 1.28125q0.578125 0.921875 0.578125 2.109375q0 1.5 -0.890625 2.484375q-0.875 0.96875 -2.625 1.234375q0.875 0.5 1.4375 1.125q0.578125 0.609375 1.53125 2.15625l1.640625 2.609375l-3.234375 0l-1.9375 -2.90625q-1.046875 -1.5625 -1.4375 -1.96875q-0.375 -0.40625 -0.8125 -0.546875q-0.421875 -0.15625 -1.34375 -0.15625l-0.546875 0l0 5.578125l-2.703125 0zm2.703125 -7.703125l2.0 0q1.9375 0 2.421875 -0.15625q0.484375 -0.171875 0.75 -0.578125q0.28125 -0.40625 0.28125 -1.0q0 -0.671875 -0.359375 -1.078125q-0.359375 -0.421875 -1.015625 -0.53125q-0.328125 -0.046875 -1.96875 -0.046875l-2.109375 0l0 3.390625z" fill-rule="nonzero"/><path fill="#000000" fill-opacity="0.0" d="m279.88452 202.28381l47.653534 0l0 42.015747l-47.653534 0z" fill-rule="evenodd"/><path fill="#000000" d="m298.31857 215.84444l2.6875 0l0 7.234375q0 1.71875 0.109375 2.234375q0.171875 0.828125 0.8125 1.328125q0.65625 0.484375 1.78125 0.484375q1.15625 0 1.734375 -0.46875q0.59375 -0.46875 0.703125 -1.140625q0.125 -0.6875 0.125 -2.28125l0 -7.390625l2.6875 0l0 7.015625q0 2.40625 -0.21875 3.40625q-0.21875 0.984375 -0.8125 1.671875q-0.578125 0.6875 -1.5625 1.09375q-0.984375 0.40625 -2.5625 0.40625q-1.921875 0 -2.90625 -0.4375q-0.984375 -0.453125 -1.5625 -1.15625q-0.578125 -0.703125 -0.75 -1.484375q-0.265625 -1.140625 -0.265625 -3.390625l0 -7.125z" fill-rule="nonzero"/><path fill="#000000" fill-opacity="0.0" d="m330.26642 183.6693l47.653534 0l0 42.015747l-47.653534 0z" fill-rule="evenodd"/><path fill="#000000" d="m349.23077 210.5893l0 -13.359375l4.328125 0q2.453125 0 3.203125 0.203125q1.140625 0.296875 1.921875 1.3125q0.78125 1.0 0.78125 2.59375q0 1.234375 -0.453125 2.078125q-0.453125 0.828125 -1.140625 1.3125q-0.6875 0.46875 -1.390625 0.625q-0.96875 0.203125 -2.796875 0.203125l-1.765625 0l0 5.03125l-2.6875 0zm2.6875 -11.09375l0 3.78125l1.484375 0q1.59375 0 2.125 -0.203125q0.546875 -0.203125 0.84375 -0.65625q0.3125 -0.453125 0.3125 -1.03125q0 -0.734375 -0.4375 -1.203125q-0.421875 -0.484375 -1.078125 -0.59375q-0.484375 -0.09375 -1.9375 -0.09375l-1.3125 0z" fill-rule="nonzero"/><path fill="#000000" fill-opacity="0.0" d="m64.31628 260.0433l47.65354 0l0 42.015747l-47.65354 0z" fill-rule="evenodd"/><path fill="#000000" d="m88.44983 282.05707l0 -2.25l5.8125 0l0 5.3125q-0.84375 0.828125 -2.453125 1.453125q-1.609375 0.625 -3.25 0.625q-2.09375 0 -3.65625 -0.875q-1.5625 -0.890625 -2.34375 -2.515625q-0.78125 -1.640625 -0.78125 -3.5625q0 -2.09375 0.875 -3.703125q0.875 -1.625 2.5625 -2.5q1.28125 -0.65625 3.203125 -0.65625q2.484375 0 3.875 1.046875q1.40625 1.03125 1.796875 2.875l-2.671875 0.5q-0.28125 -0.984375 -1.0625 -1.546875q-0.78125 -0.578125 -1.9375 -0.578125q-1.78125 0 -2.828125 1.125q-1.03125 1.125 -1.03125 3.328125q0 2.375 1.046875 3.5625q1.0625 1.1875 2.78125 1.1875q0.84375 0 1.6875 -0.328125q0.859375 -0.328125 1.46875 -0.8125l0 -1.6875l-3.09375 0z" fill-rule="nonzero"/><path fill="#000000" fill-opacity="0.0" d="m169.58923 341.51575l47.65355 0l0 42.015747l-47.65355 0z" fill-rule="evenodd"/><path fill="#000000" d="m192.0536 368.43576l0 -5.625l-4.890625 -7.734375l3.171875 0l3.140625 5.28125l3.078125 -5.28125l3.109375 0l-4.921875 7.75l0 5.609375l-2.6875 0z" fill-rule="nonzero"/></g></svg>